SplineFontDB: 3.2
FontName: Writing
FullName: Writing
FamilyName: Writing
Weight: Regular
Copyright: Copyright (c) 2023 jhudson\n\nYou may use and copy this file under either (at your choice):\n\n(1) The SIL Open Font License version 1.1 (https://scripts.sil.org/OFL)\n\n(2) The MIT License:\n\nPermission is hereby granted, free of charge, to any person obtaining a copy\nof this software and associated documentation files (the "Software"), to deal\nin the Software without restriction, including without limitation the rights\nto use, copy, modify, merge, publish, distribute, sublicense, and/or sell\ncopies of the Software, and to permit persons to whom the Software is\nfurnished to do so, subject to the following conditions:\n\nThe above copyright notice and this permission notice shall be included in all\ncopies or substantial portions of the Software.\n\nTHE SOFTWARE IS PROVIDED "AS IS", WITHOUT WARRANTY OF ANY KIND, EXPRESS OR\nIMPLIED, INCLUDING BUT NOT LIMITED TO THE WARRANTIES OF MERCHANTABILITY,\nFITNESS FOR A PARTICULAR PURPOSE AND NONINFRINGEMENT. IN NO EVENT SHALL THE\nAUTHORS OR COPYRIGHT HOLDERS BE LIABLE FOR ANY CLAIM, DAMAGES OR OTHER\nLIABILITY, WHETHER IN AN ACTION OF CONTRACT, TORT OR OTHERWISE, ARISING FROM,\nOUT OF OR IN CONNECTION WITH THE SOFTWARE OR THE USE OR OTHER DEALINGS IN THE\nSOFTWARE.\n
UComments: "2023-6-26: Created with FontForge (http://fontforge.org)"
Version: 001.000
ItalicAngle: 0
UnderlinePosition: -102
UnderlineWidth: 51
Ascent: 819
Descent: 205
InvalidEm: 0
LayerCount: 2
Layer: 0 0 "Back" 1
Layer: 1 0 "Fore" 0
XUID: [1021 221 1603365728 15809110]
StyleMap: 0x0000
FSType: 0
OS2Version: 0
OS2_WeightWidthSlopeOnly: 0
OS2_UseTypoMetrics: 1
CreationTime: 1687791048
ModificationTime: 1687832583
OS2TypoAscent: 0
OS2TypoAOffset: 1
OS2TypoDescent: 0
OS2TypoDOffset: 1
OS2TypoLinegap: 92
OS2WinAscent: 0
OS2WinAOffset: 1
OS2WinDescent: 0
OS2WinDOffset: 1
HheadAscent: 0
HheadAOffset: 1
HheadDescent: 0
HheadDOffset: 1
MarkAttachClasses: 1

StartChar: A
Encoding: 65 65 0
Width: 553
Flags: W
HStem: 309 52<436 467.616> 768 50<298.031 326.904>
VStem: 49 49<1.14362 102.131> 332 50<525.646 767.982>
LayerCount: 2
UndoRedoHistory
Layer: 1
Undoes
UndoOperation
Index: 0
Type: 12
WasModified: 0
WasOrder2: 0
Layer: 0
HStem: 311 50<436.38 468.123> 768 50<298.108 327.369>
VStem: 452 48<-18.5406 89.6253>
CopiedFrom: Writing
EndUndoOperation
UndoOperation
Index: 1
Type: 1
WasModified: 1
WasOrder2: 0
Layer: 2
Width: 553
VWidth: 1024
LBearingChange: 0
UnicodeEnc: 0
InstructionsLength: 0
SplineSet
182 292 m 1
 224.76970409 307.614336414 278.600618084 320.463370351 323.467993856 331.172875192 c 0
 344.690499551 336.238527541 363.907557019 340.825494495 379 345 c 1
 378 349 335 642 332 703 c 0
 330 743 327 768 312 768 c 0
 302 768 297 749 287 700 c 0
 286.881705619 699.526822475 285.643926389 694.043950251 283.538276967 684.71675648 c 0
 267.843846616 615.196640013 203.93535057 332.107289901 196 318 c 0
 194.665463282 315.597833907 193.330926563 313.266907344 192.015404198 310.969191603 c 0
 188.402166093 304.658242971 184.932370625 298.597833907 182 292 c 1
428 359 m 1
 442 361 442 361 443 361 c 0
 457 361 468 350 468 336 c 0
 468 316.504535369 453.747257206 313.162179238 437.282538149 309.301101025 c 0
 436.856437347 309.201177758 436.428855064 309.100907074 436 309 c 0
 461.406768008 169.262775956 487.44391088 62.305044833 497.094653946 22.6608493453 c 0
 499.599088509 12.3729064672 501 6.61811549924 501 6 c 0
 501 -7 490 -19 476 -19 c 0
 464 -19 455 -11 452 0 c 0
 422.505117533 110.829255331 403.395290339 212.8711562 391.814518561 274.709704176 c 0
 390.438280963 282.058483374 389.168372511 288.839490397 388 295 c 1
 380 293 380 293 294 272 c 0
 214 252 186 240 171 233 c 0
 169.465434845 232.342329219 168.123105626 231.732717422 166.909798363 231.181700273 c 0
 162.58854047 229.219223594 159.903882032 228 156 228 c 0
 141.810491198 187.899214255 130.285245383 142.469902536 119.076151804 98.2867749486 c 0
 112.116247716 70.8527698572 105.278231859 43.8992142555 98 19 c 0
 95 9 85 1 74 1 c 0
 60 1 49 13 49 26 c 0
 49 27.1715728753 56.8923522617 57.5105345437 63.4305909533 82.6441533264 c 0
 68.0538238692 100.416305603 72 115.585786438 72 116 c 0
 94 203 113 273 151 340 c 1
 183 449 220 616 240 716 c 0
 250 765 261 818 312 818 c 0
 376.452047881 818 379.945013747 746.225596981 381.949170064 705.043653389 c 0
 381.966208804 704.693536767 381.983139935 704.345631336 382 704 c 0
 383 686 413 440 428 359 c 1
EndSplineSet
EndUndoOperation
EndUndoes
Redoes
EndRedoes
EndUndoRedoHistory
Fore
SplineSet
182 292 m 1
 225 308 278 320 323 331 c 0
 344 336 364 341 379 345 c 1
 378 349 335 642 332 703 c 0
 330 743 327 768 312 768 c 0
 302 768 297 749 287 700 c 0
 287 700 286 694 284 685 c 0
 268 615 204 332 196 318 c 0
 195 316 193 313 192 311 c 0
 188 305 185 299 182 292 c 1
428 359 m 1
 442 361 442 361 443 361 c 0
 457 361 468 350 468 336 c 0
 468 317 453 313 437 309 c 0
 436 309 l 0
 461 169 487 63 497 23 c 0
 500 13 501 7 501 6 c 0
 501 -7 490 -19 476 -19 c 0
 464 -19 455 -11 452 0 c 0
 423 111 404 213 392 275 c 0
 391 282 389 289 388 295 c 1
 380 293 380 293 294 272 c 0
 214 252 186 240 171 233 c 0
 169 232 168 232 167 231 c 0
 163 229 160 228 156 228 c 0
 142 188 130 142 119 98 c 0
 112 71 105 44 98 19 c 0
 95 9 85 1 74 1 c 0
 60 1 49 13 49 26 c 0
 49 27 56 58 63 83 c 0
 68 101 72 116 72 116 c 0
 94 203 113 273 151 340 c 1
 183 449 220 616 240 716 c 0
 250 765 261 818 312 818 c 0
 376 818 380 746 382 705 c 0
 382 704 l 0
 383 686 413 440 428 359 c 1
EndSplineSet
Validated: 1
EndChar

StartChar: B
Encoding: 66 66 1
Width: 595
Flags: W
HStem: -17 50<126.979 293.509> 425 55<148.295 275.504 337 443.503> 431 72<203.336 315.568> 769 50<117.089 329.916>
VStem: 67 49<121.485 754.76> 79 50<36.7806 337.625> 376 50<568.9 719.262> 487 50<209.439 382.337>
LayerCount: 2
UndoRedoHistory
Layer: 1
Undoes
UndoOperation
Index: 0
Type: 12
WasModified: 0
WasOrder2: 0
Layer: 0
CopiedFrom: Writing
EndUndoOperation
UndoOperation
Index: 1
Type: 1
WasModified: 1
WasOrder2: 0
Layer: 2
Width: 595
VWidth: 1024
LBearingChange: 0
UnicodeEnc: 0
InstructionsLength: 0
SplineSet
116 422 m 0
 116 372.247530819 119.217900646 322.247530819 122.451731885 272 c 0
 125.717741341 221.252481435 129 170.252481435 129 119 c 0
 129 94 128 69 126 44 c 1
 152 34 177 33 185 33 c 0
 335 33 487 159 487 301 c 0
 487 425.353773163 391.990038631 426.986346225 333.902576118 427.984473422 c 0
 333.60071413 427.989660371 333.299849252 427.994830185 333 428 c 0
 318.959133224 428 315.465168578 428.811300164 312.111186851 429.590096231 c 0
 309.015601889 430.308892453 306.039261635 431 295 431 c 0
 282.464879431 431 269.464879431 429.605361707 256 428.16085121 c 0
 241.536399343 426.60919803 226.536399343 425 211 425 c 0
 196 425 147 425 147 455 c 0
 147 469 158 480 172 480 c 2
 172 480 177 480 181 480 c 0
 218.763527446 480 223.936492447 481.975185603 277.979000064 502.61015664 c 0
 278.317410448 502.739371378 278.657737092 502.869317799 279 503 c 0
 335 525 376 586 376 645 c 0
 376 686 348 769 268 769 c 0
 266 769 159 762 116 750 c 0
 116 749.717624304 116.039868017 746.345477299 116.108346292 740.553395648 c 0
 116.524883375 705.321538409 118 580.552099243 118 517 c 0
 118 506.822680548 116.774226849 454.969073979 116.241924384 432.45120219 c 0
 116.094290242 426.20586824 116 422.217129273 116 422 c 0
74 28 m 0
 74 28.120771344 74.0729285877 28.7666285194 74.201170396 29.9023407919 c 0
 75.1347848526 38.1704509384 79 72.4008812333 79 119 c 0
 79 172.13016666 76.041333277 225.75344444 73.0622139634 279.747407752 c 0
 70.0416199956 334.493063334 67 389.619797501 67 445 c 0
 67 461.63259184 67.32914112 477.277760321 67.7203760474 495.874453301 c 0
 68.2935507669 523.119347699 69 556.699221511 69 609 c 0
 69 692.891329572 66.7090640699 749.291427983 66.1311434834 763.519140561 c 0
 66.0477278319 765.572733983 66 766.747736033 66 767 c 0
 66 795 112 806 211 814 c 0
 267 819 267 819 268 819 c 0
 372 819 426 720 426 645 c 0
 426 580 392 516 337 478 c 1
 386 477 469 473 509 406 c 0
 528 373 537 337 537 300 c 0
 537 130 363 -17 185 -17 c 0
 139 -17 99 0 89 5 c 0
 81 9 74 18 74 28 c 0
EndSplineSet
EndUndoOperation
EndUndoes
Redoes
EndRedoes
EndUndoRedoHistory
Fore
SplineSet
116 422 m 0xbb
 116 372 119 322 122 272 c 0
 125 221 129 170 129 119 c 0
 129 94 128 69 126 44 c 1
 152 34 177 33 185 33 c 0
 335 33 487 159 487 301 c 0
 487 425 392 427 334 428 c 0
 333 428 l 0
 319 428 315 429 312 430 c 0
 309 431 306 431 295 431 c 0xb7
 282 431 269 429 256 428 c 0
 242 426 227 425 211 425 c 0
 196 425 147 425 147 455 c 0
 147 469 158 480 172 480 c 2
 172 480 177 480 181 480 c 0xd7
 219 480 224 482 278 503 c 0
 279 503 l 0
 335 525 376 586 376 645 c 0
 376 686 348 769 268 769 c 0
 266 769 159 762 116 750 c 0
 116 750 116 747 116 741 c 0
 116 706 118 581 118 517 c 0
 118 507 117 455 116 432 c 0
 116 426 116 422 116 422 c 0xbb
74 28 m 0
 74 28 74 29 74 30 c 0
 75 38 79 72 79 119 c 0x97
 79 172 76 226 73 280 c 0
 70 335 67 390 67 445 c 0x9b
 67 462 68 477 68 496 c 0
 69 523 69 557 69 609 c 0
 69 693 67 750 66 764 c 0
 66 766 66 767 66 767 c 0
 66 795 112 806 211 814 c 0
 267 819 267 819 268 819 c 0
 372 819 426 720 426 645 c 0
 426 580 392 516 337 478 c 1
 386 477 469 473 509 406 c 0
 528 373 537 337 537 300 c 0
 537 130 363 -17 185 -17 c 0
 139 -17 99 0 89 5 c 0
 81 9 74 18 74 28 c 0
EndSplineSet
Validated: 1
EndChar

StartChar: C
Encoding: 67 67 2
Width: 568
Flags: W
HStem: 4 51<218.896 428.96> 713 108<343.368 394.654> 737 50<216.745 342.211>
VStem: 57 50<156.14 549.229> 75 48<130.756 327.101 346.811 371.281> 467 48<89.4976 135.836>
LayerCount: 2
UndoRedoHistory
Layer: 1
Undoes
UndoOperation
Index: 0
Type: 12
WasModified: 0
WasOrder2: 0
Layer: 0
CopiedFrom: Writing
EndUndoOperation
UndoOperation
Index: 1
Type: 1
WasModified: 1
WasOrder2: 0
Layer: 2
Width: 568
VWidth: 1024
LBearingChange: 0
UnicodeEnc: 0
InstructionsLength: 0
SplineSet
394 713 m 0
 387.341130058 713 377 716.682260116 364.418944602 721.162110795 c 0
 344.880744987 728.119255013 319.940372493 737 295 737 c 0
 236.329014437 737 207.324370847 709.311414159 185.368707085 688.351967479 c 0
 185.245584382 688.23443135 185.122683349 688.117106834 185 688 c 0
 150 655 123 614 123 571 c 0
 123 570.752201314 122.754383244 568.401309158 122.324013243 564.282072835 c 0
 119.280837776 535.15467346 107 417.61006569 107 330 c 0
 107 268 111 216 123 167 c 1
 154 97 234 56 313 55 c 0
 313.563458093 55 314.682514977 54.9206287443 316.290087086 54.8066086092 c 0
 320.388607863 54.5159131624 327.662477607 54 337 54 c 0
 372 54 443 62 467 120 c 0
 471 131 481 136 490 136 c 0
 503 136 515 127 515 111 c 0
 515 109 492 4 338 4 c 0
 330 4 320 4 312 5 c 0
 163 6 85 115 75 153 c 0
 58 220 57 286 57 363 c 0
 57 364 57 395 57 416 c 0
 57 454.06326136 67.9550991712 533.892838311 71.7354365143 561.440076918 c 0
 72.5236913404 567.184073235 73 570.654924407 73 571 c 0
 73 634 111 686 150 724 c 0
 166 741 211 787 296 787 c 0
 313 787 329 785 343 781 c 1
 340 785 337 790 337 796 c 0
 337 811 349 821 362 821 c 0
 388 821 419 769 419 738 c 0
 419 724 408 713 394 713 c 0
EndSplineSet
EndUndoOperation
EndUndoes
Redoes
EndRedoes
EndUndoRedoHistory
Fore
SplineSet
394 713 m 0xd4
 387 713 377 717 364 721 c 0
 344 728 320 737 295 737 c 0
 236 737 207 709 185 688 c 0
 150 655 123 614 123 571 c 0xac
 123 571 122 568 122 564 c 0
 119 535 107 418 107 330 c 0xb4
 107 268 111 216 123 167 c 1
 154 97 234 56 313 55 c 0
 314 55 314 55 316 55 c 0
 320 55 328 54 337 54 c 0
 372 54 443 62 467 120 c 0
 471 131 481 136 490 136 c 0
 503 136 515 127 515 111 c 0
 515 109 492 4 338 4 c 0
 330 4 320 4 312 5 c 0
 163 6 85 115 75 153 c 0xac
 58 220 57 286 57 363 c 0
 57 364 57 395 57 416 c 0
 57 454 68 533 72 561 c 0
 73 567 73 571 73 571 c 0
 73 634 111 686 150 724 c 0
 166 741 211 787 296 787 c 0xb4
 313 787 329 785 343 781 c 1
 340 785 337 790 337 796 c 0
 337 811 349 821 362 821 c 0
 388 821 419 769 419 738 c 0
 419 724 408 713 394 713 c 0xd4
EndSplineSet
Validated: 1
EndChar

StartChar: D
Encoding: 68 68 3
Width: 723
Flags: W
LayerCount: 2
UndoRedoHistory
Layer: 1
Undoes
UndoOperation
Index: 0
Type: 12
WasModified: 1
WasOrder2: 0
Layer: 0
EndUndoOperation
EndUndoes
Redoes
EndRedoes
EndUndoRedoHistory
Fore
SplineSet
304 756 m 0
 282 756 258 754 233 749 c 0
 215 746 196 741 177 736 c 1
 180 667 183 597 187 527 c 0
 195 378 203 230 203 93 c 0
 203 77 203 62 203 47 c 0
 203 46 203 46 203 45 c 2
 203 45 203 33 203 23 c 1
 212 23 222 23 231 23 c 2
 245 23 l 1
 246 23 l 2
 351 24 453 84 510 172 c 1
 511 173 l 1
 552 227 572 295 572 364 c 0
 572 385 570 406 566 427 c 0
 541 545 488 661 394 734 c 0
 371 750 340 756 304 756 c 0
149 819 m 0
 163 819 175 809 175 795 c 0
 175 792 175 790 175 787 c 1
 191 791 207 795 224 798 c 0
 252 804 281 807 308 807 c 0
 350 807 390 799 423 775 c 1
 424 774 l 1
 531 691 589 562 615 437 c 1
 615 436 l 1
 620 412 622 388 622 363 c 0
 622 286 599 208 551 144 c 0
 486 49 340 -27 201 -27 c 0
 196 -27 190 -27 185 -27 c 0
 183 -27 181 -27 178 -27 c 0
 158 -27 132 -23 129 1 c 0
 130 13 140 23 153 24 c 1
 153 31 153 38 153 45 c 0
 153 46 153 46 153 47 c 0
 153 62 153 78 153 94 c 0
 153 228 146 374 138 521 c 0
 135 588 131 655 128 721 c 1
 102 713 76 704 51 696 c 0
 45 694 39 692 33 690 c 0
 31 689 28 689 26 689 c 0
 15 689 4 696 1 707 c 0
 0 709 0 712 -0 714 c 0
 0 725 6 735 17 738 c 0
 50 749 88 761 126 773 c 0
 126 777 126 780 126 783 c 0
 126 786 125 789 125 793 c 0
 125 807 135 819 149 819 c 0
EndSplineSet
Validated: 1
EndChar

StartChar: E
Encoding: 69 69 4
Width: 576
Flags: W
HStem: 11 50<105.009 344.109> 27 49<125.984 412.751> 33 71<366.512 439.6> 371 51<159.426 367.291> 736 50<153.334 501.975> 751 51<289.717 502.999 503 527.717>
VStem: 86 50<263.539 680.785>
LayerCount: 2
UndoRedoHistory
Layer: 1
Undoes
UndoOperation
Index: 0
Type: 12
WasModified: 0
WasOrder2: 0
Layer: 0
CopiedFrom: Writing
EndUndoOperation
UndoOperation
Index: 1
Type: 1
WasModified: 1
WasOrder2: 0
Layer: 2
Width: 576
VWidth: 1024
LBearingChange: 0
UnicodeEnc: 0
InstructionsLength: 0
SplineSet
139 796 m 0
 139.096829989 796 139.728094644 795.906239532 140.868373254 795.736876247 c 0
 151.504184079 794.157160688 206.424209042 786 285 786 c 0
 385.558564844 786 464.706517444 797.050638578 491.448628862 800.784372659 c 0
 496.884736043 801.543362042 500.155312597 802 501 802 c 0
 528 802 528 777 528 777 c 1
 528 763 517 752 503 752 c 0
 502.769615664 752 501.252115476 751.787692231 498.566723374 751.411989076 c 0
 477.939835247 748.526158391 388.407324168 736 284 736 c 0
 242 736 197 738 153 744 c 1
 144.616137509 646.587502489 140.057534897 553.63780817 135.633544815 463.432857069 c 0
 128.976271122 327.691357448 122.623822038 198.165217357 104 69 c 1
 108 63 115 61 125 61 c 0
 142.332620531 61 146.365409067 62.564686117 151.882592631 64.7053043145 c 0
 161.644391873 68.4927956776 176.053209247 74.0832887832 277 76 c 0
 349 77 382 80 415 99 c 0
 421 102 426 104 432 104 c 0
 447 104 456 92 456 79 c 0
 456 48 387 35 374 33 c 0
 343.455063914 27.8228921889 311.033956659 27.2022000767 277.430473977 26.5588717512 c 0
 246.126127988 25.9595596895 213.795666884 25.34060297 181 21 c 0
 166 16 146 11 125 11 c 0
 69 11 53 53 53 68 c 0
 53 68.4440144158 53.1848270014 69.4548316359 53.5380678335 71.3867025926 c 0
 56.3670735191 86.8585094243 69.9980648713 161.406279406 86 477 c 0
 86.183625187 480.562328628 86.367250374 484.128703441 86.5510736894 487.698926311 c 0
 91.3726452875 581.343658752 96.3305253366 677.635778703 105 773 c 0
 106 786 117 796 130 796 c 0
 131 796 131.75 795.75 132.5 795.5 c 0
 133.25 795.25 134 795 135 795 c 0
 135.5 795 136.25 795.25 137 795.5 c 0
 137.75 795.75 138.5 796 139 796 c 0
254 371 m 0
 205.85502792 371 197.254332163 368.241097001 191.717173244 366.464905308 c 0
 189.088613786 365.62172462 187.150428827 365 182 365 c 0
 169 365 157 376 157 390 c 0
 157 422.254754219 211.73999496 422.345895581 265.324002793 422.435112239 c 0
 308.093928807 422.506323595 350.12737711 422.576308726 363 439 c 0
 368 445 374 448 382 448 c 0
 397 448 407 436 407 423 c 0
 407 418 406 413 402 408 c 0
 375 373 319 371 269 371 c 0
 264 371 259 371 254 371 c 0
EndSplineSet
EndUndoOperation
EndUndoes
Redoes
EndRedoes
EndUndoRedoHistory
Fore
SplineSet
139 796 m 0x92
 139 796 140 796 141 796 c 0
 152 794 206 786 285 786 c 0x9a
 386 786 464 797 491 801 c 0
 496 802 500 802 501 802 c 0
 528 802 528 777 528 777 c 1
 528 763 517 752 503 752 c 0
 503 752 502 751 499 751 c 0x16
 478 748 388 736 284 736 c 0
 242 736 197 738 153 744 c 1
 145 647 140 553 136 463 c 0
 129 327 123 198 104 69 c 1
 108 63 115 61 125 61 c 0x9a
 142 61 146 63 152 65 c 0
 162 69 176 74 277 76 c 0x52
 349 77 382 80 415 99 c 0
 421 102 426 104 432 104 c 0
 447 104 456 92 456 79 c 0
 456 48 387 35 374 33 c 0x32
 343 28 311 28 277 27 c 0x52
 246 26 214 25 181 21 c 0
 166 16 146 11 125 11 c 0
 69 11 53 53 53 68 c 0
 53 68 54 69 54 71 c 0
 57 86 70 161 86 477 c 0
 86 481 87 484 87 488 c 0
 92 582 96 678 105 773 c 0
 106 786 117 796 130 796 c 0
 131 796 131 796 132 796 c 0
 133 796 134 795 135 795 c 0
 135 795 136 796 137 796 c 0
 138 796 139 796 139 796 c 0x92
254 371 m 0
 206 371 198 368 192 366 c 0
 189 365 187 365 182 365 c 0
 169 365 157 376 157 390 c 0
 157 422 211 422 265 422 c 0
 308 422 350 423 363 439 c 0
 368 445 374 448 382 448 c 0
 397 448 407 436 407 423 c 0
 407 418 406 413 402 408 c 0
 375 373 319 371 269 371 c 0
 264 371 259 371 254 371 c 0
EndSplineSet
Validated: 1
EndChar

StartChar: F
Encoding: 70 70 5
Width: 510
Flags: W
HStem: 349 50<131.189 317.006> 761 50<179.398 461.802>
VStem: 64 55<8.93423 615.572>
LayerCount: 2
UndoRedoHistory
Layer: 1
Undoes
UndoOperation
Index: 0
Type: 12
WasModified: 0
WasOrder2: 0
Layer: 0
CopiedFrom: Writing
EndUndoOperation
UndoOperation
Index: 1
Type: 1
WasModified: 1
WasOrder2: 0
Layer: 2
Width: 510
VWidth: 1024
LBearingChange: 0
UnicodeEnc: 0
InstructionsLength: 0
SplineSet
185 349 m 0
 153 349 131 349 131 375 c 0
 131 385 138 400 157 400 c 0
 162.131670195 400 167.26334039 399.73665961 172.259872982 399.480254036 c 0
 177 399.237006351 181.618503175 399 186 399 c 0
 262.311671426 399 310.194647511 418.605996788 338.914178801 430.365396146 c 0
 351.216274375 435.402569397 360.002141546 439 366 439 c 0
 379 439 391 428 391 414 c 0
 391 403 384 395 375 391 c 0
 295 359 246 349 185 349 c 0
68 33 m 0
 68 34 68 33 68 34 c 0
 68 88.8028719797 67.0422975838 146.957702416 66.0641220891 206.3557253 c 0
 65.0432115605 268.348759538 64 331.695985549 64 394 c 0
 64 516 67 635 83 736 c 0
 85 746 98 786 147 792 c 0
 234 803 316 811 397 811 c 0
 406 811 415 811 424 811 c 0
 429 811 433 811 438 811 c 0
 451 810 462 799 462 786 c 0
 462 772 451 761 437 761 c 0
 436.584016807 761 435.389344538 761.043260504 433.496963585 761.11178587 c 0
 426.290991601 761.372722689 408.968243701 762 386 762 c 0
 275.03596372 762 176.680457205 746.239337795 154.592228066 742.699880469 c 0
 151.798263524 742.252170595 150.22457542 742 150 742 c 0
 143 742 137 741 133 727 c 0
 122 654 119 570 119 482 c 0
 119 434.124353166 119.746118997 385.00517467 120.494170958 335.758743562 c 0
 121.24610893 286.256485117 122 236.625648512 122 188 c 0
 122 134 121 81 118 31 c 0
 117 18 106 8 93 8 c 0
 79 8 68 19 68 33 c 0
EndSplineSet
EndUndoOperation
EndUndoes
Redoes
EndRedoes
EndUndoRedoHistory
Fore
SplineSet
185 349 m 0
 153 349 131 349 131 375 c 0
 131 385 138 400 157 400 c 0
 162 400 167 399 172 399 c 0
 177 399 182 399 186 399 c 0
 262 399 310 418 339 430 c 0
 351 435 360 439 366 439 c 0
 379 439 391 428 391 414 c 0
 391 403 384 395 375 391 c 0
 295 359 246 349 185 349 c 0
68 33 m 0
 68 34 68 33 68 34 c 0
 68 89 67 147 66 206 c 0
 65 268 64 332 64 394 c 0
 64 516 67 635 83 736 c 0
 85 746 98 786 147 792 c 0
 234 803 316 811 397 811 c 0
 406 811 415 811 424 811 c 0
 429 811 433 811 438 811 c 0
 451 810 462 799 462 786 c 0
 462 772 451 761 437 761 c 0
 437 761 435 761 433 761 c 0
 426 761 409 762 386 762 c 0
 275 762 177 747 155 743 c 0
 152 743 150 742 150 742 c 0
 143 742 137 741 133 727 c 0
 122 654 119 570 119 482 c 0
 119 434 119 385 120 336 c 0
 121 286 122 237 122 188 c 0
 122 134 121 81 118 31 c 0
 117 18 106 8 93 8 c 0
 79 8 68 19 68 33 c 0
EndSplineSet
Validated: 1
EndChar

StartChar: G
Encoding: 71 71 6
Width: 731
Flags: W
HStem: -22 50<225.203 493.616> 342 50<441.233 617.435> 769 50<351.479 594.705>
VStem: 54 50<122.775 435.061> 622 50<201.932 340.248>
LayerCount: 2
UndoRedoHistory
Layer: 1
Undoes
UndoOperation
Index: 0
Type: 12
WasModified: 0
WasOrder2: 0
Layer: 0
CopiedFrom: Writing
EndUndoOperation
UndoOperation
Index: 1
Type: 1
WasModified: 1
WasOrder2: 0
Layer: 2
Width: 731
VWidth: 1024
LBearingChange: 0
UnicodeEnc: 0
InstructionsLength: 0
SplineSet
572 342 m 2
 572 342 525 342 524 342 c 0
 455 342 416 350 416 377 c 0
 416 390 425 402 441 402 c 0
 446.387070885 402 448.761629723 400.995829318 452.005816013 399.623904264 c 0
 458.999320689 396.66644023 470.034035288 392 524 392 c 0
 540 392 556 392 572 392 c 0
 637 392 657 386 662 368 c 0
 669 345 672 322 672 300 c 0
 672 213 627 135 591 80 c 0
 533 -9 469 -22 383 -22 c 0
 374 -22 364 -22 354 -22 c 0
 217 -19 88 33 63 145 c 0
 56 174 54 207 54 241 c 0
 54 341 78 453 96 525 c 0
 161 781 364 819 490 819 c 0
 526 819 555 816 574 814 c 0
 586 813 596 802 596 789 c 0
 596 775 585 764 571 764 c 0
 570 764 569 764 568 764 c 0
 540 767 514 769 489 769 c 0
 244 769 170 615 144 512 c 0
 112 388 104 301 104 241 c 0
 104 200 108 172 112 156 c 0
 128 85 210 28 382 28 c 0
 463 28 505 40 549 107 c 0
 591 172 622 236 622 300 c 0
 622 313 621 327 618 340 c 1
 606 342 590 342 572 342 c 2
EndSplineSet
EndUndoOperation
EndUndoes
Redoes
EndRedoes
EndUndoRedoHistory
Fore
SplineSet
572 342 m 2
 572 342 525 342 524 342 c 0
 455 342 416 350 416 377 c 0
 416 390 425 402 441 402 c 0
 446 402 449 401 452 400 c 0
 459 397 470 392 524 392 c 0
 540 392 556 392 572 392 c 0
 637 392 657 386 662 368 c 0
 669 345 672 322 672 300 c 0
 672 213 627 135 591 80 c 0
 533 -9 469 -22 383 -22 c 0
 374 -22 364 -22 354 -22 c 0
 217 -19 88 33 63 145 c 0
 56 174 54 207 54 241 c 0
 54 341 78 453 96 525 c 0
 161 781 364 819 490 819 c 0
 526 819 555 816 574 814 c 0
 586 813 596 802 596 789 c 0
 596 775 585 764 571 764 c 0
 570 764 569 764 568 764 c 0
 540 767 514 769 489 769 c 0
 244 769 170 615 144 512 c 0
 112 388 104 301 104 241 c 0
 104 200 108 172 112 156 c 0
 128 85 210 28 382 28 c 0
 463 28 505 40 549 107 c 0
 591 172 622 236 622 300 c 0
 622 313 621 327 618 340 c 1
 606 342 590 342 572 342 c 2
EndSplineSet
Validated: 1
EndChar

StartChar: H
Encoding: 72 72 7
Width: 610
Flags: W
HStem: -20 21G<383 396> 351 49<149.162 235.515> 415 50<288.628 418.616> 799 20G<533 545>
VStem: 56 50<-15.8198 224.686> 121 50<444.263 799.505>
LayerCount: 2
UndoRedoHistory
Layer: 1
Undoes
UndoOperation
Index: 0
Type: 12
WasModified: 0
WasOrder2: 0
Layer: 0
CopiedFrom: Writing
EndUndoOperation
UndoOperation
Index: 1
Type: 1
WasModified: 1
WasOrder2: 0
Layer: 2
Width: 610
VWidth: 1024
LBearingChange: 0
UnicodeEnc: 0
InstructionsLength: 0
SplineSet
561 784 m 0
 497.634705866 643.119880032 478.550095923 472.340836552 459.740919878 304.026519243 c 0
 447.975865042 198.746672432 436.318572235 94.4311364543 414 -1 c 0
 411 -12 402 -20 390 -20 c 0
 376 -20 365 -8 365 5 c 0
 365 5.37273005168 365.262418973 6.39378933 365.77574969 8.39113383047 c 0
 369.394074431 22.4698569141 385.478813816 85.0547844444 410 311 c 0
 410.165735556 312.482897077 410.331471111 313.966098513 410.497238526 315.449585057 c 0
 429.335123403 484.033675312 448.584435907 656.299715674 515 804 c 0
 519 813 528 819 538 819 c 0
 552 819 563 807 563 794 c 0
 563 791 562 787 561 784 c 0
394 413 m 2
 394 413 381 415 372 415 c 0
 335.885025 415 295.411758335 396.404622225 258.097792579 379.260780212 c 0
 226.187407338 364.599604641 196.587555597 351 174 351 c 0
 161 351 149 362 149 376 c 0
 149 388 158 398 170 400 c 0
 200.731992324 405.548831947 227.091506165 418.202941429 253.511049385 430.885868525 c 0
 288.988147678 447.9169522 324.573491364 465 371 465 c 0
 389 465 419 465 419 438 c 0
 419 424 408 413 394 413 c 2
121 660 m 0
 121 716.888888889 116.259259259 763.50617284 115.205761317 773.865569273 c 0
 115.074074074 775.160493827 115 775.888888889 115 776 c 0
 115 790 126 801 140 801 c 0
 153 801 164 792 165 779 c 0
 169 739 171 699 171 660 c 0
 171 544.472876951 154.918271886 436.063895855 138.727809637 326.921924077 c 0
 123.385815179 223.499581934 107.946184479 119.419061431 106 8 c 0
 106 -6 95 -16 81 -16 c 0
 67 -16 56 -5 56 9 c 0
 56 105.462023331 71.5845274662 212.233810986 87.4915006519 321.214719577 c 0
 104.070614834 434.800560582 121 550.786157324 121 660 c 0
EndSplineSet
EndUndoOperation
EndUndoes
Redoes
EndRedoes
EndUndoRedoHistory
Fore
SplineSet
561 784 m 0
 498 643 479 472 460 304 c 0
 448 199 436 94 414 -1 c 0
 411 -12 402 -20 390 -20 c 0
 376 -20 365 -8 365 5 c 0
 365 5 365 6 366 8 c 0
 370 22 385 85 410 311 c 0
 410 312 410 314 410 315 c 0
 429 484 449 656 515 804 c 0
 519 813 528 819 538 819 c 0
 552 819 563 807 563 794 c 0
 563 791 562 787 561 784 c 0
394 413 m 2
 394 413 381 415 372 415 c 0
 336 415 295 396 258 379 c 0
 226 364 197 351 174 351 c 0
 161 351 149 362 149 376 c 0
 149 388 158 398 170 400 c 0
 201 406 228 418 254 431 c 0
 289 448 325 465 371 465 c 0
 389 465 419 465 419 438 c 0
 419 424 408 413 394 413 c 2
121 660 m 0
 121 717 116 764 115 774 c 0
 115 775 115 776 115 776 c 0
 115 790 126 801 140 801 c 0
 153 801 164 792 165 779 c 0
 169 739 171 699 171 660 c 0
 171 544 155 436 139 327 c 0
 124 224 108 119 106 8 c 0
 106 -6 95 -16 81 -16 c 0
 67 -16 56 -5 56 9 c 0
 56 105 71 212 87 321 c 0
 104 435 121 551 121 660 c 0
EndSplineSet
Validated: 1
EndChar

StartChar: I
Encoding: 73 73 8
Width: 690
Flags: W
HStem: -21 50<46.1976 273.158> 39 50<389.663 589.82> 729 49<90.1788 330.547> 749 50<156.453 591.875> 767 49<405.125 642.855>
VStem: 341 50<68.1802 744.831>
LayerCount: 2
UndoRedoHistory
Layer: 1
Undoes
UndoOperation
Index: 0
Type: 12
WasModified: 0
WasOrder2: 0
Layer: 0
CopiedFrom: Writing
EndUndoOperation
UndoOperation
Index: 1
Type: 1
WasModified: 1
WasOrder2: 0
Layer: 2
Width: 690
VWidth: 1024
LBearingChange: 0
UnicodeEnc: 0
InstructionsLength: 0
SplineSet
46 4 m 0
 46 17 57 28 70 29 c 0
 158.527370458 33.9796645883 281.035896406 51.8170636862 383.661421069 66.7594721993 c 0
 466.516204486 78.8232353337 536.410948183 89 565 89 c 0
 579 89 590 78 590 64 c 0
 590 51 580 40 567 39 c 0
 505.178088166 33.7009789856 418.591508197 21.3820520435 333.503181054 9.27628592954 c 0
 225.903099725 -6.03229354476 120.698927477 -21 71 -21 c 0
 57 -21 46 -10 46 4 c 0
396 720 m 0
 391 573 391 98 391 92 c 0
 391 78 380 68 366 68 c 0
 352 68 341 79 341 93 c 0
 341 99 341 576 346 722 c 0
 346 735 357 746 371 746 c 0
 382 746 396 738 396 720 c 0
90 754 m 0
 90 766 100 776 111 778 c 0
 199.14767777 795.733852333 287.839455054 797.41676903 375.656364142 799.083085199 c 0
 456.205293057 800.611492246 536.018174418 802.125932872 614 816 c 0
 616 816 617 816 618 816 c 0
 631 816 643 805 643 791 c 0
 643 779 635 769 623 767 c 0
 540.128754812 752.289128073 456.776599063 750.562841317 374.122635032 748.851014645 c 0
 288.219702282 747.07189935 203.070929198 745.308403278 120 729 c 0
 118 729 117 729 115 729 c 0
 102 729 90 740 90 754 c 0
EndSplineSet
EndUndoOperation
EndUndoes
Redoes
EndRedoes
EndUndoRedoHistory
Fore
SplineSet
46 4 m 0xc4
 46 17 57 28 70 29 c 0
 159 34 281 52 384 67 c 0
 467 79 536 89 565 89 c 0
 579 89 590 78 590 64 c 0
 590 51 580 40 567 39 c 0
 505 34 419 21 334 9 c 0
 226 -6 121 -21 71 -21 c 0
 57 -21 46 -10 46 4 c 0xc4
396 720 m 0
 391 573 391 98 391 92 c 0
 391 78 380 68 366 68 c 0
 352 68 341 79 341 93 c 0
 341 99 341 576 346 722 c 0
 346 735 357 746 371 746 c 0
 382 746 396 738 396 720 c 0
90 754 m 0
 90 766 100 776 111 778 c 0xe4
 199 796 288 797 376 799 c 0xd4
 457 801 536 802 614 816 c 0
 616 816 617 816 618 816 c 0
 631 816 643 805 643 791 c 0
 643 779 635 769 623 767 c 0xcc
 540 752 457 751 374 749 c 0xd4
 288 747 203 745 120 729 c 0
 118 729 117 729 115 729 c 0xe4
 102 729 90 740 90 754 c 0
EndSplineSet
Validated: 1
EndChar

StartChar: J
Encoding: 74 74 9
Width: 627
Flags: W
HStem: 4 50<239.871 398.927> 762 50<47.127 324.24 372 579.873>
VStem: 86 50<154.355 284.914> 97 49<228.938 305.764> 320 52<676.953 762> 415 50<71.8037 323.355>
LayerCount: 2
UndoRedoHistory
Layer: 1
Undoes
UndoOperation
Index: 0
Type: 12
WasModified: 0
WasOrder2: 0
Layer: 0
CopiedFrom: Writing
EndUndoOperation
UndoOperation
Index: 1
Type: 1
WasModified: 1
WasOrder2: 0
Layer: 2
Width: 627
VWidth: 1024
LBearingChange: 0
UnicodeEnc: 0
InstructionsLength: 0
SplineSet
322 4 m 0
 195 4 86 117 86 228 c 0
 86 248 89 269 97 290 c 0
 101 301 110 306 120 306 c 0
 133 306 146 297 146 281 c 0
 146 277.339745962 144.660254038 273.277568136 142.961524227 268.126933041 c 0
 140.019237886 259.205771366 136 247.019237886 136 228 c 0
 136 149 219 54 323 54 c 0
 333 54 415 56 415 109 c 0
 415 110 415 110 405 211 c 0
 387 392 366 598 320 762 c 1
 72 762 l 2
 58 762 47 773 47 787 c 0
 47 801 58 812 72 812 c 2
 555 812 l 2
 569 812 580 801 580 787 c 0
 580 773 569 762 555 762 c 2
 372 762 l 1
 415.167989392 603.063311785 435.235045212 405.625067616 452.976601947 231.067233024 c 0
 453.318548922 227.702842601 453.659632024 224.346951765 454 221 c 0
 465 112 465 111 465 108 c 0
 465 37 394 4 322 4 c 0
EndSplineSet
EndUndoOperation
EndUndoes
Redoes
EndRedoes
EndUndoRedoHistory
Fore
SplineSet
322 4 m 0xec
 195 4 86 117 86 228 c 0xec
 86 248 89 269 97 290 c 0
 101 301 110 306 120 306 c 0
 133 306 146 297 146 281 c 0xdc
 146 277 145 273 143 268 c 0
 140 259 136 247 136 228 c 0
 136 149 219 54 323 54 c 0
 333 54 415 56 415 109 c 0
 415 110 415 110 405 211 c 0
 387 392 366 598 320 762 c 1
 72 762 l 2
 58 762 47 773 47 787 c 0
 47 801 58 812 72 812 c 2
 555 812 l 2
 569 812 580 801 580 787 c 0
 580 773 569 762 555 762 c 2
 372 762 l 1
 415 603 435 406 453 231 c 0
 453 228 454 224 454 221 c 0
 465 112 465 111 465 108 c 0
 465 37 394 4 322 4 c 0xec
EndSplineSet
Validated: 1
EndChar

StartChar: K
Encoding: 75 75 10
Width: 555
Flags: W
HStem: 799 20G<114 127.5>
VStem: 52 50<-5.85542 165.781> 99 50<418.607 818.225>
LayerCount: 2
UndoRedoHistory
Layer: 1
Undoes
UndoOperation
Index: 0
Type: 12
WasModified: 0
WasOrder2: 0
Layer: 0
CopiedFrom: Writing
EndUndoOperation
UndoOperation
Index: 1
Type: 1
WasModified: 1
WasOrder2: 0
Layer: 2
Width: 555
VWidth: 1024
LBearingChange: 0
UnicodeEnc: 0
InstructionsLength: 0
SplineSet
156 387 m 0
 156 397 156 397 188 428 c 0
 289 526 389 624 463 740 c 0
 467 747 475 751 484 751 c 0
 499 751 509 739 509 726 c 0
 509 722 508 717 505 713 c 0
 448 623 378 546 305 473 c 1
 313.552771133 465.934667325 323.350058422 427.61815118 337.219994242 373.373786986 c 0
 360.64890799 281.744918156 395.698522989 144.668286696 456 36 c 0
 458 32 459 28 459 24 c 0
 459 8 446 -1 433 -1 c 0
 425 -1 417 3 412 12 c 0
 355 115 325 222 290 353 c 0
 283 381 276 408 268 436 c 1
 192 361 192 361 181 361 c 0
 166 361 156 374 156 387 c 0
52 19 m 0
 52 19.6818512952 52.6069804408 23.3727758395 53.6829845226 29.9157377012 c 0
 62.0753565167 80.9480440084 99 305.479287122 99 629 c 0
 99 711.962530845 96.7120947842 774.333914747 96.1322929218 790.140096008 c 0
 96.0481664256 792.43349783 96 793.746579597 96 794 c 0
 96 808 107 819 121 819 c 0
 134 819 145 808 146 795 c 0
 148 743 149 687 149 629 c 0
 149 434 136 211 102 14 c 0
 100 2 89 -6 77 -6 c 0
 63 -6 52 5 52 19 c 0
EndSplineSet
EndUndoOperation
EndUndoes
Redoes
EndRedoes
EndUndoRedoHistory
Fore
SplineSet
156 387 m 0x80
 156 397 156 397 188 428 c 0
 289 526 389 624 463 740 c 0
 467 747 475 751 484 751 c 0
 499 751 509 739 509 726 c 0
 509 722 508 717 505 713 c 0
 448 623 378 546 305 473 c 1
 314 466 323 427 337 373 c 0
 360 281 396 145 456 36 c 0
 458 32 459 28 459 24 c 0
 459 8 446 -1 433 -1 c 0
 425 -1 417 3 412 12 c 0
 355 115 325 222 290 353 c 0
 283 381 276 408 268 436 c 1
 192 361 192 361 181 361 c 0
 166 361 156 374 156 387 c 0x80
52 19 m 0xc0
 52 20 53 23 54 30 c 0
 62 81 99 305 99 629 c 0
 99 712 97 774 96 790 c 0
 96 792 96 794 96 794 c 0
 96 808 107 819 121 819 c 0
 134 819 145 808 146 795 c 0
 148 743 149 687 149 629 c 0xa0
 149 434 136 211 102 14 c 0
 100 2 89 -6 77 -6 c 0
 63 -6 52 5 52 19 c 0xc0
EndSplineSet
Validated: 1
EndChar

StartChar: L
Encoding: 76 76 11
Width: 524
Flags: W
HStem: -16 50<118.707 473.294> 799 20G<105.5 119>
VStem: 63 50<35.4233 430.569> 87 50<576.839 818.82>
LayerCount: 2
UndoRedoHistory
Layer: 1
Undoes
UndoOperation
Index: 0
Type: 12
WasModified: 0
WasOrder2: 0
Layer: 0
CopiedFrom: Writing
EndUndoOperation
UndoOperation
Index: 1
Type: 1
WasModified: 1
WasOrder2: 0
Layer: 2
Width: 524
VWidth: 1024
LBearingChange: 0
UnicodeEnc: 0
InstructionsLength: 0
SplineSet
146 33 m 0
 154.263706423 33 164.181467887 33.7088807319 174.374935625 34.4374678125 c 0
 185.151350248 35.2077215349 196.235907178 36 206 36 c 0
 206.112688654 36 206.974602535 35.9746025347 208.504174467 35.9295316164 c 0
 220.548035906 35.5746428506 273.986696528 34 329 34 c 0
 410.417809346 34 441.914576667 36.4551332143 447.921493604 36.9233647994 c 0
 448.554678245 36.9727207421 448.904642326 37 449 37 c 0
 463 37 474 26 474 12 c 0
 474 -1 464 -12 451 -13 c 0
 423 -16 376 -16 329 -16 c 0
 272.111111111 -16 219.962962963 -14.4197530864 208.374485597 -14.0685871056 c 0
 206.925925926 -14.024691358 206.111111111 -14 206 -14 c 0
 193.632593078 -14 182.132593078 -14.8674069224 171.5 -15.6693882127 c 0
 162.358873144 -16.3588731443 153.858873144 -17 146 -17 c 0
 63 -17 63 41 63 214 c 0
 63 401 73 647 87 796 c 0
 88 809 99 819 112 819 c 0
 126 819 137 808 137 794 c 0
 137 793 137 793 137 792 c 0
 123 646 113 399 113 214 c 0
 113 57 118 39 130 35 c 0
 133 34 139 33 146 33 c 0
EndSplineSet
EndUndoOperation
EndUndoes
Redoes
EndRedoes
EndUndoRedoHistory
Fore
SplineSet
146 33 m 0xe0
 154 33 164 33 174 34 c 0
 185 35 196 36 206 36 c 0
 206 36 207 36 209 36 c 0
 221 36 274 34 329 34 c 0
 410 34 442 37 448 37 c 0
 449 37 449 37 449 37 c 0
 463 37 474 26 474 12 c 0
 474 -1 464 -12 451 -13 c 0
 423 -16 376 -16 329 -16 c 0
 272 -16 220 -14 208 -14 c 0
 207 -14 206 -14 206 -14 c 0
 194 -14 183 -15 172 -16 c 0
 163 -17 154 -17 146 -17 c 0
 63 -17 63 41 63 214 c 0xe0
 63 401 73 647 87 796 c 0
 88 809 99 819 112 819 c 0
 126 819 137 808 137 794 c 0
 137 793 137 793 137 792 c 0xd0
 123 646 113 399 113 214 c 0
 113 57 118 39 130 35 c 0
 133 34 139 33 146 33 c 0xe0
EndSplineSet
Validated: 1
EndChar

StartChar: M
Encoding: 77 77 12
Width: 647
Flags: W
HStem: 799 20G<456 464.5>
VStem: 52 50<8.1976 189.205> 107 49<378.95 746.082> 543 49<11.1379 114.242>
LayerCount: 2
UndoRedoHistory
Layer: 1
Undoes
UndoOperation
Index: 0
Type: 12
WasModified: 0
WasOrder2: 0
Layer: 0
CopiedFrom: Writing
EndUndoOperation
UndoOperation
Index: 1
Type: 1
WasModified: 1
WasOrder2: 0
Layer: 2
Width: 647
VWidth: 1024
LBearingChange: 0
UnicodeEnc: 0
InstructionsLength: 0
SplineSet
52 33 m 2
 52 37 l 1
 83.8195714673 232.889236846 94.8752877631 407.025863511 106.797109332 594.804360724 c 0
 106.864710392 595.869133038 106.9323393 596.934343979 107 598 c 0
 108.510671672 620.660075087 109.878710289 643.748049343 111.265719637 667.156186909 c 0
 113.551273621 705.728790739 115.888339591 745.170746759 119 785 c 0
 120 798 131 808 144 808 c 0
 145 808 201 804 239 747 c 0
 276.643172833 690.262464136 283.63062807 604.059723981 290.163575292 523.464151952 c 0
 295.605531469 456.327903002 300.732108244 393.082422266 323 354 c 1
 345.792645178 406.735924138 358.199191526 481.242709288 370.841989414 557.168289189 c 0
 386.488259656 651.131045839 402.496364349 747.266778025 439 807 c 0
 444 815 452 819 460 819 c 0
 469 819 477 814 482 805 c 0
 507.991741057 753.016517886 517.141001702 671.090848375 524.487967106 605.303558792 c 0
 527.882286202 574.90964225 530.891911414 547.960408858 535 529 c 0
 537.23090483 517.566612745 538.995221877 485.525598366 541.377235453 442.266859019 c 0
 547.537096164 330.400238432 557.827702774 143.516891677 591 44 c 0
 592 41 592 39 592 36 c 0
 592 23 581 11 567 11 c 0
 556 11 546 18 543 28 c 0
 512 120 504 243 494 404 c 0
 492.887211645 419.949966429 491.912011947 435.487166883 490.972329537 450.458494306 c 0
 489.378693534 475.848824197 487.887211645 499.611601362 486 521 c 0
 481.583414215 542.199611766 478.33720223 571.006653229 474.796798097 602.424369979 c 0
 470.321046073 642.142408953 465.375121323 686.032783335 457 724 c 1
 440.970975816 673.958168402 430.749997688 612.453088011 420.421382843 550.300300054 c 0
 404.330846792 453.474957028 387.979084201 355.077674492 349 296 c 0
 344 289 336 285 328 285 c 0
 313 285 279 310 260 378 c 0
 248.090673836 420.032915873 243.665564826 472.00389059 239.246869176 523.899543206 c 0
 231.050606595 620.16107133 222.876410291 716.163440648 167 748 c 1
 164.518682765 707.471818489 162.037365529 670.364156545 158.990222017 624.794662348 c 0
 158.353261616 615.26903181 157.691577019 605.373655292 157 595 c 0
 156.818607364 592.143065986 156.637443223 589.288645418 156.456431591 586.436627769 c 0
 144.662648438 400.613886741 133.516286305 224.991905456 102 29 c 0
 100 17 89 8 77 8 c 0
 63 8 52 19 52 33 c 2
EndSplineSet
EndUndoOperation
EndUndoes
Redoes
EndRedoes
EndUndoRedoHistory
Fore
SplineSet
52 33 m 2
 52 37 l 1
 84 233 95 407 107 595 c 0
 107 596 107 597 107 598 c 0
 109 621 110 644 111 667 c 0
 113 706 116 745 119 785 c 0
 120 798 131 808 144 808 c 0
 145 808 201 804 239 747 c 0
 277 690 283 604 290 523 c 0
 295 456 301 393 323 354 c 1
 346 407 358 481 371 557 c 0
 387 651 402 747 439 807 c 0
 444 815 452 819 460 819 c 0
 469 819 477 814 482 805 c 0
 508 753 517 671 524 605 c 0
 527 575 531 548 535 529 c 0
 537 518 539 485 541 442 c 0
 547 330 558 144 591 44 c 0
 592 41 592 39 592 36 c 0
 592 23 581 11 567 11 c 0
 556 11 546 18 543 28 c 0
 512 120 504 243 494 404 c 0
 493 420 492 435 491 450 c 0
 489 475 488 500 486 521 c 0
 482 542 479 571 475 602 c 0
 471 642 465 686 457 724 c 1
 441 674 430 612 420 550 c 0
 404 453 388 355 349 296 c 0
 344 289 336 285 328 285 c 0
 313 285 279 310 260 378 c 0
 248 420 243 472 239 524 c 0
 231 620 223 716 167 748 c 1
 165 707 162 671 159 625 c 0
 158 615 158 605 157 595 c 0
 157 592 156 589 156 586 c 0
 144 400 134 225 102 29 c 0
 100 17 89 8 77 8 c 0
 63 8 52 19 52 33 c 2
EndSplineSet
Validated: 1
EndChar

StartChar: N
Encoding: 78 78 13
Width: 579
Flags: W
HStem: 799 20G<81 90>
VStem: 59 50<464.68 727> 98 50<-22.873 217.977> 417 48<-4.87305 66.2924 155 288.42> 481 50<691.206 810.856>
LayerCount: 2
UndoRedoHistory
Layer: 1
Undoes
UndoOperation
Index: 0
Type: 12
WasModified: 0
WasOrder2: 0
Layer: 0
CopiedFrom: Writing
EndUndoOperation
UndoOperation
Index: 1
Type: 1
WasModified: 1
WasOrder2: 0
Layer: 2
Width: 579
VWidth: 1024
LBearingChange: 0
UnicodeEnc: 0
InstructionsLength: 0
SplineSet
98 2 m 0
 96.065474534 124.842367089 86.8800708098 232.715179063 77.9097772976 338.061750042 c 0
 68.3322797985 450.539287004 59 560.137002492 59 682 c 0
 59 719 60 756 62 795 c 0
 63 809 75 819 87 819 c 0
 93 819 99 817 104 812 c 0
 215.100711066 703.875200838 317.345370474 424.53340296 413.662292619 161.386727587 c 0
 414.441916272 159.256724179 415.221151548 157.127781853 416 155 c 1
 420 286 430 437 439 542 c 0
 447 626 460 710 481 792 c 0
 484 803 494 811 506 811 c 0
 520 811 531 799 531 786 c 0
 531 783.576566722 529.414282209 777.100743535 526.797929478 766.415968609 c 0
 518.61822376 733.011331122 500.364850083 658.467410877 489 538 c 0
 478 411 464 216 464 74 c 0
 464 46.8070753543 464.722124171 27.5575165862 464.939080752 21.7741366152 c 0
 464.97743362 20.7517698163 465 20.1502211048 465 20 c 0
 465 6 454 -5 440 -5 c 0
 430 -5 421 2 417 11 c 0
 399.584289847 52.1307197224 378.73595226 109.738051131 354.76025521 175.986782951 c 0
 314.032431618 288.52435202 264.280220768 425.997763832 207 550 c 0
 175 619 141 681 109 727 c 1
 109 713 109 698 109 684 c 0
 109 565.999074175 119.72680536 435.070972659 129.929100847 310.544878032 c 0
 139.18018226 197.629011123 148 89.9770165435 148 2 c 0
 148 -12 137 -23 123 -23 c 0
 109 -23 98 -12 98 2 c 0
EndSplineSet
EndUndoOperation
EndUndoes
Redoes
EndRedoes
EndUndoRedoHistory
Fore
SplineSet
98 2 m 0xb8
 96 125 87 233 78 338 c 0
 68 450 59 560 59 682 c 0
 59 719 60 756 62 795 c 0
 63 809 75 819 87 819 c 0
 93 819 99 817 104 812 c 0
 215 704 318 424 414 161 c 0
 415 159 415 157 416 155 c 1
 420 286 430 437 439 542 c 0
 447 626 460 710 481 792 c 0
 484 803 494 811 506 811 c 0
 520 811 531 799 531 786 c 0
 531 784 530 777 527 766 c 0
 519 733 500 658 489 538 c 0
 478 411 464 216 464 74 c 0
 464 47 465 28 465 22 c 0
 465 21 465 20 465 20 c 0
 465 6 454 -5 440 -5 c 0
 430 -5 421 2 417 11 c 0
 400 52 379 110 355 176 c 0
 314 289 264 426 207 550 c 0
 175 619 141 681 109 727 c 1
 109 713 109 698 109 684 c 0xd8
 109 566 120 436 130 311 c 0
 139 198 148 90 148 2 c 0
 148 -12 137 -23 123 -23 c 0
 109 -23 98 -12 98 2 c 0xb8
EndSplineSet
Validated: 1
EndChar

StartChar: O
Encoding: 79 79 14
Width: 580
Flags: W
HStem: -2 50<175.29 325.477> 769 50<280.52 370.094>
VStem: 54 50<124.352 464.857> 470 50<253 608.681>
LayerCount: 2
UndoRedoHistory
Layer: 1
Undoes
UndoOperation
Index: 0
Type: 12
WasModified: 0
WasOrder2: 0
Layer: 0
CopiedFrom: Writing
EndUndoOperation
UndoOperation
Index: 1
Type: 1
WasModified: 1
WasOrder2: 0
Layer: 2
Width: 580
VWidth: 1024
LBearingChange: 0
UnicodeEnc: 0
InstructionsLength: 0
SplineSet
325 819 m 0
 430 819 520 643 520 472 c 0
 520 452 519 433 516 414 c 0
 511 324 502 214 463 139 c 0
 421 60 336 -2 247 -2 c 0
 132 -2 79 104 78 106 c 0
 61 153 54 210 54 272 c 0
 54 413 92 572 142 651 c 0
 201 744 260 819 325 819 c 0
470 472 m 0
 470 625 389 769 326 769 c 0
 286 769 233 701 184 624 c 0
 139 553 104 402 104 271 c 0
 104 217 110 166 124 125 c 1
 159 69 203 48 247 48 c 0
 317 48 387 102 419 163 c 0
 454 231 461 342 465 408 c 0
 465.421323229 418.533080733 466.375186249 425.693409459 467.33805583 432.921347403 c 0
 468.66053278 442.848736868 470 452.903666568 470 472 c 0
EndSplineSet
EndUndoOperation
EndUndoes
Redoes
EndRedoes
EndUndoRedoHistory
Fore
SplineSet
325 819 m 0
 430 819 520 643 520 472 c 0
 520 452 519 433 516 414 c 0
 511 324 502 214 463 139 c 0
 421 60 336 -2 247 -2 c 0
 132 -2 79 104 78 106 c 0
 61 153 54 210 54 272 c 0
 54 413 92 572 142 651 c 0
 201 744 260 819 325 819 c 0
470 472 m 0
 470 625 389 769 326 769 c 0
 286 769 233 701 184 624 c 0
 139 553 104 402 104 271 c 0
 104 217 110 166 124 125 c 1
 159 69 203 48 247 48 c 0
 317 48 387 102 419 163 c 0
 454 231 461 342 465 408 c 0
 465 419 466 426 467 433 c 0
 468 443 470 453 470 472 c 0
EndSplineSet
Validated: 1
EndChar

StartChar: P
Encoding: 80 80 15
Width: 534
Flags: W
HStem: 327 50<202.127 293.856> 769 50<159.977 348.86>
VStem: 123 50<-0.892578 727.014> 438 48<510.255 677.778>
LayerCount: 2
UndoRedoHistory
Layer: 1
Undoes
UndoOperation
Index: 0
Type: 12
WasModified: 0
WasOrder2: 0
Layer: 0
CopiedFrom: Writing
EndUndoOperation
UndoOperation
Index: 1
Type: 1
WasModified: 1
WasOrder2: 0
Layer: 2
Width: 534
VWidth: 1024
LBearingChange: 0
UnicodeEnc: 0
InstructionsLength: 0
SplineSet
257 819 m 0
 405 819 486 703 486 588 c 0
 486 533 467 479 423 442 c 0
 422.370839739 441.355859733 421.735620663 440.705211849 421.094379747 440.048395862 c 0
 378.929168734 396.859035949 310.726699473 327 227 327 c 0
 213 327 202 338 202 352 c 0
 202 366 213 377 226 377 c 0
 288 379 339 427 388 478 c 0
 389 479 389 479 390 480 c 0
 422 506 438 547 438 588 c 0
 438 608 434 628 427 646 c 0
 427 647 427 648 427 649 c 0
 411 712 351 769 257 769 c 0
 193 769 128 739 84 691 c 0
 79 686 73 683 66 683 c 0
 51 683 41 695 41 708 c 0
 41 714 43 720 48 725 c 0
 101 783 178 819 257 819 c 0
118 23 m 0
 118 49.8331232329 118.694460361 81.9441452105 119.56575496 122.231772225 c 0
 121.03236231 190.045953557 123 281.027182493 123 409 c 0
 123 568.419084667 117.509224942 674.499211624 116.253611868 698.757279528 c 0
 116.091512918 701.888982629 116 703.656984744 116 704 c 0
 116 718 127 729 141 729 c 0
 154 729 165 719 166 706 c 0
 171 608 173 529 173 431 c 0
 173 332.859518619 171.111645116 215.835488398 168.252381176 38.6428470601 c 0
 168.16907082 33.4799861296 168.084936197 28.2660441891 168 23 c 0
 168 9 157 -2 143 -2 c 0
 129 -2 118 9 118 23 c 0
EndSplineSet
EndUndoOperation
EndUndoes
Redoes
EndRedoes
EndUndoRedoHistory
Fore
SplineSet
257 819 m 0
 405 819 486 703 486 588 c 0
 486 533 467 479 423 442 c 0
 422 441 422 441 421 440 c 0
 379 397 311 327 227 327 c 0
 213 327 202 338 202 352 c 0
 202 366 213 377 226 377 c 0
 288 379 339 427 388 478 c 0
 389 479 389 479 390 480 c 0
 422 506 438 547 438 588 c 0
 438 608 434 628 427 646 c 0
 427 647 427 648 427 649 c 0
 411 712 351 769 257 769 c 0
 193 769 128 739 84 691 c 0
 79 686 73 683 66 683 c 0
 51 683 41 695 41 708 c 0
 41 714 43 720 48 725 c 0
 101 783 178 819 257 819 c 0
118 23 m 0
 118 50 119 82 120 122 c 0
 121 190 123 281 123 409 c 0
 123 568 117 675 116 699 c 0
 116 702 116 704 116 704 c 0
 116 718 127 729 141 729 c 0
 154 729 165 719 166 706 c 0
 171 608 173 529 173 431 c 0
 173 333 171 216 168 39 c 0
 168 34 168 28 168 23 c 0
 168 9 157 -2 143 -2 c 0
 129 -2 118 9 118 23 c 0
EndSplineSet
Validated: 1
EndChar

StartChar: Q
Encoding: 81 81 16
Width: 622
Flags: W
HStem: -186 49<426.07 467.856> -25 50<129.436 308.947> 799 20G<390.5 398>
VStem: 56 50<48.6839 357.174> 381 87<-166.127 -136.097> 440 47<749.324 803.802> 491 46<670.048 717.033> 516 51<343.025 644.949>
LayerCount: 2
UndoRedoHistory
Layer: 1
Undoes
UndoOperation
Index: 0
Type: 12
WasModified: 0
WasOrder2: 0
Layer: 0
CopiedFrom: Writing
EndUndoOperation
UndoOperation
Index: 1
Type: 1
WasModified: 0
WasOrder2: 0
Layer: 2
Width: 622
VWidth: 1024
LBearingChange: 0
UnicodeEnc: 0
InstructionsLength: 0
SplineSet
342 7 m 5
 342 7 l 4
 325 -2 282 -25 193 -25 c 4
 87 -25 60 41 56 132 c 5
 56 133 l 5
 56 133 56 134 56 144 c 4
 65 376 80 752 386 818 c 4
 387 818 387 818 388 818 c 4
 389 818 390 819 391 819 c 4
 405 819 416 808 416 794 c 4
 416 782 407 772 396 770 c 4
 256 740 207 649 175 574 c 4
 118 441 112 291 106 142 c 4
 106 139 106 136 106 133 c 4
 110 39 139 25 193 25 c 4
 226 25 277 26 328 58 c 5
 312 106 298 127 289 141 c 4
 283 150 280 156 280 163 c 4
 280 177 291 188 305 188 c 4
 313 188 321 183 326 177 c 4
 345 150 359 121 370 91 c 5
 392 113 411 138 427 165 c 4
 481 272 516 390 516 502 c 4
 516 575 503 618 491 654 c 4
 491 655 490 657 490 658 c 4
 476 701 466 728 444 766 c 4
 442 770 440 774 440 779 c 4
 440 793 452 804 465 804 c 4
 474 804 483 799 487 792 c 4
 511 750 523 717 537 674 c 4
 537 673 538 671 538 670 c 4
 558 616 567 559 567 501 c 4
 567 316 472 144 470 141 c 4
 448 103 421 67 386 38 c 4
 386 37 407 -58 414 -82 c 4
 425 -116 431 -133 449 -137 c 4
 460 -140 468 -149 468 -161 c 4
 468 -175 457 -186 443 -186 c 4
 442 -186 404 -183 381 -136 c 4
 381 -136 381 -135 380 -133 c 4
 377 -125 365 -98 354 -49 c 4
 350 -30 346 -11 342 7 c 5
EndSplineSet
EndUndoOperation
EndUndoes
Redoes
EndRedoes
EndUndoRedoHistory
Fore
SplineSet
342 7 m 1xf9
 325 -2 282 -25 193 -25 c 0
 87 -25 60 41 56 132 c 1
 56 133 l 1
 56 133 56 134 56 144 c 0
 65 376 80 752 386 818 c 0
 387 818 387 818 388 818 c 0
 389 818 390 819 391 819 c 0
 405 819 416 808 416 794 c 0
 416 782 407 772 396 770 c 0
 256 740 207 649 175 574 c 0
 118 441 112 291 106 142 c 0
 106 139 106 136 106 133 c 0
 110 39 139 25 193 25 c 0
 226 25 277 26 328 58 c 1
 312 106 298 127 289 141 c 0
 283 150 280 156 280 163 c 0
 280 177 291 188 305 188 c 0
 313 188 321 183 326 177 c 0
 345 150 359 121 370 91 c 1
 392 113 411 138 427 165 c 0
 481 272 516 390 516 502 c 0xf9
 516 575 503 618 491 654 c 0
 491 655 490 657 490 658 c 0
 476 701 466 728 444 766 c 0
 442 770 440 774 440 779 c 0
 440 793 452 804 465 804 c 0
 474 804 483 799 487 792 c 0
 511 750 523 717 537 674 c 0xf6
 537 673 538 671 538 670 c 0
 558 616 567 559 567 501 c 0
 567 316 472 144 470 141 c 0
 448 103 421 67 386 38 c 0
 386 37 407 -58 414 -82 c 0
 425 -116 431 -133 449 -137 c 0
 460 -140 468 -149 468 -161 c 0
 468 -175 457 -186 443 -186 c 0
 442 -186 404 -183 381 -136 c 1
 381 -136 381 -135 380 -133 c 0
 377 -125 365 -98 354 -49 c 0
 350 -30 346 -11 342 7 c 1xf9
EndSplineSet
Validated: 1
EndChar

StartChar: R
Encoding: 82 82 17
Width: 556
Flags: W
HStem: -22 22G<150 164 481.5 490> 769 50<146.193 384.135>
VStem: 132 50<-21.8198 370 405 745.607> 427 51<599.04 730.155>
LayerCount: 2
UndoRedoHistory
Layer: 1
Undoes
UndoOperation
Index: 0
Type: 12
WasModified: 0
WasOrder2: 0
Layer: 0
CopiedFrom: Writing
EndUndoOperation
UndoOperation
Index: 1
Type: 1
WasModified: 1
WasOrder2: 0
Layer: 2
Width: 556
VWidth: 1024
LBearingChange: 0
UnicodeEnc: 0
InstructionsLength: 0
SplineSet
67 710 m 0
 53 710 42 722 42 735 c 0
 42 744 46 752 53 756 c 0
 125 802 195 819 269 819 c 0
 270 819 347 817 367 811 c 0
 427 792 478 742 478 682 c 0
 478 608 423 476 269 392 c 1
 399.639567991 337.151326416 427.84514247 221.637860557 448.826501497 135.710537877 c 0
 448.884388655 135.473466077 448.942220823 135.236619487 449 135 c 0
 460 88 472 42 497 24 c 0
 503 19 508 12 508 4 c 0
 508 -10 497 -21 483 -21 c 0
 480 -21 441 -19 413 77 c 0
 408.291294727 92.8383722809 404.315545003 109.043222336 400.288370906 125.457674181 c 0
 394.907669057 147.389001025 389.435166496 169.694500512 382 192 c 0
 357 269 319 337 195 363 c 0
 190 364 186 366 183 370 c 1
 182 347 182 344 182 335 c 0
 182 145 182 146 182 118 c 0
 182 80 182 40 182 2 c 0
 182 -12 171 -22 157 -22 c 0
 143 -22 132 -11 132 3 c 0
 132 41 132 80 132 118 c 0
 132 146 132 146 132 336 c 0
 132 336.750451159 132.070397118 339.612815852 132.184776554 344.263512787 c 0
 132.680054041 364.401621242 134 418.070959235 134 479 c 0
 134 582.471688267 128.525185776 691.418190758 127.259117511 716.612417218 c 0
 127.093586568 719.906413432 127 721.768746808 127 722 c 0
 127 735 138 747 152 747 c 0
 165 747 176 736 177 723 c 0
 182 630 184 557 184 479 c 0
 184 463 184 447 184 430 c 0
 184 422 184 414 184 405 c 1
 186.599733636 407.888592928 195.040245645 411.861901841 207.321042626 417.642996641 c 0
 237.555052285 431.875434186 291.064713327 457.064713327 338 504 c 0
 375 544 427 612 427 681 c 0
 427 723 385 751 354 762 c 1
 322 767 294 769 266 769 c 0
 176.323849957 769 125.039386644 739.582993285 94.8955502054 722.292348485 c 0
 82.3494715901 715.095859431 73.4655488115 710 67 710 c 0
EndSplineSet
EndUndoOperation
EndUndoes
Redoes
EndRedoes
EndUndoRedoHistory
Fore
SplineSet
67 710 m 0
 53 710 42 722 42 735 c 0
 42 744 46 752 53 756 c 0
 125 802 195 819 269 819 c 0
 270 819 347 817 367 811 c 0
 427 792 478 742 478 682 c 0
 478 608 423 476 269 392 c 1
 400 337 428 222 449 136 c 0
 449 135 l 0
 460 88 472 42 497 24 c 0
 503 19 508 12 508 4 c 0
 508 -10 497 -21 483 -21 c 0
 480 -21 441 -19 413 77 c 0
 408 93 404 109 400 125 c 0
 395 147 389 170 382 192 c 0
 357 269 319 337 195 363 c 0
 190 364 186 366 183 370 c 1
 182 347 182 344 182 335 c 0
 182 145 182 146 182 118 c 0
 182 80 182 40 182 2 c 0
 182 -12 171 -22 157 -22 c 0
 143 -22 132 -11 132 3 c 0
 132 41 132 80 132 118 c 0
 132 146 132 146 132 336 c 0
 132 337 132 339 132 344 c 0
 132 364 134 418 134 479 c 0
 134 582 128 692 127 717 c 0
 127 720 127 722 127 722 c 0
 127 735 138 747 152 747 c 0
 165 747 176 736 177 723 c 0
 182 630 184 557 184 479 c 0
 184 463 184 447 184 430 c 0
 184 422 184 414 184 405 c 1
 187 408 195 412 207 418 c 0
 237 432 291 457 338 504 c 0
 375 544 427 612 427 681 c 0
 427 723 385 751 354 762 c 1
 322 767 294 769 266 769 c 0
 176 769 125 739 95 722 c 0
 82 715 73 710 67 710 c 0
EndSplineSet
Validated: 1
EndChar

StartChar: S
Encoding: 83 83 18
Width: 500
Flags: W
HStem: -72 50<186.08 334.993> 769 50<225.415 385.262>
VStem: 43 49<512.789 665.431> 384 50<25.4933 245.363>
LayerCount: 2
UndoRedoHistory
Layer: 1
Undoes
UndoOperation
Index: 0
Type: 12
WasModified: 0
WasOrder2: 0
Layer: 0
CopiedFrom: Writing
EndUndoOperation
UndoOperation
Index: 1
Type: 1
WasModified: 0
WasOrder2: 0
Layer: 2
Width: 500
VWidth: 1024
LBearingChange: 0
UnicodeEnc: 0
InstructionsLength: 0
SplineSet
93 601 m 2
 93 601 92 590 92 585 c 0
 92 532 127 479 176 461 c 1
 217 439 l 2
 218 438 219 438 220 437 c 0
 278 406 362 362 398 289 c 0
 426 234 434 176 434 129 c 0
 434 70 422 27 421 26 c 0
 393 -39 325 -72 258 -72 c 0
 221 -72 144 -60 67 26 c 0
 63 30 61 36 61 42 c 0
 61 57 73 67 86 67 c 0
 96 67 105 58 117 46 c 0
 133 30 154 9 193 -8 c 0
 194 -8 l 0
 208 -14 226 -22 257 -22 c 0
 305 -22 354 0 374 44 c 1
 381 72 384 101 384 130 c 0
 384 293 290 343 189 397 c 0
 189 397 l 0
 178 403 167 409 156 415 c 0
 84 443 43 517 43 592 c 0
 43 694 123 759 191 786 c 1
 228 807 271 819 313 819 c 0
 374 819 433 788 433 762 c 0
 433 747 421 737 408 737 c 0
 401 737 395 741 387 746 c 0
 373 755 353 769 313 769 c 0
 279 769 244 758 214 741 c 0
 213 740 212 740 211 740 c 0
 148 716 93 663 93 601 c 2
EndSplineSet
EndUndoOperation
EndUndoes
Redoes
EndRedoes
EndUndoRedoHistory
Fore
SplineSet
93 601 m 2
 93 601 92 590 92 585 c 0
 92 532 127 479 176 461 c 1
 217 439 l 2
 218 438 219 438 220 437 c 0
 278 406 362 362 398 289 c 0
 426 234 434 176 434 129 c 0
 434 70 422 27 421 26 c 0
 393 -39 325 -72 258 -72 c 0
 221 -72 144 -60 67 26 c 0
 63 30 61 36 61 42 c 0
 61 57 73 67 86 67 c 0
 96 67 105 58 117 46 c 0
 133 30 154 9 193 -8 c 1
 194 -8 l 1
 208 -14 226 -22 257 -22 c 0
 305 -22 354 0 374 44 c 1
 381 72 384 101 384 130 c 0
 384 293 290 343 189 397 c 0
 178 403 167 409 156 415 c 0
 84 443 43 517 43 592 c 0
 43 694 123 759 191 786 c 1
 228 807 271 819 313 819 c 0
 374 819 433 788 433 762 c 0
 433 747 421 737 408 737 c 0
 401 737 395 741 387 746 c 0
 373 755 353 769 313 769 c 0
 279 769 244 758 214 741 c 0
 213 740 212 740 211 740 c 0
 148 716 93 663 93 601 c 2
EndSplineSet
Validated: 1
EndChar

StartChar: T
Encoding: 84 84 19
Width: 623
Flags: W
HStem: 727 49<68.0312 466.516> 799 20G<550 557.5>
VStem: 252 50<-17.8207 223.086> 270 50<111.898 726.225>
LayerCount: 2
UndoRedoHistory
Layer: 1
Undoes
UndoOperation
Index: 0
Type: 12
WasModified: 0
WasOrder2: 0
Layer: 0
CopiedFrom: Writing
EndUndoOperation
UndoOperation
Index: 1
Type: 1
WasModified: 1
WasOrder2: 0
Layer: 2
Width: 623
VWidth: 1024
LBearingChange: 0
UnicodeEnc: 0
InstructionsLength: 0
SplineSet
319 519 m 0
 319 516.656854249 319.343145751 452.547473408 319.627416998 399.437523368 c 0
 319.828427125 361.883117546 320 329.828427125 320 329 c 0
 320 221 318 115 302 4 c 0
 300 -8 290 -18 277 -18 c 0
 263 -18 252 -7 252 7 c 0
 252 11.4729610707 252.900332133 17.9966786671 254.298281342 28.1260803756 c 0
 259.150997794 63.2883838639 270 141.899180902 270 329 c 0
 270 329.774851773 269.849901182 357.717589551 269.666007882 391.951585185 c 0
 269.375247044 446.080284989 269 515.937129434 269 519 c 0
 269 578 270 639 273 703 c 0
 274 716 285 727 298 727 c 0
 312 727 323 716 323 702 c 0
 323 701.769615664 322.946923058 700.729807957 322.852997269 698.889747952 c 0
 322.131539598 684.755978866 319 623.407324168 319 519 c 0
42 738 m 0
 42 751 52 761 64 763 c 0
 125.657232942 771.594644592 188.7108348 774.045265953 250.760546663 776.456870443 c 0
 354.761141779 780.498924702 455.941547751 784.431370382 543 817 c 0
 543.626136458 817.208712153 544.208712153 817.417424305 544.765910406 817.617044797 c 0
 546.878409373 818.373863542 548.626136458 819 551 819 c 0
 564 819 576 808 576 794 c 0
 576 783 569 775 560 771 c 0
 464.746133651 735.438556563 359.410823909 731.331216515 252.956837748 727.180255914 c 0
 191.773555877 724.79453602 130.220747017 722.39440716 70 714 c 0
 69.5 714 69 713.75 68.5 713.5 c 0
 68 713.25 67.5 713 67 713 c 0
 53 713 42 724 42 738 c 0
EndSplineSet
EndUndoOperation
EndUndoes
Redoes
EndRedoes
EndUndoRedoHistory
Fore
SplineSet
319 519 m 0xd0
 319 517 320 452 320 399 c 0
 320 361 320 330 320 329 c 0xd0
 320 221 318 115 302 4 c 0
 300 -8 290 -18 277 -18 c 0
 263 -18 252 -7 252 7 c 0xe0
 252 11 253 18 254 28 c 0
 259 63 270 142 270 329 c 0
 270 330 270 358 270 392 c 0
 270 446 269 516 269 519 c 0
 269 578 270 639 273 703 c 0
 274 716 285 727 298 727 c 0
 312 727 323 716 323 702 c 0
 323 702 323 701 323 699 c 0
 322 685 319 623 319 519 c 0xd0
42 738 m 0
 42 751 52 761 64 763 c 0
 126 772 189 774 251 776 c 0
 355 780 456 784 543 817 c 0
 544 817 544 818 545 818 c 0
 547 819 549 819 551 819 c 0
 564 819 576 808 576 794 c 0
 576 783 569 775 560 771 c 0
 465 735 359 731 253 727 c 0
 192 725 130 722 70 714 c 0
 68 714 l 0
 67 713 l 0
 53 713 42 724 42 738 c 0
EndSplineSet
Validated: 1
EndChar

StartChar: U
Encoding: 85 85 20
Width: 593
Flags: W
HStem: -55 49<204.24 377.81> 799 20G<84 97.5>
VStem: 66 50<208.63 818.802> 462 50<120.016 648.701> 482 50<571.959 811.838>
LayerCount: 2
UndoRedoHistory
Layer: 1
Undoes
UndoOperation
Index: 0
Type: 12
WasModified: 0
WasOrder2: 0
Layer: 0
CopiedFrom: Writing
EndUndoOperation
UndoOperation
Index: 1
Type: 1
WasModified: 1
WasOrder2: 0
Layer: 2
Width: 593
VWidth: 1024
LBearingChange: 0
UnicodeEnc: 0
InstructionsLength: 0
SplineSet
118 696 m 0
 118 650.374308433 116.994467465 604.748616866 115.991712665 559.248964083 c 0
 114.994482727 514 114 468.875689659 114 424 c 0
 114 308 121 187 153 71 c 1
 176 19 233 -6 288 -6 c 0
 365 -6 448 40 453 118 c 0
 453 118.5 453.25 119 453.5 119.5 c 0
 453.75 120 454 120.5 454 121 c 0
 461 168 462 215 462 263 c 0
 462 279 462 294 462 311 c 0
 462 352 463 392 467 433 c 0
 474 713 474 713 482 790 c 0
 483 803 494 812 507 812 c 0
 521 812 532 801 532 787 c 0
 532 786.67726281 531.884267451 785.88002217 531.672722993 784.422767132 c 0
 529.917858262 772.334123998 521.569683747 714.826499174 518 506 c 0
 518 485.645361097 516.774226849 451.807217538 516.241924384 437.11271452 c 0
 516.094290242 433.037192666 516 430.434258546 516 430 c 0
 515 425 512 396 512 301 c 0
 512 298 512 284 512 284 c 2
 512 224 509 170 503 114 c 0
 493 16 398 -55 290 -55 c 0
 172 -55 114 23 105 56 c 0
 74 167 64 283 64 424 c 0
 64 469.75278558 65.0111423202 515.75835674 66.0166670096 561.508333505 c 0
 67.011080588 606.752770147 68 651.747229853 68 696 c 0
 68 749.139694889 66.4312071262 784.238271729 66.0724605338 792.264503265 c 0
 66.0261465479 793.300685301 66 793.885661581 66 794 c 0
 66 808 77 819 91 819 c 0
 104 819 115 808 116 795 c 0
 117 762 118 729 118 696 c 0
EndSplineSet
EndUndoOperation
EndUndoes
Redoes
EndRedoes
EndUndoRedoHistory
Fore
SplineSet
118 696 m 0xf0
 118 650 117 604 116 559 c 0
 115 514 114 469 114 424 c 0
 114 308 121 187 153 71 c 1
 176 19 233 -6 288 -6 c 0
 365 -6 448 40 453 118 c 0
 454 120 l 0
 454 121 l 0
 461 168 462 215 462 263 c 0
 462 279 462 294 462 311 c 0xf0
 462 352 463 392 467 433 c 0
 474 713 474 713 482 790 c 0
 483 803 494 812 507 812 c 0
 521 812 532 801 532 787 c 0
 532 787 532 785 532 784 c 0xe8
 530 772 522 715 518 506 c 0
 518 486 517 452 516 437 c 0
 516 433 516 430 516 430 c 0
 515 425 512 396 512 301 c 0
 512 298 512 284 512 284 c 2
 512 224 509 170 503 114 c 0
 493 16 398 -55 290 -55 c 0
 172 -55 114 23 105 56 c 0
 74 167 64 283 64 424 c 0
 64 470 65 516 66 562 c 0
 67 607 68 652 68 696 c 0
 68 749 66 784 66 792 c 0
 66 793 66 794 66 794 c 0
 66 808 77 819 91 819 c 0
 104 819 115 808 116 795 c 0
 117 762 118 729 118 696 c 0xf0
EndSplineSet
Validated: 1
EndChar

StartChar: V
Encoding: 86 86 21
Width: 606
Flags: W
HStem: 799 20G<527.5 540>
VStem: 510 48<739.188 818.862>
LayerCount: 2
UndoRedoHistory
Layer: 1
Undoes
UndoOperation
Index: 0
Type: 12
WasModified: 0
WasOrder2: 0
Layer: 0
CopiedFrom: Writing
EndUndoOperation
UndoOperation
Index: 1
Type: 1
WasModified: 1
WasOrder2: 0
Layer: 2
Width: 606
VWidth: 1024
LBearingChange: 0
UnicodeEnc: 0
InstructionsLength: 0
SplineSet
71 798 m 0
 82 798 92 791 95 781 c 0
 146.385258206 624.867869297 175.311112011 461.900267689 204.936403441 294.99205043 c 0
 205.290822304 292.995262626 205.645341273 290.99791083 206 289 c 0
 208.991854368 271.969444366 211.9307431 254.938888732 214.865424802 237.932712401 c 0
 224.682320358 181.044820005 234.452139656 124.429729653 246 69 c 1
 293.753860002 213.179923468 338.977655864 334.589269674 383.22036616 453.364760076 c 0
 387.154304522 463.925945298 391.080486156 474.466306544 395 485 c 0
 401.726383972 503.232040767 408.452767945 521.40141638 415.1846981 539.585773397 c 0
 446.484100522 624.132032041 477.903394077 709.002141813 510 802 c 0
 513 812 522 819 533 819 c 0
 547 819 558 807 558 794 c 0
 558 783.007468596 525.467298975 695.509464453 479.522149384 571.938141977 c 0
 416.795888769 403.233348392 329.070346699 167.291984727 265 -33 c 0
 261 -45 252 -50 242 -50 c 0
 231 -50 220 -44 217 -31 c 0
 193.16139038 68.6532041476 174.820779984 173.346240916 156.308249671 279.02064187 c 0
 127.449546211 443.753725287 98.1730621631 610.87161039 47 765 c 0
 46 768 46 770 46 773 c 0
 46 786 57 798 71 798 c 0
EndSplineSet
EndUndoOperation
EndUndoes
Redoes
EndRedoes
EndUndoRedoHistory
Fore
SplineSet
71 798 m 0
 82 798 92 791 95 781 c 0
 146 625 175 462 205 295 c 0
 205 293 206 291 206 289 c 0
 209 272 212 255 215 238 c 0
 225 181 234 124 246 69 c 1
 294 213 339 334 383 453 c 0
 387 464 391 474 395 485 c 0
 402 503 408 522 415 540 c 0
 446 625 478 709 510 802 c 0
 513 812 522 819 533 819 c 0
 547 819 558 807 558 794 c 0
 558 783 526 696 480 572 c 0
 417 403 329 167 265 -33 c 0
 261 -45 252 -50 242 -50 c 0
 231 -50 220 -44 217 -31 c 0
 193 69 175 173 156 279 c 0
 127 444 98 611 47 765 c 0
 46 768 46 770 46 773 c 0
 46 786 57 798 71 798 c 0
EndSplineSet
Validated: 1
EndChar

StartChar: W
Encoding: 87 87 22
Width: 750
Flags: W
HStem: 799 20G<66 79>
LayerCount: 2
UndoRedoHistory
Layer: 1
Undoes
UndoOperation
Index: 0
Type: 12
WasModified: 0
WasOrder2: 0
Layer: 0
CopiedFrom: Writing
EndUndoOperation
UndoOperation
Index: 1
Type: 1
WasModified: 1
WasOrder2: 0
Layer: 2
Width: 750
VWidth: 1024
LBearingChange: 0
UnicodeEnc: 0
InstructionsLength: 0
SplineSet
73 819 m 0
 85 819 96 810 98 798 c 0
 121.245994103 655.543779726 138.452280047 523.745867969 155.759991447 391.17105041 c 0
 167.489573165 301.323980489 179.265738449 211.120086511 193 117 c 1
 208.352028308 166.545182266 221.63451057 215.116460511 234.673896476 262.798785883 c 0
 259.00631372 351.777380768 282.492215916 437.660445986 317 521 c 0
 321 531 331 536 340 536 c 0
 351 536 362 529 364 516 c 0
 374.449847705 454.607144733 381.297634604 399.660082486 388.175385744 344.472585334 c 0
 397.093656902 272.911830356 406.062309631 200.946810559 423 114 c 1
 508 425 555 596 657 771 c 0
 661 778 669 783 678 783 c 0
 693 783 703 771 703 758 c 0
 703 754 702 750 700 746 c 0
 603 580 550 390 486 153 c 0
 478.339084085 124.124240012 469.983616304 94.5539281577 461.547547054 64.6983647027 c 0
 455.668239205 43.8912751265 449.749782861 22.9456375633 444 2 c 0
 441 -10 430 -16 420 -16 c 0
 409 -16 399 -10 396 3 c 0
 362 152 350 243 339 336 c 0
 336 360 333 385 330 411 c 1
 313.184559006 358.952206448 298.292649004 304.980881903 283.20644118 250.305382351 c 0
 260.611762201 168.417649215 237.581250222 84.950368234 207 4 c 0
 203 -7 194 -12 184 -12 c 0
 173 -12 161 -5 159 9 c 0
 140 131 124 252 108 375 c 0
 70.1284165838 659.439764807 54.3323117712 754.939403918 49.6250147754 783.398645587 c 0
 48.4903865375 790.258348567 48 793.223113482 48 794 c 0
 48 808 59 819 73 819 c 0
EndSplineSet
EndUndoOperation
EndUndoes
Redoes
EndRedoes
EndUndoRedoHistory
Fore
SplineSet
73 819 m 0
 85 819 96 810 98 798 c 0
 121 656 139 524 156 391 c 0
 168 301 179 211 193 117 c 1
 208 167 222 215 235 263 c 0
 259 352 282 438 317 521 c 0
 321 531 331 536 340 536 c 0
 351 536 362 529 364 516 c 0
 374 455 381 399 388 344 c 0
 397 272 406 201 423 114 c 1
 508 425 555 596 657 771 c 0
 661 778 669 783 678 783 c 0
 693 783 703 771 703 758 c 0
 703 754 702 750 700 746 c 0
 603 580 550 390 486 153 c 0
 478 124 470 95 462 65 c 0
 456 44 450 23 444 2 c 0
 441 -10 430 -16 420 -16 c 0
 409 -16 399 -10 396 3 c 0
 362 152 350 243 339 336 c 0
 336 360 333 385 330 411 c 1
 313 359 298 305 283 250 c 0
 260 168 238 85 207 4 c 0
 203 -7 194 -12 184 -12 c 0
 173 -12 161 -5 159 9 c 0
 140 131 124 252 108 375 c 0
 70 659 55 755 50 783 c 0
 49 790 48 793 48 794 c 0
 48 808 59 819 73 819 c 0
EndSplineSet
Validated: 1
EndChar

StartChar: X
Encoding: 88 88 23
Width: 604
Flags: W
HStem: 762 47<55.1976 106.863> 799 20G<528.5 540>
VStem: 54 52<19 64.625> 428 49<-40.8559 75.6373>
LayerCount: 2
UndoRedoHistory
Layer: 1
Undoes
UndoOperation
Index: 0
Type: 12
WasModified: 0
WasOrder2: 0
Layer: 0
CopiedFrom: Writing
EndUndoOperation
UndoOperation
Index: 1
Type: 1
WasModified: 1
WasOrder2: 0
Layer: 2
Width: 604
VWidth: 1024
LBearingChange: 0
UnicodeEnc: 0
InstructionsLength: 0
SplineSet
79 -5 m 0
 65 -5 54 6 54 20 c 0
 54 26 54 26 62 41 c 0
 79 77 96 113 113 149 c 0
 176 285 221 375 249 418 c 0
 267 446 285 475 302 505 c 1
 253 613 174 709 69 762 c 0
 61 766 55 774 55 784 c 0
 55 797 66 809 80 809 c 0
 84 809 89 809 92 807 c 0
 199 753 278 661 331 557 c 1
 382 647 436 738 516 812 c 0
 518 814 524 819 533 819 c 0
 547 819 558 808 558 794 c 0
 558 787 555 781 550 776 c 0
 473 704 420 611 366 516 c 0
 363 511 360 506 357 501 c 1
 365 481 373 461 379 441 c 0
 408.410581671 353.35646662 424.32743924 262.944989835 439.979181866 174.039427987 c 0
 450.936472003 111.79945514 461.763830437 50.2975247873 477 -9 c 0
 477.68337521 -10.3667504193 477.432747065 -12.2005025157 477.205527673 -13.8629815513 c 0
 477.100251258 -14.6332495807 477 -15.3667504193 477 -16 c 0
 477 -30 466 -41 452 -41 c 0
 440 -41 431 -33 428 -22 c 0
 409.302903731 50.6143041139 399.113737911 111.317505599 389.047227783 171.289970799 c 0
 375.962552867 249.243521837 363.085109424 325.962466037 332 426 c 0
 331 429.5 329.75 432.75 328.5 436 c 0
 327.25 439.25 326 442.5 325 446 c 1
 321.99551574 441.083571211 318.99103148 436.092539731 315.966170619 431.067658761 c 0
 307.916428789 417.695475248 299.722380807 404.083571211 291 391 c 0
 243.16342714 311.591289052 203.56487001 226.690567617 163.447029951 140.676485024 c 0
 161.632685428 136.786465536 159.817278797 132.894168852 158 129 c 0
 157.477525256 128.477525256 145.216916599 102.29494382 132.628180569 75.4116449937 c 0
 121.122477264 50.8411671166 109.34267679 25.6853535799 106 19 c 2
 104 14 l 1
 101 9 l 2
 97 1 89 -5 79 -5 c 0
EndSplineSet
EndUndoOperation
EndUndoes
Redoes
EndRedoes
EndUndoRedoHistory
Fore
SplineSet
79 -5 m 0x70
 65 -5 54 6 54 20 c 0
 54 26 54 26 62 41 c 0
 79 77 96 113 113 149 c 0
 176 285 221 375 249 418 c 0
 267 446 285 475 302 505 c 1
 253 613 174 709 69 762 c 0
 61 766 55 774 55 784 c 0
 55 797 66 809 80 809 c 0xb0
 84 809 89 809 92 807 c 0
 199 753 278 661 331 557 c 1
 382 647 436 738 516 812 c 0
 518 814 524 819 533 819 c 0
 547 819 558 808 558 794 c 0
 558 787 555 781 550 776 c 0
 473 704 420 611 366 516 c 0
 363 511 360 506 357 501 c 1
 365 481 373 461 379 441 c 0
 408 353 424 263 440 174 c 0
 451 112 462 50 477 -9 c 0
 478 -10 477 -12 477 -14 c 0
 477 -15 477 -15 477 -16 c 0
 477 -30 466 -41 452 -41 c 0
 440 -41 431 -33 428 -22 c 0
 409 51 399 111 389 171 c 0
 376 249 363 326 332 426 c 0
 331 430 329 433 328 436 c 0
 327 439 326 442 325 446 c 1
 322 441 319 436 316 431 c 0
 308 418 300 404 291 391 c 0
 243 312 203 227 163 141 c 0
 161 137 160 133 158 129 c 0
 157 128 146 102 133 75 c 0
 121 50 109 26 106 19 c 2
 104 14 l 1
 101 9 l 2
 97 1 89 -5 79 -5 c 0x70
EndSplineSet
Validated: 1
EndChar

StartChar: Y
Encoding: 89 89 24
Width: 466
Flags: W
HStem: 799 20G<65 78>
VStem: 195 55<8.10742 264.062>
LayerCount: 2
UndoRedoHistory
Layer: 1
Undoes
UndoOperation
Index: 0
Type: 12
WasModified: 0
WasOrder2: 0
Layer: 0
CopiedFrom: Writing
EndUndoOperation
UndoOperation
Index: 1
Type: 1
WasModified: 1
WasOrder2: 0
Layer: 2
Width: 466
VWidth: 1024
LBearingChange: 0
UnicodeEnc: 0
InstructionsLength: 0
SplineSet
245 96 m 0
 245 66.9773443765 248.643228977 41.5979177298 249.709911639 34.1672032299 c 0
 249.892846207 32.8928462066 250 32.1463924817 250 32 c 0
 250 18 239 7 225 7 c 0
 212 7 202 16 200 28 c 0
 197 49 195 71 195 96 c 0
 195 140 195 140 221 284 c 0
 252 452 284 625 372 780 c 0
 376 788 385 793 394 793 c 0
 409 793 419 781 419 768 c 0
 419 764 417 759 415 755 c 0
 332 609 301 441 270 271 c 0
 263 234 256 197 249 160 c 0
 246 139 245 117 245 96 c 0
72 819 m 0
 84 819 93 812 96 801 c 0
 101.935558178 779.295346961 107.439461912 759.152498183 112.565247831 740.393461758 c 0
 165.298831871 547.402330339 178.012074299 500.875186682 209 407 c 0
 210.312655988 404.70285202 212.702228067 402.944162086 215.320544022 401.017120019 c 0
 220.680909393 397.071969877 227 392.421212049 227 381 c 0
 227 368 218 355 202 355 c 0
 183 355 166 380 163 389 c 0
 129 494 116 541 48 787 c 0
 47 789 47 792 47 794 c 0
 47 807 58 819 72 819 c 0
EndSplineSet
EndUndoOperation
EndUndoes
Redoes
EndRedoes
EndUndoRedoHistory
Fore
SplineSet
245 96 m 0
 245 67 249 41 250 34 c 0
 250 33 250 32 250 32 c 0
 250 18 239 7 225 7 c 0
 212 7 202 16 200 28 c 0
 197 49 195 71 195 96 c 0
 195 140 195 140 221 284 c 0
 252 452 284 625 372 780 c 0
 376 788 385 793 394 793 c 0
 409 793 419 781 419 768 c 0
 419 764 417 759 415 755 c 0
 332 609 301 441 270 271 c 0
 263 234 256 197 249 160 c 0
 246 139 245 117 245 96 c 0
72 819 m 0
 84 819 93 812 96 801 c 0
 102 779 108 759 113 740 c 0
 166 547 178 501 209 407 c 0
 210 405 212 403 215 401 c 0
 220 397 227 392 227 381 c 0
 227 368 218 355 202 355 c 0
 183 355 166 380 163 389 c 0
 129 494 116 541 48 787 c 0
 47 789 47 792 47 794 c 0
 47 807 58 819 72 819 c 0
EndSplineSet
Validated: 1
EndChar

StartChar: Z
Encoding: 90 90 25
Width: 622
Flags: W
HStem: -8 50<103 566.705> 767 49<167.125 494>
LayerCount: 2
UndoRedoHistory
Layer: 1
Undoes
UndoOperation
Index: 0
Type: 12
WasModified: 0
WasOrder2: 0
Layer: 0
CopiedFrom: Writing
EndUndoOperation
UndoOperation
Index: 1
Type: 1
WasModified: 1
WasOrder2: 0
Layer: 2
Width: 622
VWidth: 1024
LBearingChange: 0
UnicodeEnc: 0
InstructionsLength: 0
SplineSet
295 817 m 0
 296.171572875 817 349.158154077 816.656854249 393.053675192 816.372583002 c 0
 424.092495837 816.171572875 450.585786438 816 451 816 c 0
 506.950854874 816 531.352219588 818.366211762 536.81281518 818.895728273 c 0
 537.500785558 818.962441083 537.888108808 819 538 819 c 0
 552 819 563 807 563 794 c 0
 563 773.451275432 484.561182804 657.419785072 392.331997768 520.988740126 c 0
 269.121977944 338.728951689 121.300850288 120.062909011 103 44 c 1
 136 46 167 46 201 46 c 0
 207.116604831 46 306.996289851 44.1524516219 370.994645691 42.9686267178 c 0
 401.163759958 42.4105663062 423.359245518 42 424 42 c 0
 490.293533291 42 532.510189904 46.0128127796 541.303196898 46.8486129984 c 0
 542.325363198 46.9457728003 542.895858558 47 543 47 c 0
 557 47 568 36 568 22 c 0
 568 9 558 -2 545 -3 c 0
 505 -7 465 -8 424 -8 c 0
 423.225148227 -8 390.6293471 -7.39960472919 350.694659157 -6.66403152792 c 0
 287.552373383 -5.50098817703 206.062870566 -4 203 -4 c 0
 141.414074214 -4 100.540915205 -6.38993462819 91.7572446476 -6.90353325717 c 0
 90.6998149742 -6.96536326626 90.1074503509 -7 90 -7 c 0
 75 -7 51 2 51 34 c 0
 51 108.329173979 217.197154083 353.280870049 352.713805385 553.0137341 c 0
 410.455928116 638.11766368 462.627955356 715.012040305 494 767 c 1
 490.686291501 767 486.514718626 766.828427125 481.627416998 766.627416998 c 0
 474.715728753 766.343145751 466.372583002 766 457 766 c 0
 405.351983425 766 326.462453972 766.716881918 302.273156536 766.936693977 c 0
 297.893164357 766.976495675 295.306622407 767 295 767 c 0
 240.923753837 767 217.496627686 765.428250256 212.178475077 765.071449983 c 0
 211.49755541 765.025766389 211.113504161 765 211 765 c 0
 176 765 158 738 124 687 c 0
 119 679 112 676 104 676 c 0
 91 676 78 686 78 701 c 0
 78 708 79 711 88 724 c 0
 88.2727804553 724.409170683 88.5464414927 724.819772312 88.8210062086 725.231729822 c 0
 114.716507843 764.085398039 148.65047647 815 210 815 c 0
 233 817 262 817 295 817 c 0
EndSplineSet
EndUndoOperation
EndUndoes
Redoes
EndRedoes
EndUndoRedoHistory
Fore
SplineSet
295 817 m 0
 296 817 349 816 393 816 c 0
 424 816 451 816 451 816 c 0
 507 816 532 818 537 819 c 0
 538 819 538 819 538 819 c 0
 552 819 563 807 563 794 c 0
 563 773 484 657 392 521 c 0
 269 339 121 120 103 44 c 1
 136 46 167 46 201 46 c 0
 207 46 307 44 371 43 c 0
 401 42 423 42 424 42 c 0
 490 42 532 46 541 47 c 0
 542 47 543 47 543 47 c 0
 557 47 568 36 568 22 c 0
 568 9 558 -2 545 -3 c 0
 505 -7 465 -8 424 -8 c 0
 423 -8 391 -8 351 -7 c 0
 288 -6 206 -4 203 -4 c 0
 141 -4 101 -6 92 -7 c 0
 91 -7 90 -7 90 -7 c 0
 75 -7 51 2 51 34 c 0
 51 108 217 353 353 553 c 0
 411 638 463 715 494 767 c 1
 491 767 487 767 482 767 c 0
 475 767 466 766 457 766 c 0
 405 766 326 767 302 767 c 0
 298 767 295 767 295 767 c 0
 241 767 217 765 212 765 c 0
 211 765 211 765 211 765 c 0
 176 765 158 738 124 687 c 0
 119 679 112 676 104 676 c 0
 91 676 78 686 78 701 c 0
 78 708 79 711 88 724 c 0
 89 725 l 0
 115 764 149 815 210 815 c 0
 233 817 262 817 295 817 c 0
EndSplineSet
Validated: 1
EndChar

StartChar: a
Encoding: 97 97 26
Width: 488
Flags: W
HStem: -14 66<389.191 430.265> 1 50<133.095 272.298> 413 50<172.855 297.4> 454 20G<320 333.5>
VStem: 53 50<82.34 303.11> 302 56<223.464 472.505> 311 47<44.4223 317.429>
LayerCount: 2
UndoRedoHistory
Layer: 1
Undoes
UndoOperation
Index: 0
Type: 12
WasModified: 0
WasOrder2: 0
Layer: 0
CopiedFrom: Writing
EndUndoOperation
UndoOperation
Index: 1
Type: 1
WasModified: 1
WasOrder2: 0
Layer: 2
Width: 488
VWidth: 1024
LBearingChange: 0
UnicodeEnc: 0
InstructionsLength: 0
SplineSet
389 -14 m 0
 346 -14 313 45 311 100 c 0
 302 321 302 321 302 449 c 0
 302 463 313 474 327 474 c 0
 340 474 350 465 351 452 c 0
 357 390 358 331 358 278 c 0
 358 246 358 215 358 188 c 0
 358 108 361 52 389 36 c 1
 393 47 402 52 412 52 c 0
 425 52 438 44 438 28 c 0
 438 10 416 -14 389 -14 c 0
201 1 m 0
 139 1 53 25 53 162 c 0
 53 205 61 248 68 282 c 0
 97 427 166 463 230 463 c 0
 248 463 264 460 280 456 c 0
 291 453 299 444 299 432 c 0
 299 418 288 407 274 407 c 0
 273 407 271.75 407.25 270.5 407.5 c 0
 269.25 407.75 268 408 267 408 c 0
 254 411 242 413 230 413 c 0
 180 413 138 379 117 272 c 0
 108 228 103 191 103 160 c 0
 103 130 104 51 201 51 c 0
 236.729136739 51 257.688028049 63.6602103684 272.375152723 72.5319624724 c 0
 280.29679867 77.317029711 286.393930688 81 292 81 c 0
 307 81 317 69 317 56 c 0
 317 30 258 1 201 1 c 0
EndSplineSet
EndUndoOperation
EndUndoes
Redoes
EndRedoes
EndUndoRedoHistory
Fore
SplineSet
389 -14 m 0x9a
 346 -14 313 45 311 100 c 0x9a
 302 321 302 321 302 449 c 0
 302 463 313 474 327 474 c 0
 340 474 350 465 351 452 c 0
 357 390 358 331 358 278 c 0x9c
 358 246 358 215 358 188 c 0
 358 108 361 52 389 36 c 1
 393 47 402 52 412 52 c 0
 425 52 438 44 438 28 c 0
 438 10 416 -14 389 -14 c 0x9a
201 1 m 0x68
 139 1 53 25 53 162 c 0
 53 205 61 248 68 282 c 0
 97 427 166 463 230 463 c 0
 248 463 264 460 280 456 c 0
 291 453 299 444 299 432 c 0
 299 418 288 407 274 407 c 0
 273 407 271 408 270 408 c 0
 269 408 268 408 267 408 c 0
 254 411 242 413 230 413 c 0
 180 413 138 379 117 272 c 0
 108 228 103 191 103 160 c 0
 103 130 104 51 201 51 c 0
 237 51 257 64 272 73 c 0
 280 78 286 81 292 81 c 0
 307 81 317 69 317 56 c 0
 317 30 258 1 201 1 c 0x68
EndSplineSet
Validated: 1
EndChar

StartChar: b
Encoding: 98 98 27
Width: 542
Flags: W
HStem: -42 50<126.934 294.23> 391 50<208.739 360.906> 799 20G<105 118.5>
VStem: 61 50<-46.873 201.965> 87 50<569.759 818.802> 433 50<142.807 316.063>
LayerCount: 2
UndoRedoHistory
Layer: 1
Undoes
UndoOperation
Index: 0
Type: 12
WasModified: 0
WasOrder2: 0
Layer: 0
CopiedFrom: Writing
EndUndoOperation
UndoOperation
Index: 1
Type: 1
WasModified: 1
WasOrder2: 0
Layer: 2
Width: 542
VWidth: 1024
LBearingChange: 0
UnicodeEnc: 0
InstructionsLength: 0
SplineSet
124 348 m 0
 124 369 189 441 285 441 c 0
 390 441 483 356 483 231 c 0
 483 81 351 -42 198 -42 c 0
 181 -42 163 -41 146 -38 c 0
 134 -36 126 -25 126 -13 c 0
 126 1 137 12 151 12 c 0
 152.524227203 12 154.977761831 11.6282770296 158.388933399 11.1114671941 c 0
 166.167601384 9.93295944624 178.925981454 8 197 8 c 0
 330 8 433 114 433 231 c 0
 433 323 367 391 284 391 c 0
 236 391 194 366 169 333 c 0
 164 327 157 323 149 323 c 0
 134 323 124 335 124 348 c 0
137 793 m 2
 111 -23 l 2
 111 -36 100 -47 86 -47 c 0
 72 -47 61 -36 61 -22 c 2
 61 -22 61 -22 87 795 c 0
 87 808 98 819 112 819 c 0
 125 819 137 808 137 793 c 2
EndSplineSet
EndUndoOperation
EndUndoes
Redoes
EndRedoes
EndUndoRedoHistory
Fore
SplineSet
124 348 m 0xe4
 124 369 189 441 285 441 c 0
 390 441 483 356 483 231 c 0
 483 81 351 -42 198 -42 c 0
 181 -42 163 -41 146 -38 c 0
 134 -36 126 -25 126 -13 c 0
 126 1 137 12 151 12 c 0
 153 12 155 12 158 11 c 0
 166 10 179 8 197 8 c 0
 330 8 433 114 433 231 c 0
 433 323 367 391 284 391 c 0
 236 391 194 366 169 333 c 0
 164 327 157 323 149 323 c 0
 134 323 124 335 124 348 c 0xe4
137 793 m 2xec
 111 -23 l 2
 111 -36 100 -47 86 -47 c 0
 72 -47 61 -36 61 -22 c 2xf4
 61 -22 61 -22 87 795 c 0
 87 808 98 819 112 819 c 0
 125 819 137 808 137 793 c 2xec
EndSplineSet
Validated: 1
EndChar

StartChar: c
Encoding: 99 99 28
Width: 440
Flags: W
HStem: 0 50<179.85 312.057> 461 50<161.692 276.996>
VStem: 54 50<144.236 390.881>
LayerCount: 2
UndoRedoHistory
Layer: 1
Undoes
UndoOperation
Index: 0
Type: 12
WasModified: 0
WasOrder2: 0
Layer: 0
CopiedFrom: Writing
EndUndoOperation
UndoOperation
Index: 1
Type: 1
WasModified: 1
WasOrder2: 0
Layer: 2
Width: 440
VWidth: 1024
LBearingChange: 0
UnicodeEnc: 0
InstructionsLength: 0
SplineSet
104 277 m 0
 104 120 172 50 244 50 c 0
 299 50 332 87 343 101 c 0
 348 107 355 111 363 111 c 0
 378 111 388 99 388 86 c 0
 388 65 327 0 244 0 c 0
 153 0 54 78 54 277 c 0
 54 447 146 511 215 511 c 0
 244 511 270 500 307 479 c 0
 315 475 319 467 319 458 c 0
 319 443 307 433 294 433 c 0
 287.489948818 433 278.993299212 437.635396324 268.914202976 443.134105557 c 0
 254.221521652 451.149782812 236.166141239 461 216 461 c 0
 170 461 104 412 104 277 c 0
EndSplineSet
EndUndoOperation
EndUndoes
Redoes
EndRedoes
EndUndoRedoHistory
Fore
SplineSet
104 277 m 0
 104 120 172 50 244 50 c 0
 299 50 332 87 343 101 c 0
 348 107 355 111 363 111 c 0
 378 111 388 99 388 86 c 0
 388 65 327 0 244 0 c 0
 153 0 54 78 54 277 c 0
 54 447 146 511 215 511 c 0
 244 511 270 500 307 479 c 0
 315 475 319 467 319 458 c 0
 319 443 307 433 294 433 c 0
 287 433 279 438 269 443 c 0
 254 451 236 461 216 461 c 0
 170 461 104 412 104 277 c 0
EndSplineSet
Validated: 1
EndChar

StartChar: d
Encoding: 100 100 29
Width: 513
Flags: W
HStem: -4 50<157.799 299.609 416.868 460.474> 431 50<166.895 276.94>
VStem: 52 50<104.901 340.929> 306 51<52.3869 104.768> 367 49<51.9993 801.717>
LayerCount: 2
UndoRedoHistory
Layer: 1
Undoes
UndoOperation
Index: 0
Type: 12
WasModified: 0
WasOrder2: 0
Layer: 0
CopiedFrom: Writing
EndUndoOperation
UndoOperation
Index: 1
Type: 1
WasModified: 1
WasOrder2: 0
Layer: 2
Width: 513
VWidth: 1024
LBearingChange: 0
UnicodeEnc: 0
InstructionsLength: 0
SplineSet
423 575 m 0
 423 570.532147521 420.816688431 431.946584366 418.888743794 309.570421033 c 0
 417.364569731 212.823569172 416 126.207592201 416 124 c 0
 416 112 416.25 100 416.5 88 c 0
 416.75 76 417 64 417 52 c 0
 417 45.3879928355 422.683423037 47.5197134197 428.557978011 49.7231231747 c 0
 431.568100303 50.8521504547 434.628405015 52 437 52 c 0
 451 52 462 41 462 27 c 0
 462 20 459 0 425 0 c 0
 396 0 367 18 367 47 c 0
 367 59.759176644 366.759176644 72.5183532881 366.513892066 85.5138920659 c 0
 366.25934823 99 366 112.74065177 366 127 c 0
 366 135.36174076 368.896041182 312.107590237 370.962593454 438.22960093 c 0
 372.108910406 508.18950501 373 562.572843311 373 564 c 0
 373 678.189784081 369.576531509 745.135702986 368.395176089 768.237105654 c 0
 368.148846456 773.054081095 368 775.964773221 368 777 c 0
 368 791 379 802 393 802 c 0
 406 802 417 792 418 779 c 0
 422 710 423 642 423 575 c 0
52 214 m 0
 52 339 107 481 214 481 c 0
 258 481 304 458 353 412 c 0
 358 407 361 401 361 394 c 0
 361 379 349 369 336 369 c 0
 330 369 324 370 319 375 c 0
 275 417 239 431 214 431 c 0
 148 431 102 323 102 215 c 0
 102 176 108 143 118 117 c 0
 147 52 201 46 250 46 c 0
 292.646021453 46 300.08743855 65.5950156323 306.393331308 82.1999264364 c 0
 311.029515868 94.4080996582 315.051903488 105 332 105 c 0
 346 105 357 92 357 79 c 0
 357 78 348 -4 249 -4 c 0
 231 -4 213 -2 195 0 c 0
 131 7 52 65 52 214 c 0
EndSplineSet
EndUndoOperation
EndUndoes
Redoes
EndRedoes
EndUndoRedoHistory
Fore
SplineSet
423 575 m 0
 423 571 421 432 419 310 c 0
 417 213 416 126 416 124 c 0
 416 112 416 100 416 88 c 0
 416 76 417 64 417 52 c 0
 417 45 423 48 429 50 c 0
 432 51 435 52 437 52 c 0
 451 52 462 41 462 27 c 0
 462 20 459 0 425 0 c 0
 396 0 367 18 367 47 c 0
 367 60 367 73 367 86 c 0
 367 99 366 113 366 127 c 0
 366 135 369 312 371 438 c 0
 372 508 373 563 373 564 c 0
 373 678 369 745 368 768 c 0
 368 773 368 776 368 777 c 0
 368 791 379 802 393 802 c 0
 406 802 417 792 418 779 c 0
 422 710 423 642 423 575 c 0
52 214 m 0
 52 339 107 481 214 481 c 0
 258 481 304 458 353 412 c 0
 358 407 361 401 361 394 c 0
 361 379 349 369 336 369 c 0
 330 369 324 370 319 375 c 0
 275 417 239 431 214 431 c 0
 148 431 102 323 102 215 c 0
 102 176 108 143 118 117 c 0
 147 52 201 46 250 46 c 0
 293 46 300 65 306 82 c 0
 311 94 315 105 332 105 c 0
 346 105 357 92 357 79 c 0
 357 78 348 -4 249 -4 c 0
 231 -4 213 -2 195 0 c 0
 131 7 52 65 52 214 c 0
EndSplineSet
Validated: 1
EndChar

StartChar: e
Encoding: 101 101 30
Width: 520
Flags: W
HStem: -12 50<175.678 368.697> 239 50<141.18 338.812> 457 50<231.047 397.567>
VStem: 53 50<97.64 318.673> 412 50<336.987 441.736>
LayerCount: 2
UndoRedoHistory
Layer: 1
Undoes
UndoOperation
Index: 0
Type: 12
WasModified: 0
WasOrder2: 0
Layer: 0
CopiedFrom: Writing
EndUndoOperation
UndoOperation
Index: 1
Type: 1
WasModified: 1
WasOrder2: 0
Layer: 2
Width: 520
VWidth: 1024
LBearingChange: 0
UnicodeEnc: 0
InstructionsLength: 0
SplineSet
341 507 m 0
 370 507 462 498 462 383 c 0
 462 315 438 299 415 286 c 0
 350 249 221 240 166 239 c 0
 152 239 141 250 141 264 c 0
 141 278 151 289 165 289 c 0
 271 292 388 313 407 344 c 1
 410 358 412 371 412 383 c 0
 412 457 359 457 341 457 c 0
 277 457 212 438 173 392 c 0
 103 313 103 249 103 189 c 0
 103 141 103 101 161 67 c 0
 195 48 237 38 277 38 c 0
 323 38 368 51 394 80 c 0
 399 85 405 88 412 88 c 0
 427 88 437 76 437 63 c 0
 437 43 383 -12 277 -12 c 0
 164 -12 64 48 55 138 c 0
 54 154 53 171 53 189 c 0
 53 253 53 332 135 425 c 0
 188 486 268 507 341 507 c 0
EndSplineSet
EndUndoOperation
EndUndoes
Redoes
EndRedoes
EndUndoRedoHistory
Fore
SplineSet
341 507 m 0
 370 507 462 498 462 383 c 0
 462 315 438 299 415 286 c 0
 350 249 221 240 166 239 c 0
 152 239 141 250 141 264 c 0
 141 278 151 289 165 289 c 0
 271 292 388 313 407 344 c 1
 410 358 412 371 412 383 c 0
 412 457 359 457 341 457 c 0
 277 457 212 438 173 392 c 0
 103 313 103 249 103 189 c 0
 103 141 103 101 161 67 c 0
 195 48 237 38 277 38 c 0
 323 38 368 51 394 80 c 0
 399 85 405 88 412 88 c 0
 427 88 437 76 437 63 c 0
 437 43 383 -12 277 -12 c 0
 164 -12 64 48 55 138 c 0
 54 154 53 171 53 189 c 0
 53 253 53 332 135 425 c 0
 188 486 268 507 341 507 c 0
EndSplineSet
Validated: 1
EndChar

StartChar: f
Encoding: 102 102 31
Width: 443
Flags: MW
LayerCount: 2
UndoRedoHistory
Layer: 1
Undoes
UndoOperation
Index: 0
Type: 12
WasModified: 1
WasOrder2: 0
Layer: 0
EndUndoOperation
EndUndoes
Redoes
EndRedoes
EndUndoRedoHistory
Fore
SplineSet
145 464 m 4
 145 480 145 490 145 492 c 4
 145 547 176 691 200 733 c 4
 218 764 243 798 283 815 c 4
 289 818 297 819 307 819 c 4
 347 819 408 796 430 730 c 4
 431 728 431 725 431 722 c 4
 431 708 420 697 406 697 c 4
 395 697 386 705 383 715 c 4
 373 745 340 769 309 769 c 4
 307 769 306 768 304 768 c 4
 302 768 302 768 300 768 c 4
 245 742 228 674 209 595 c 4
 201 551 196 522 195 491 c 4
 195 482 195 474 195 465 c 4
 195 446 195 426 193 407 c 5
 253 422 267 432 275 438 c 4
 279 441 282 443 290 443 c 4
 304 443 315 432 315 418 c 4
 315 404 312 384 188 354 c 5
 184 301 180 266 176 234 c 4
 170 185 164 143 164 54 c 4
 164 22 165 5 165 0 c 4
 165 -1 165 -1 165 -1 c 4
 166 -4 166 -7 166 -10 c 4
 166 -26 153 -36 140 -36 c 4
 130 -36 120 -31 116 -18 c 4
 116 -17 116 -17 116 -15 c 4
 116 -13 115 -10 115 -4 c 4
 114 4 114 20 114 54 c 4
 114 148 121 204 128 256 c 4
 132 284 135 310 137 340 c 5
 111 331 98 323 89 318 c 4
 81 314 77 311 70 311 c 4
 56 311 45 322 45 336 c 4
 45 345 49 353 56 357 c 4
 84 375 113 386 141 394 c 5
 144 417 145 440 145 464 c 4
EndSplineSet
Validated: 1
EndChar

StartChar: g
Encoding: 103 103 32
Width: 497
Flags: W
HStem: -197 50<154.507 318.612> -3 50<169.215 295.803> 441 49<200.049 339.269>
VStem: 52 50<117.452 335.434> 72 50<-118.59 -53.7763> 374 50<-73.6152 85 150.788 403.667>
LayerCount: 2
UndoRedoHistory
Layer: 1
Undoes
UndoOperation
Index: 0
Type: 12
WasModified: 0
WasOrder2: 0
Layer: 0
CopiedFrom: Writing
EndUndoOperation
UndoOperation
Index: 1
Type: 1
WasModified: 1
WasOrder2: 0
Layer: 2
Width: 497
VWidth: 1024
LBearingChange: 0
UnicodeEnc: 0
InstructionsLength: 0
SplineSet
248 47 m 0
 303 47 360 142 373 215 c 1
 372.5 240 371.75 264.75 371 289.5 c 0
 370.25 314.25 369.5 339 369 364 c 1
 358 418 320 441 276 441 c 0
 215 441 145 397 122 329 c 0
 109 291 102 253 102 214 c 0
 102 97 172 47 248 47 c 0
248 -3 m 0
 146 -3 52 68 52 214 c 0
 52 385 153 490 271 490 c 0
 283 490 294 489 306 487 c 0
 327 483 348 477 367 463 c 1
 368 476 380 486 392 486 c 0
 406 486 417 474 417 461 c 0
 419 374 419 374 422 352 c 0
 422 351.867680035 422.070034292 351 422.191569007 349.494262713 c 0
 422.988525427 339.620483022 426 302.310241511 426 265 c 0
 426 246 425 227 423 211 c 0
 423 210.879228656 423.014585718 209.620771344 423.040234079 207.407827882 c 0
 423.226956971 191.2973563 424 124.599118767 424 78 c 0
 424 14 423 -73 370 -143 c 0
 369.944298963 -143.070892229 369.888085098 -143.142451134 369.831354252 -143.214668144 c 0
 358.684715349 -157.404072797 327.579710357 -197 245 -197 c 0
 166 -197 72 -156 72 -93 c 0
 72 -57 102 -36 117 -36 c 0
 131 -36 142 -48 142 -61 c 0
 142 -73.1827632775 135.26894689 -77.961368134 129.616633684 -81.9741386314 c 0
 125.525789724 -84.8783686967 122 -87.3814474311 122 -92 c 0
 122 -94 122 -96 123 -98 c 0
 134 -122 189 -147 245 -147 c 0
 299 -147 333 -131 358 -60 c 0
 374 -14 374 20 374 77 c 0
 374 80 374 82 374 85 c 1
 341 34 299 -3 248 -3 c 0
EndSplineSet
EndUndoOperation
EndUndoes
Redoes
EndRedoes
EndUndoRedoHistory
Fore
SplineSet
248 47 m 0xf4
 303 47 360 142 373 215 c 1
 373 240 372 265 371 290 c 0
 370 315 369 339 369 364 c 1
 358 418 320 441 276 441 c 0
 215 441 145 397 122 329 c 0xec
 109 291 102 253 102 214 c 0
 102 97 172 47 248 47 c 0xf4
248 -3 m 0
 146 -3 52 68 52 214 c 0xf4
 52 385 153 490 271 490 c 0
 283 490 294 489 306 487 c 0
 327 483 348 477 367 463 c 1
 368 476 380 486 392 486 c 0
 406 486 417 474 417 461 c 0
 419 374 419 374 422 352 c 0
 422 352 422 351 422 349 c 0
 423 339 426 302 426 265 c 0
 426 246 425 227 423 211 c 0
 423 211 423 209 423 207 c 0
 423 191 424 125 424 78 c 0
 424 14 423 -73 370 -143 c 0
 359 -157 328 -197 245 -197 c 0
 166 -197 72 -156 72 -93 c 0
 72 -57 102 -36 117 -36 c 0
 131 -36 142 -48 142 -61 c 0
 142 -73 136 -78 130 -82 c 0
 126 -85 122 -87 122 -92 c 0
 122 -94 122 -96 123 -98 c 0
 134 -122 189 -147 245 -147 c 0
 299 -147 333 -131 358 -60 c 0
 374 -14 374 20 374 77 c 0
 374 80 374 82 374 85 c 1
 341 34 299 -3 248 -3 c 0
EndSplineSet
Validated: 1
EndChar

StartChar: h
Encoding: 104 104 33
Width: 541
Flags: W
HStem: 425 50<212.998 327.539> 799 20G<78 92>
VStem: 60 50<585.592 818.873> 82 50<-33.8198 239.214> 134 50<321.181 394.41> 392 49<-33.8434 56.8772> 429 50<41.6543 313.034>
LayerCount: 2
UndoRedoHistory
Layer: 1
Undoes
UndoOperation
Index: 0
Type: 12
WasModified: 0
WasOrder2: 0
Layer: 0
CopiedFrom: Writing
EndUndoOperation
UndoOperation
Index: 1
Type: 1
WasModified: 1
WasOrder2: 0
Layer: 2
Width: 541
VWidth: 1024
LBearingChange: 0
UnicodeEnc: 0
InstructionsLength: 0
SplineSet
392 -9 m 0
 392 -6.93885340499 393.940593032 -0.734278444514 396.932924269 8.83297402016 c 0
 407.006612305 41.0411451913 429 111.35966141 429 190 c 0
 429 249 417 313 375 373 c 1
 305 417 l 2
 293 422 282 425 270 425 c 0
 226 425 187 391 184 344 c 0
 183 331 172 321 159 321 c 0
 146 321 134 331 134 346 c 0
 134 400 185 475 270 475 c 0
 289 475 309 471 328 462 c 0
 329 462 408 413 413 406 c 0
 476 318 479 229 479 190 c 0
 479 102 455 20 441 -18 c 0
 438 -28 428 -34 417 -34 c 0
 403 -34 392 -22 392 -9 c 0
83 96 m 0
 83 252.351837917 77.8681041971 324.585209847 72.4525382154 400.811346698 c 0
 66.4032415909 485.957481729 60 576.08552586 60 794 c 0
 60 808 71 819 85 819 c 0
 99 819 110 808 110 795 c 2
 124 386 l 2
 130 226 133 96 133 25 c 0
 133 17.2299220489 132.69196882 10.0759064587 132.417824499 3.70891224958 c 0
 132.198020045 -1.39604008914 132 -5.99505011142 132 -10 c 0
 132 -24 121 -34 107 -34 c 0
 93 -34 82 -22 82 -8 c 0
 82 -7.88566158148 82.0130732739 -7.22224565713 82.0362302669 -6.04712166363 c 0
 82.2156035631 3.05534964946 83 42.8603051109 83 96 c 0
EndSplineSet
EndUndoOperation
EndUndoes
Redoes
EndRedoes
EndUndoRedoHistory
Fore
SplineSet
392 -9 m 0xcc
 392 -7 394 -1 397 9 c 0
 407 41 429 111 429 190 c 0
 429 249 417 313 375 373 c 1
 305 417 l 2
 293 422 282 425 270 425 c 0
 226 425 187 391 184 344 c 0
 183 331 172 321 159 321 c 0
 146 321 134 331 134 346 c 0
 134 400 185 475 270 475 c 0
 289 475 309 471 328 462 c 0
 329 462 408 413 413 406 c 0
 476 318 479 229 479 190 c 0xca
 479 102 455 20 441 -18 c 0
 438 -28 428 -34 417 -34 c 0
 403 -34 392 -22 392 -9 c 0xcc
83 96 m 0
 83 252 77 325 72 401 c 0
 66 486 60 576 60 794 c 0
 60 808 71 819 85 819 c 0
 99 819 110 808 110 795 c 2xe8
 124 386 l 2
 130 226 133 96 133 25 c 0
 133 17 132 10 132 4 c 0
 132 -1 132 -6 132 -10 c 0
 132 -24 121 -34 107 -34 c 0
 93 -34 82 -22 82 -8 c 0
 82 -8 82 -7 82 -6 c 0xd8
 82 3 83 43 83 96 c 0
EndSplineSet
Validated: 1
EndChar

StartChar: i
Encoding: 105 105 34
Width: 231
Flags: W
HStem: -3 63<134.237 175.824> 469 20G<101 114>
VStem: 58 50<49.3724 457.043> 90 66<629.677 732.886>
LayerCount: 2
UndoRedoHistory
Layer: 1
Undoes
UndoOperation
Index: 0
Type: 12
WasModified: 0
WasOrder2: 0
Layer: 0
CopiedFrom: Writing
EndUndoOperation
UndoOperation
Index: 1
Type: 1
WasModified: 1
WasOrder2: 0
Layer: 2
Width: 231
VWidth: 1024
LBearingChange: 0
UnicodeEnc: 0
InstructionsLength: 0
SplineSet
90 647 m 0
 90 650 90 649 106 721 c 0
 108 732 119 741 131 741 c 0
 145 741 156 730 156 716 c 0
 156 713 156 713 140 641 c 0
 138 630 127 622 115 622 c 0
 101 622 90 633 90 647 c 0
132 464 m 0
 132 463.774622693 131.695230416 462.292070851 131.154379396 459.661100711 c 0
 126.895714208 438.944821107 108 347.026606945 108 237 c 0
 108 235 110 51 134 47 c 1
 139 56 147 60 155 60 c 0
 168 60 181 51 181 35 c 0
 181 18 161 -3 134 -3 c 0
 111 -3 79 9 70 73 c 0
 61 132 58 187 58 237 c 0
 58 338 71 419 82 470 c 0
 84 481 95 489 107 489 c 0
 121 489 132 478 132 464 c 0
EndSplineSet
EndUndoOperation
EndUndoes
Redoes
EndRedoes
EndUndoRedoHistory
Fore
SplineSet
90 647 m 0xd0
 90 650 90 649 106 721 c 0
 108 732 119 741 131 741 c 0
 145 741 156 730 156 716 c 0
 156 713 156 713 140 641 c 0
 138 630 127 622 115 622 c 0
 101 622 90 633 90 647 c 0xd0
132 464 m 0
 132 464 132 463 131 460 c 0
 127 439 108 347 108 237 c 0
 108 235 110 51 134 47 c 1
 139 56 147 60 155 60 c 0
 168 60 181 51 181 35 c 0
 181 18 161 -3 134 -3 c 0
 111 -3 79 9 70 73 c 0
 61 132 58 187 58 237 c 0xe0
 58 338 71 419 82 470 c 0
 84 481 95 489 107 489 c 0
 121 489 132 478 132 464 c 0
EndSplineSet
Validated: 1
EndChar

StartChar: j
Encoding: 106 106 35
Width: 407
Flags: W
HStem: -201 50<120.517 235.252> -49 20G<52.5 72>
VStem: 40 50<-120.752 -29.1669> 272 60<668.507 742.493> 272 50<-113.371 -41.0829 643.179 742.493> 291 50<329.143 515.803>
LayerCount: 2
UndoRedoHistory
Layer: 1
Undoes
UndoOperation
Index: 0
Type: 12
WasModified: 0
WasOrder2: 0
Layer: 0
CopiedFrom: Writing
EndUndoOperation
UndoOperation
Index: 1
Type: 1
WasModified: 1
WasOrder2: 0
Layer: 2
Width: 407
VWidth: 1024
LBearingChange: 0
UnicodeEnc: 0
InstructionsLength: 0
SplineSet
272 668 m 0
 272 670 272 670 282 746 c 0
 284 758 294 768 307 768 c 0
 321 768 332 757 332 743 c 0
 332 741 332 741 322 665 c 0
 320 653 310 643 297 643 c 0
 283 643 272 654 272 668 c 0
40 -63 m 0
 40 -55 40 -29 65 -29 c 0
 79 -29 90 -40 90 -54 c 0
 90 -56 90 -58 90 -63 c 0
 90 -112 130 -151 178 -151 c 0
 226 -151 260 -114 266 -76 c 1
 291 492 l 2
 292 505 303 516 316 516 c 0
 329 516 341 506 341 491 c 0
 341 110 341 110 315 -81 c 0
 306 -147 249 -201 179 -201 c 0
 106 -201 40 -142 40 -63 c 0
EndSplineSet
EndUndoOperation
EndUndoes
Redoes
EndRedoes
EndUndoRedoHistory
Fore
SplineSet
272 668 m 0xe8
 272 670 272 670 282 746 c 0
 284 758 294 768 307 768 c 0
 321 768 332 757 332 743 c 0xf0
 332 741 332 741 322 665 c 0
 320 653 310 643 297 643 c 0
 283 643 272 654 272 668 c 0xe8
40 -63 m 0
 40 -55 40 -29 65 -29 c 0
 79 -29 90 -40 90 -54 c 0
 90 -56 90 -58 90 -63 c 0
 90 -112 130 -151 178 -151 c 0
 226 -151 260 -114 266 -76 c 1
 291 492 l 2
 292 505 303 516 316 516 c 0
 329 516 341 506 341 491 c 0xe4
 341 110 341 110 315 -81 c 0
 306 -147 249 -201 179 -201 c 0
 106 -201 40 -142 40 -63 c 0
EndSplineSet
Validated: 1
EndChar

StartChar: k
Encoding: 107 107 36
Width: 454
Flags: W
HStem: 5 48<361.567 404.844>
VStem: 74 50<345.23 785.761> 85 50<0.126953 358.036> 276 50<481.158 554.82>
LayerCount: 2
UndoRedoHistory
Layer: 1
Undoes
UndoOperation
Index: 0
Type: 12
WasModified: 0
WasOrder2: 0
Layer: 0
CopiedFrom: Writing
EndUndoOperation
UndoOperation
Index: 1
Type: 1
WasModified: 1
WasOrder2: 0
Layer: 2
Width: 454
VWidth: 1024
LBearingChange: 0
UnicodeEnc: 0
InstructionsLength: 0
SplineSet
326 530 m 0
 326 484 269 401 207 354 c 1
 274.612829707 302.891089355 297.726640607 231.374985373 317.535893332 170.08346647 c 0
 334.935186781 116.24856729 349.785065786 70.3017740224 390 53 c 0
 399 49 405 40 405 30 c 0
 405 16 393 5 380 5 c 0
 377 5 373 6 370 7 c 0
 308.306841858 33.4399249181 289.766129992 91.7647129182 270.007686196 153.920203706 c 0
 249.412158932 218.70896533 227.493533552 287.659887377 154 329 c 0
 152 330 137 340 137 355 c 0
 137 364 141 372 150 377 c 0
 198 401 272 486 276 532 c 0
 277 545 288 555 301 555 c 0
 315 555 326 544 326 530 c 0
124 676 m 0
 124 667.371182542 123.484730168 659.515269832 122.977269248 651.77841344 c 0
 122.484959842 644.272560237 122 636.87876004 122 629 c 2
 135 25 l 2
 135 11 124 0 110 0 c 0
 96 0 85 11 85 25 c 2
 72 629 l 2
 72 637.765884907 72.5317698146 646 73.0469055624 653.976547219 c 0
 73.5307913401 661.46920866 74 668.73460433 74 676 c 0
 74 699.230277026 66.9045844613 731.526918351 61.6234003339 755.565610462 c 0
 58.4929838379 769.814520652 56 781.161989225 56 786 c 0
 56 800 67 811 81 811 c 0
 93 811 104 802 106 790 c 0
 124 694 124 694 124 676 c 0
EndSplineSet
EndUndoOperation
EndUndoes
Redoes
EndRedoes
EndUndoRedoHistory
Fore
SplineSet
326 530 m 0x90
 326 484 269 401 207 354 c 1
 275 303 298 231 318 170 c 0
 335 116 350 70 390 53 c 0
 399 49 405 40 405 30 c 0
 405 16 393 5 380 5 c 0
 377 5 373 6 370 7 c 0
 308 33 290 92 270 154 c 0
 249 219 227 288 154 329 c 0
 152 330 137 340 137 355 c 0
 137 364 141 372 150 377 c 0
 198 401 272 486 276 532 c 0
 277 545 288 555 301 555 c 0
 315 555 326 544 326 530 c 0x90
124 676 m 0xd0
 124 667 124 660 123 652 c 0
 123 644 122 637 122 629 c 2
 135 25 l 2
 135 11 124 0 110 0 c 0
 96 0 85 11 85 25 c 2xb0
 72 629 l 2
 72 638 72 646 73 654 c 0
 73 661 74 669 74 676 c 0
 74 699 67 732 62 756 c 0
 59 770 56 781 56 786 c 0
 56 800 67 811 81 811 c 0
 93 811 104 802 106 790 c 0
 124 694 124 694 124 676 c 0xd0
EndSplineSet
Validated: 1
EndChar

StartChar: l
Encoding: 108 108 37
Width: 285
Flags: W
HStem: 10 50<120.383 187.699> 769 50<47.1662 95.2425>
VStem: 117 50<297.419 735.498>
LayerCount: 2
UndoRedoHistory
Layer: 1
Undoes
UndoOperation
Index: 0
Type: 12
WasModified: 0
WasOrder2: 0
Layer: 0
CopiedFrom: Writing
EndUndoOperation
UndoOperation
Index: 1
Type: 1
WasModified: 1
WasOrder2: 0
Layer: 2
Width: 285
VWidth: 1024
LBearingChange: 0
UnicodeEnc: 0
InstructionsLength: 0
SplineSet
236 75 m 0
 236 52 208 10 153 10 c 0
 107 10 71 40 70 82 c 0
 70 83.7877978264 71.5022239021 92.0639244214 73.9695371808 105.656969384 c 0
 85.3030756665 168.096262985 117 342.722534138 117 516 c 0
 117 641 109 769 77 769 c 0
 75 769 74 769 72 769 c 0
 56 769 47 781 47 794 c 0
 47 806 56 819 77 819 c 0
 160.632262228 819 163.972180619 675.266791897 165.973668808 589.13285546 c 0
 165.982469512 588.754117625 165.991244339 588.376493433 166 588 c 0
 167 519 167 518 167 516 c 0
 167 352 140 185 120 81 c 1
 122 61 150 60 153 60 c 0
 176.747804379 60 182.434963512 71.6520291901 187.670302572 82.3783553058 c 0
 192.135014723 91.5257969527 196.271130457 100 211 100 c 0
 225 100 236 88 236 75 c 0
EndSplineSet
EndUndoOperation
EndUndoes
Redoes
EndRedoes
EndUndoRedoHistory
Fore
SplineSet
236 75 m 0
 236 52 208 10 153 10 c 0
 107 10 71 40 70 82 c 0
 70 84 72 92 74 106 c 0
 85 168 117 343 117 516 c 0
 117 641 109 769 77 769 c 0
 75 769 74 769 72 769 c 0
 56 769 47 781 47 794 c 0
 47 806 56 819 77 819 c 0
 161 819 164 675 166 589 c 0
 166 588 l 0
 167 519 167 518 167 516 c 0
 167 352 140 185 120 81 c 1
 122 61 150 60 153 60 c 0
 177 60 183 71 188 82 c 0
 192 91 196 100 211 100 c 0
 225 100 236 88 236 75 c 0
EndSplineSet
Validated: 1
EndChar

StartChar: m
Encoding: 109 109 38
Width: 668
Flags: W
HStem: 475 50<43.2145 84.2969> 489 49<204.987 295.622 418.698 500.978>
VStem: 87 53<13.5273 390.632> 324 50<169.677 402> 341 50<7.12695 246.916> 548 50<1.18024 430.062>
LayerCount: 2
UndoRedoHistory
Layer: 1
Undoes
UndoOperation
Index: 0
Type: 12
WasModified: 0
WasOrder2: 0
Layer: 0
CopiedFrom: Writing
EndUndoOperation
UndoOperation
Index: 1
Type: 1
WasModified: 1
WasOrder2: 0
Layer: 2
Width: 668
VWidth: 1024
LBearingChange: 0
UnicodeEnc: 0
InstructionsLength: 0
SplineSet
135 456 m 1
 149 482 187 538 246 538 c 0
 286 538 327 514 353 475 c 1
 364 489 405 533 469 533 c 0
 532 533 589 454 593 368 c 0
 597 276 598 29 598 26 c 0
 598 12 587 1 573 1 c 0
 559 1 548 11 548 25 c 0
 548 28 547 275 543 366 c 0
 540 426 501 483 469 483 c 0
 422 483 377 440 375 403 c 0
 375 402.5 374.75 402.25 374.5 402 c 0
 374.25 401.75 374 401.5 374 401 c 0
 374 400.382451645 374.405201344 394.020578352 375.090488321 383.261213959 c 0
 378.843959675 324.329748139 391 133.473549345 391 32 c 0
 391 18 380 7 366 7 c 0
 352 7 341 18 341 32 c 0
 338.500974256 192.770656171 328.369012253 340.357149711 325.054798999 388.633397965 c 0
 324.390405875 398.31123247 324 403.998051487 324 405 c 0
 324 455 277 489 247 489 c 0
 178 489 144 330 144 328 c 0
 144 327.45141623 143.473347732 310.952792345 142.708956083 287.006421872 c 0
 140.686565875 223.650280799 137 108.159913608 137 98 c 0
 137 65.3039927598 139.220974147 45.1935056863 139.840975768 39.5795121161 c 0
 139.941553312 38.6688021009 140 38.1395787568 140 38 c 0
 140 25 129 13 115 13 c 0
 90 13 87 32 87 102 c 0
 87 139 88.75 180.25 90.5 221.5 c 0
 92.25 262.75 94 304 94 341 c 0
 94 342 93 475 72 475 c 2
 71 475 l 2
 70 475 69 475 68 475 c 0
 55 475 43 486 43 500 c 0
 43 506 46 525 71 525 c 0
 105 525 125 499 135 456 c 1
EndSplineSet
EndUndoOperation
EndUndoes
Redoes
EndRedoes
EndUndoRedoHistory
Fore
SplineSet
135 456 m 1xb4
 149 482 187 538 246 538 c 0x74
 286 538 327 514 353 475 c 1
 364 489 405 533 469 533 c 0
 532 533 589 454 593 368 c 0
 597 276 598 29 598 26 c 0
 598 12 587 1 573 1 c 0
 559 1 548 11 548 25 c 0
 548 28 547 275 543 366 c 0
 540 426 501 483 469 483 c 0
 422 483 377 440 375 403 c 0
 374 402 l 0
 374 401 l 0xb4
 374 400 374 394 375 383 c 0
 379 324 391 133 391 32 c 0
 391 18 380 7 366 7 c 0
 352 7 341 18 341 32 c 0xac
 339 193 328 341 325 389 c 0
 324 399 324 404 324 405 c 0
 324 455 277 489 247 489 c 0x74
 178 489 144 330 144 328 c 0
 144 327 144 311 143 287 c 0
 141 224 137 108 137 98 c 0
 137 65 139 46 140 40 c 0
 140 39 140 38 140 38 c 0
 140 25 129 13 115 13 c 0
 90 13 87 32 87 102 c 0
 87 139 88 181 90 222 c 0
 92 263 94 304 94 341 c 0
 94 342 93 475 72 475 c 2
 71 475 l 2
 70 475 69 475 68 475 c 0
 55 475 43 486 43 500 c 0
 43 506 46 525 71 525 c 0
 105 525 125 499 135 456 c 1xb4
EndSplineSet
Validated: 1
EndChar

StartChar: n
Encoding: 110 110 39
Width: 474
Flags: W
HStem: 443 50<220.089 327.51>
VStem: 61 49<-2.4293 237.515 385.153 497.856> 74 49<58.782 310 383 471.5> 353 50<0.934235 417.557>
LayerCount: 2
UndoRedoHistory
Layer: 1
Undoes
UndoOperation
Index: 0
Type: 12
WasModified: 0
WasOrder2: 0
Layer: 0
CopiedFrom: Writing
EndUndoOperation
UndoOperation
Index: 1
Type: 1
WasModified: 1
WasOrder2: 0
Layer: 2
Width: 474
VWidth: 1024
LBearingChange: 0
UnicodeEnc: 0
InstructionsLength: 0
SplineSet
61 473 m 0
 61 487 72 498 86 498 c 0
 98 498 107 490 110 479 c 0
 118 447 123 415 124 383 c 1
 156 439 205 493 273 493 c 0
 302 493 405 482 405 335 c 0
 405 323.098347853 404.464463804 311.732231902 403.947631892 300.763092027 c 0
 403.465683649 290.534316351 403 280.650737264 403 271 c 0
 403 264 403 257 403 257 c 2
 403 206.263225328 400.139755218 76.8697191397 399.256585487 36.9163456811 c 0
 399.095341493 29.6218910505 399 25.3087741776 399 25 c 0
 399 11 388 0 374 0 c 0
 360 0 349 11 349 25 c 0
 349 31.2518680643 349.433084258 49.9549085488 350.014243759 75.0526798852 c 0
 351.199281243 126.229335726 353 203.99460932 353 257 c 0
 353 261 352.75 265.25 352.5 269.5 c 0
 352.25 273.75 352 278 352 282 c 0
 352 291.128597678 352.257195357 300 352.510715744 308.744642128 c 0
 352.757093274 317.242906726 353 325.621453363 353 334 c 0
 353 361 353 443 272 443 c 0
 267.472761166 443 263.363805832 442.163433002 259.132085625 441.301871563 c 0
 256.820735643 440.83128988 254.472761166 440.353251595 252 440 c 0
 205 422 173 374 149 323 c 0
 145 315 136 309 126 309 c 0
 125.5 309 125 309.25 124.5 309.5 c 0
 124 309.75 123.5 310 123 310 c 1
 123 301 123 300 117 20 c 0
 117 6 106 -4 92 -4 c 0
 78 -4 67 7 67 21 c 0
 67 21.6268362519 67.3056073118 34.739914102 67.7891114409 55.4862347556 c 0
 69.6196285302 134.030537092 74 321.984652943 74 356 c 0
 74 414.766361005 63.6934555982 460.847744284 61.4342488863 470.948837952 c 0
 61.1561597637 472.192196632 61 472.890399409 61 473 c 0
EndSplineSet
EndUndoOperation
EndUndoes
Redoes
EndRedoes
EndUndoRedoHistory
Fore
SplineSet
61 473 m 0xd0
 61 487 72 498 86 498 c 0
 98 498 107 490 110 479 c 0xd0
 118 447 123 415 124 383 c 1
 156 439 205 493 273 493 c 0
 302 493 405 482 405 335 c 0
 405 323 405 312 404 301 c 0
 404 291 403 281 403 271 c 0
 403 264 403 257 403 257 c 2
 403 206 400 77 399 37 c 0
 399 30 399 25 399 25 c 0
 399 11 388 0 374 0 c 0
 360 0 349 11 349 25 c 0
 349 31 349 50 350 75 c 0
 351 126 353 204 353 257 c 0
 353 261 352 266 352 270 c 0
 352 274 352 278 352 282 c 0
 352 291 353 300 353 309 c 0
 353 317 353 326 353 334 c 0
 353 361 353 443 272 443 c 0
 267 443 263 442 259 441 c 0
 257 441 254 440 252 440 c 0
 205 422 173 374 149 323 c 0
 145 315 136 309 126 309 c 0
 124 310 l 0
 123 310 l 1
 123 301 123 300 117 20 c 0
 117 6 106 -4 92 -4 c 0
 78 -4 67 7 67 21 c 0
 67 22 68 34 68 55 c 0
 70 134 74 322 74 356 c 0xb0
 74 415 63 461 61 471 c 0
 61 472 61 473 61 473 c 0xd0
EndSplineSet
Validated: 1
EndChar

StartChar: o
Encoding: 111 111 40
Width: 497
Flags: W
HStem: 0 50<152.748 290.924> 416 50<201.428 307.131>
VStem: 52 50<107.576 293.916> 387 50<147.965 327.501>
LayerCount: 2
UndoRedoHistory
Layer: 1
Undoes
UndoOperation
Index: 0
Type: 12
WasModified: 0
WasOrder2: 0
Layer: 0
CopiedFrom: Writing
EndUndoOperation
UndoOperation
Index: 1
Type: 1
WasModified: 1
WasOrder2: 0
Layer: 2
Width: 497
VWidth: 1024
LBearingChange: 0
UnicodeEnc: 0
InstructionsLength: 0
SplineSet
240 466 m 0
 359 466 437 344 437 235 c 0
 437 114 336 0 214 0 c 0
 110 0 52 99 52 187 c 0
 52 291 106 423 229 464 c 0
 231 465 234 466 240 466 c 0
102 187 m 0
 102 134 135 50 214 50 c 0
 307 50 387 140 387 231 c 0
 387 336 318 415 241 416 c 1
 148 383 102 275 102 187 c 0
EndSplineSet
EndUndoOperation
EndUndoes
Redoes
EndRedoes
EndUndoRedoHistory
Fore
SplineSet
240 466 m 0
 359 466 437 344 437 235 c 0
 437 114 336 0 214 0 c 0
 110 0 52 99 52 187 c 0
 52 291 106 423 229 464 c 0
 231 465 234 466 240 466 c 0
102 187 m 0
 102 134 135 50 214 50 c 0
 307 50 387 140 387 231 c 0
 387 336 318 415 241 416 c 1
 148 383 102 275 102 187 c 0
EndSplineSet
Validated: 1
EndChar

StartChar: p
Encoding: 112 112 41
Width: 472
Flags: W
HStem: 3 49<141.585 294.803> 396 50<197.104 324.004>
VStem: 73 48<-84.0695 29 75 274 347 427.999 428 451.144> 360 45<121.172 355.719>
LayerCount: 2
UndoRedoHistory
Layer: 1
Undoes
UndoOperation
Index: 0
Type: 12
WasModified: 0
WasOrder2: 0
Layer: 0
CopiedFrom: Writing
EndUndoOperation
UndoOperation
Index: 1
Type: 1
WasModified: 1
WasOrder2: 0
Layer: 2
Width: 472
VWidth: 1024
LBearingChange: 0
UnicodeEnc: 0
InstructionsLength: 0
SplineSet
360 259 m 0
 360 338 337 396 258 396 c 0
 239 396 219 392 202 385 c 1
 183.930832174 372.027264125 173.160036526 347.248337964 163.223127185 324.387822284 c 0
 151.712481883 297.906823174 141.320768161 274 122 274 c 2
 121 274 l 1
 121.110421033 268.147685239 121.220842066 262.368527305 121.329916758 256.659833515 c 0
 122.208649262 210.669194095 123 169.251895571 123 131 c 0
 123 121.371598169 122.743196338 111.743196338 122.489863631 102.244931815 c 0
 122.243287679 93 122 83.8783561603 122 75 c 1
 125 77 128 77 131 77 c 0
 137.588457268 77 143.373066959 73.6506350946 150.707658145 69.4038105677 c 0
 163.411542732 62.0480947162 180.765371804 52 215 52 c 0
 316 52 349 128 355 173 c 0
 358.135567695 238.06302967 359.427675746 252.123675848 359.839706237 256.607368171 c 0
 359.953297299 257.843459644 360 258.351675771 360 259 c 0
56 -175 m 0
 56 -174.533057922 56.231662086 -173.125840318 56.6408998699 -170.639949667 c 0
 59.7373455791 -151.830773826 73 -71.2675660209 73 131 c 0
 73 169.966148386 72.6293064648 185.207910521 71.21083349 243.531095653 c 0
 70.2995337223 281.000900156 68.9557696574 336.252287898 67 427 c 0
 67 441 78 452 92 452 c 0
 106 452 117 442 117 428 c 2
 117 428 117 427 119 347 c 1
 119.154618314 347.342849304 119.309146242 347.68556303 119.463606875 348.028127508 c 0
 142.285690729 398.643194157 163.63864086 446 258 446 c 0
 318 446 410 419 410 259 c 0
 410 236.357542901 406.483670346 187.694246364 405.348666101 171.986661006 c 0
 405.130234432 168.963734794 405 167.161390478 405 167 c 0
 404 157 381 3 218 3 c 0
 170 3 137 19 121 29 c 1
 119 -55 117 -94 106 -178 c 0
 104 -190 94 -200 81 -200 c 0
 67 -200 56 -189 56 -175 c 0
EndSplineSet
EndUndoOperation
EndUndoes
Redoes
EndRedoes
EndUndoRedoHistory
Fore
SplineSet
360 259 m 0
 360 338 337 396 258 396 c 0
 239 396 219 392 202 385 c 1
 184 372 173 347 163 324 c 0
 151 298 141 274 122 274 c 2
 121 274 l 1
 121 268 121 263 121 257 c 0
 122 211 123 169 123 131 c 0
 123 121 122 111 122 102 c 0
 122 93 122 84 122 75 c 1
 125 77 128 77 131 77 c 0
 138 77 144 73 151 69 c 0
 164 62 181 52 215 52 c 0
 316 52 349 128 355 173 c 0
 358 238 360 253 360 257 c 0
 360 258 360 258 360 259 c 0
56 -175 m 0
 56 -175 57 -173 57 -171 c 0
 60 -152 73 -71 73 131 c 0
 73 170 72 186 71 244 c 0
 70 281 69 336 67 427 c 0
 67 441 78 452 92 452 c 0
 106 452 117 442 117 428 c 2
 117 428 117 427 119 347 c 1
 119 348 l 0
 142 399 164 446 258 446 c 0
 318 446 410 419 410 259 c 0
 410 236 406 188 405 172 c 0
 405 169 405 167 405 167 c 0
 404 157 381 3 218 3 c 0
 170 3 137 19 121 29 c 1
 119 -55 117 -94 106 -178 c 0
 104 -190 94 -200 81 -200 c 0
 67 -200 56 -189 56 -175 c 0
EndSplineSet
Validated: 1
EndChar

StartChar: q
Encoding: 113 113 42
Width: 498
Flags: W
HStem: -202 50<386.074 455.5> 6 50<141.383 274.168> 461 20G<223.5 240.5 360 374>
VStem: 54 50<101.364 354.181> 61 54<81.7096 211.799> 329 47<-149.949 60> 336 57<171.46 347.398 402 475.505>
LayerCount: 2
UndoRedoHistory
Layer: 1
Undoes
UndoOperation
Index: 0
Type: 12
WasModified: 0
WasOrder2: 0
Layer: 0
CopiedFrom: Writing
EndUndoOperation
UndoOperation
Index: 1
Type: 1
WasModified: 1
WasOrder2: 0
Layer: 2
Width: 498
VWidth: 1024
LBearingChange: 0
UnicodeEnc: 0
InstructionsLength: 0
SplineSet
228 430 m 1
 200 423 151 404 130 364 c 0
 129 363 104 304 104 214 c 0
 104 167.400881233 112.503473324 123.120891555 114.557425129 112.425383821 c 0
 114.839557107 110.956242847 115 110.120771344 115 110 c 0
 130 77 168 56 209 56 c 0
 268 56 306 101 323 139 c 0
 333 162 336 190 336 219 c 0
 336 288 321 362 271 413 c 0
 261 423 251 426 228 430 c 1
330 60 m 1
 306 35 266 6 208 6 c 0
 140 6 68 50 62 121 c 0
 62 122.651530772 61.6969384567 124 61.4244923464 125.212246173 c 0
 61.2020410289 126.202041029 61 127.101020514 61 128 c 0
 56 156 54 185 54 214 c 0
 54 216 55 329 85 387 c 0
 123 461 220 481 227 481 c 0
 254 481 303 469 343 402 c 1
 343 425.549552836 342.292625716 444.147485683 342.067759153 450.059565504 c 0
 342.025263367 451.176843571 342 451.841055458 342 452 c 0
 342 466 353 477 367 477 c 0
 381 477 392 466 392 453 c 0
 393 434 393 415 393 396 c 0
 393 318.5916427 387.7277618 218.233542649 383.055447967 129.295121923 c 0
 379.337819867 58.5293335407 376 -5.00672980118 376 -44 c 0
 376 -67 383 -145 392 -152 c 0
 393 -152 394 -152 395 -152 c 0
 398.77708764 -152 404.78329888 -151.55417528 411.124224801 -151.0835056 c 0
 418.2135955 -150.5572809 425.72135955 -150 431 -150 c 0
 445 -150 456 -161 456 -175 c 0
 456 -188 445 -200 432 -200 c 0
 425.569219382 -200 418.276877527 -200.574374158 411.50810226 -201.107510106 c 0
 405.646170928 -201.569219382 400.176914536 -202 396 -202 c 0
 340 -202 334 -148 329 -86 c 0
 328.732050808 -82.918584287 328.482050808 -80.0705080757 328.25 -77.4269145362 c 0
 326.75 -60.3384572681 326 -51.7942286341 326 -44 c 0
 326 -37 327 0 330 60 c 1
EndSplineSet
EndUndoOperation
EndUndoes
Redoes
EndRedoes
EndUndoRedoHistory
Fore
SplineSet
228 430 m 1xea
 200 423 151 404 130 364 c 0
 129 363 104 304 104 214 c 0xf2
 104 167 113 123 115 112 c 0
 115 111 115 110 115 110 c 0
 130 77 168 56 209 56 c 0
 268 56 306 101 323 139 c 0
 333 162 336 190 336 219 c 0
 336 288 321 362 271 413 c 0
 261 423 251 426 228 430 c 1xea
330 60 m 1
 306 35 266 6 208 6 c 0
 140 6 68 50 62 121 c 0
 62 123 61 124 61 125 c 0
 61 126 61 127 61 128 c 0xec
 56 156 54 185 54 214 c 0
 54 216 55 329 85 387 c 0
 123 461 220 481 227 481 c 0
 254 481 303 469 343 402 c 1
 343 426 342 444 342 450 c 0
 342 451 342 452 342 452 c 0
 342 466 353 477 367 477 c 0
 381 477 392 466 392 453 c 0
 393 434 393 415 393 396 c 0xf2
 393 319 388 218 383 129 c 0
 379 58 376 -5 376 -44 c 0
 376 -67 383 -145 392 -152 c 0
 393 -152 394 -152 395 -152 c 0
 399 -152 405 -151 411 -151 c 0
 418 -150 426 -150 431 -150 c 0
 445 -150 456 -161 456 -175 c 0
 456 -188 445 -200 432 -200 c 0
 426 -200 419 -200 412 -201 c 0
 406 -201 400 -202 396 -202 c 0
 340 -202 334 -148 329 -86 c 0xe4
 329 -83 328 -80 328 -77 c 0
 326 -60 326 -52 326 -44 c 0
 326 -37 327 0 330 60 c 1
EndSplineSet
Validated: 1
EndChar

StartChar: r
Encoding: 114 114 43
Width: 441
Flags: W
HStem: 415 50<184.523 314.621> 472 20G<84 97>
VStem: 64 54<-0.992374 335.032 408.602 491.537> 76 48<134.63 358.963 408 471.062> 341 48<343.198 389.318>
LayerCount: 2
UndoRedoHistory
Layer: 1
Undoes
UndoOperation
Index: 0
Type: 12
WasModified: 0
WasOrder2: 0
Layer: 0
CopiedFrom: Writing
EndUndoOperation
UndoOperation
Index: 1
Type: 1
WasModified: 1
WasOrder2: 0
Layer: 2
Width: 441
VWidth: 1024
LBearingChange: 0
UnicodeEnc: 0
InstructionsLength: 0
SplineSet
66 467 m 0
 66 481 77 492 91 492 c 0
 103 492 114 484 116 472 c 0
 119.826414478 451.911323993 121.822647986 430.907557501 123.739458264 410.739458264 c 0
 123.826414478 409.824531232 123.913207239 408.911323993 124 408 c 1
 144 428 190 465 254 465 c 0
 345 465 389 387 389 368 c 0
 389 354 377 343 364 343 c 0
 354 343 345 349 341 358 c 0
 324 397 291 415 254 415 c 0
 236 415 180 409 136 345 c 0
 134 342 130 339 126 337 c 0
 125.50918885 295.281052238 122.609421849 253.562104475 119.783618019 212.907264865 c 0
 116.852006133 170.730164741 114 129.698352589 114 91 c 0
 114 57.3830242615 116.971994892 31.9390344769 117.79242159 24.9151568194 c 0
 117.923795003 23.7904362576 118 23.1380262631 118 23 c 0
 118 10 107 -2 93 -2 c 0
 80 -2 69 8 68 20 c 0
 65 46 64 73 64 99 c 0
 64 141 67 183.5 70 226 c 0
 73 268.5 76 311 76 353 c 0
 76 413.645636342 68.0460787039 455.997253703 66.3256072416 465.158112396 c 0
 66.1169694308 466.269029691 66 466.891847593 66 467 c 0
EndSplineSet
EndUndoOperation
EndUndoes
Redoes
EndRedoes
EndUndoRedoHistory
Fore
SplineSet
66 467 m 0xd8
 66 481 77 492 91 492 c 0
 103 492 114 484 116 472 c 0
 120 452 122 431 124 411 c 0
 124 410 124 409 124 408 c 1xd8
 144 428 190 465 254 465 c 0
 345 465 389 387 389 368 c 0
 389 354 377 343 364 343 c 0
 354 343 345 349 341 358 c 0
 324 397 291 415 254 415 c 0
 236 415 180 409 136 345 c 0
 134 342 130 339 126 337 c 0
 126 295 123 254 120 213 c 0
 117 171 114 130 114 91 c 0
 114 57 117 32 118 25 c 0
 118 24 118 23 118 23 c 0
 118 10 107 -2 93 -2 c 0
 80 -2 69 8 68 20 c 0
 65 46 64 73 64 99 c 0xe8
 64 141 67 184 70 226 c 0
 73 268 76 311 76 353 c 0
 76 414 68 456 66 465 c 0
 66 466 66 467 66 467 c 0xd8
EndSplineSet
Validated: 1
EndChar

StartChar: s
Encoding: 115 115 44
Width: 421
Flags: W
HStem: 3 46<117.199 280.185> 239 46<149.169 179.954> 420 46<183.967 283.426>
VStem: 47 46<73.3479 116.993> 93 46<295.818 377.84> 290 51<352.487 415.335> 315 46<81.003 183.084>
LayerCount: 2
UndoRedoHistory
Layer: 1
Undoes
UndoOperation
Index: 0
Type: 12
WasModified: 0
WasOrder2: 0
Layer: 0
CopiedFrom: Writing
EndUndoOperation
UndoOperation
Index: 1
Type: 1
WasModified: 1
WasOrder2: 0
Layer: 2
Width: 421
VWidth: 1024
LBearingChange: 0
UnicodeEnc: 0
InstructionsLength: 0
SplineSet
256 466 m 0
 320 466 341 383 341 375 c 0
 341 363 330 352 317 352 c 0
 300.459352735 352 295.278968942 366.673673651 289.714716688 382.434672246 c 0
 283.841413107 399.071072838 277.540414982 416.918937753 257 420 c 0
 185 420 139 364 139 335 c 0
 139 313 158 289 187 285 c 0
 189 285 361 252 361 132 c 0
 361 54 291 3 196 3 c 0
 99 3 47 61 47 94 c 0
 47 107 57 117 70 117 c 0
 81 117 91 110 93 99 c 0
 98 77 140 49 197 49 c 0
 232 49 315 63 315 131 c 0
 315 198.165454668 236.951586492 221.428676738 180.108838424 238.371307753 c 0
 179.402554959 238.581823615 178.699545352 238.791363667 178 239 c 0
 127 247 93 290 93 335 c 0
 93 394 164 466 256 466 c 0
EndSplineSet
EndUndoOperation
EndUndoes
Redoes
EndRedoes
EndUndoRedoHistory
Fore
SplineSet
256 466 m 0xea
 320 466 341 383 341 375 c 0
 341 363 330 352 317 352 c 0
 300 352 296 366 290 382 c 0
 284 399 278 417 257 420 c 0
 185 420 139 364 139 335 c 0xec
 139 313 158 289 187 285 c 0
 189 285 361 252 361 132 c 0
 361 54 291 3 196 3 c 0
 99 3 47 61 47 94 c 0
 47 107 57 117 70 117 c 0
 81 117 91 110 93 99 c 0xf2
 98 77 140 49 197 49 c 0
 232 49 315 63 315 131 c 0
 315 198 237 221 180 238 c 0
 179 238 179 239 178 239 c 0
 127 247 93 290 93 335 c 0
 93 394 164 466 256 466 c 0xea
EndSplineSet
Validated: 1
EndChar

StartChar: t
Encoding: 116 116 45
Width: 417
Flags: W
HStem: -14 50<210.745 291.065> 382 86<82.8713 113.589> 474 20G<279 289>
VStem: 128 50<65.7139 397.624> 142 50<180.257 414.686 475.219 601.856> 152 51<475 576.906> 313 50<58.5625 136.786>
LayerCount: 2
UndoRedoHistory
Layer: 1
Undoes
UndoOperation
Index: 0
Type: 12
WasModified: 0
WasOrder2: 0
Layer: 0
CopiedFrom: Writing
EndUndoOperation
UndoOperation
Index: 1
Type: 1
WasModified: 1
WasOrder2: 0
Layer: 2
Width: 417
VWidth: 1024
LBearingChange: 0
UnicodeEnc: 0
InstructionsLength: 0
SplineSet
142 577 m 0
 142 591 153 602 167 602 c 0
 179 602 189 594 192 583 c 0
 200 552 203 520 203 485 c 0
 203 482 203 478 203 475 c 1
 252.151611322 481.467317279 263.659649133 487.516372631 270.255007815 490.983139979 c 0
 273.857631383 492.876813752 275.994439375 494 282 494 c 0
 296 494 307 482 307 469 c 0
 307 446 279 434 200 424 c 1
 197.852109598 397.15136997 194.422709978 367.611570586 190.90456906 337.307380789 c 0
 184.594999268 282.95867648 178 226.15136997 178 178 c 0
 178 119 188 72 217 42 c 0
 225 38 233 36 241 36 c 0
 276 36 313 69 313 104 c 0
 313 106.143593539 312.712812921 107.425625842 312.446244947 108.615612367 c 0
 312.215390309 109.646170928 312 110.607695155 312 112 c 0
 312 125 323 137 337 137 c 0
 348 137 363 132 363 104 c 0
 363 40 302 -14 240 -14 c 0
 210 -14 188 0 184 4 c 0
 139 47 128 111 128 178 c 0
 128 222.097244096 133.952755929 274.528346493 139.858264787 326.543302815 c 0
 143.327165341 357.096929115 146.77976378 387.506968505 149 416 c 1
 115.534589287 408.367537908 100.68303532 397.977467408 90.2788581541 390.698758765 c 0
 82.9621083746 385.579998384 77.8448630957 382 70 382 c 0
 56 382 45 393 45 407 c 0
 45 433 100 458 152 468 c 1
 152 475 152 482 152 489 c 0
 152 533.071621333 146.780145641 554.697868923 143.882976095 566.701059361 c 0
 142.770142446 571.311612519 142 574.502370361 142 577 c 0
EndSplineSet
EndUndoOperation
EndUndoes
Redoes
EndRedoes
EndUndoRedoHistory
Fore
SplineSet
142 577 m 0xea
 142 591 153 602 167 602 c 0
 179 602 189 594 192 583 c 0xea
 200 552 203 520 203 485 c 0
 203 482 203 478 203 475 c 1xe6
 252 481 263 488 270 491 c 0
 274 493 276 494 282 494 c 0
 296 494 307 482 307 469 c 0
 307 446 279 434 200 424 c 1
 198 397 195 367 191 337 c 0
 185 283 178 226 178 178 c 0
 178 119 188 72 217 42 c 0
 225 38 233 36 241 36 c 0
 276 36 313 69 313 104 c 0
 313 106 312 108 312 109 c 0
 312 110 312 111 312 112 c 0
 312 125 323 137 337 137 c 0
 348 137 363 132 363 104 c 0
 363 40 302 -14 240 -14 c 0
 210 -14 188 0 184 4 c 0
 139 47 128 111 128 178 c 0xf2
 128 222 134 275 140 327 c 0
 143 358 147 388 149 416 c 1
 116 408 100 398 90 391 c 0
 83 386 78 382 70 382 c 0
 56 382 45 393 45 407 c 0
 45 433 100 458 152 468 c 1
 152 475 152 482 152 489 c 0xe6
 152 533 147 555 144 567 c 0
 143 572 142 575 142 577 c 0xea
EndSplineSet
Validated: 1
EndChar

StartChar: u
Encoding: 117 117 46
Width: 450
Flags: W
HStem: -28 52<360.385 394.616> -12 50<137.39 263.331> 450 20G<331 343>
VStem: 57 50<75.2127 416.865> 86 49<339.805 463.856> 305 51<106.422 332.048> 312 83<-12.8739 23.873> 313 58<148.795 468.02>
LayerCount: 2
UndoRedoHistory
Layer: 1
Undoes
UndoOperation
Index: 0
Type: 12
WasModified: 0
WasOrder2: 0
Layer: 0
CopiedFrom: Writing
EndUndoOperation
UndoOperation
Index: 1
Type: 1
WasModified: 1
WasOrder2: 0
Layer: 2
Width: 450
VWidth: 1024
LBearingChange: 0
UnicodeEnc: 0
InstructionsLength: 0
SplineSet
313 445 m 0
 313 459 324 470 338 470 c 0
 348 470 371 470 371 381 c 0
 371 341.205851159 367.240601595 293.603721016 363.454080702 245.658161405 c 0
 360.199301449 204.445603187 356.924482464 162.979298551 356 126 c 0
 357 124 356 115 355 106 c 0
 355 74 358 39 368 24 c 0
 369 24 369 24 370 24 c 0
 384 24 395 13 395 -1 c 0
 395 -18 380 -28 365 -28 c 0
 355 -28 325 -23 312 34 c 1
 311.94675408 33.9556284002 311.893341903 33.911116794 311.839763183 33.8664663982 c 0
 293.780837596 18.8168686497 256.801806854 -12 190 -12 c 0
 91 -12 57 63 57 234 c 0
 57 306 66 377 86 446 c 0
 89 456 99 464 110 464 c 0
 124 464 135 453 135 439 c 0
 135 436.759907623 133.594956119 431.258106237 131.414353976 422.719412134 c 0
 123.860526567 393.140508102 107 327.118891471 107 234 c 0
 107 48 149 38 188 38 c 0
 253 38 300 82 305 111 c 1
 305 154.971889089 309.014242969 203.76086974 312.889461928 250.86015702 c 0
 316.505247298 294.806296757 320 337.281409324 320 373 c 0
 320 413.791214824 316.415062343 428.463598147 314.376203243 436.808212508 c 0
 313.566042788 440.124026027 313 442.44071813 313 445 c 0
EndSplineSet
EndUndoOperation
EndUndoes
Redoes
EndRedoes
EndUndoRedoHistory
Fore
SplineSet
313 445 m 0x61
 313 459 324 470 338 470 c 0
 348 470 371 470 371 381 c 0x61
 371 341 367 294 363 246 c 0
 360 205 357 163 356 126 c 0x64
 357 124 356 115 355 106 c 0
 355 74 358 39 368 24 c 0
 369 24 369 24 370 24 c 0
 384 24 395 13 395 -1 c 0
 395 -18 380 -28 365 -28 c 0xa2
 355 -28 325 -23 312 34 c 1
 294 19 257 -12 190 -12 c 0
 91 -12 57 63 57 234 c 0x72
 57 306 66 377 86 446 c 0
 89 456 99 464 110 464 c 0
 124 464 135 453 135 439 c 0x68
 135 437 133 432 131 423 c 0
 123 393 107 327 107 234 c 0
 107 48 149 38 188 38 c 0
 253 38 300 82 305 111 c 1x74
 305 155 309 204 313 251 c 0
 317 295 320 337 320 373 c 0
 320 414 316 429 314 437 c 0
 313 440 313 442 313 445 c 0x61
EndSplineSet
Validated: 1
EndChar

StartChar: v
Encoding: 118 118 47
Width: 453
Flags: W
HStem: -21 21G<215 243> 455 14G<64.5 74.5 362.5 376>
VStem: 341 50<289.001 449.983 450 452.974>
LayerCount: 2
UndoRedoHistory
Layer: 1
Undoes
UndoOperation
Index: 0
Type: 12
WasModified: 0
WasOrder2: 0
Layer: 0
CopiedFrom: Writing
EndUndoOperation
UndoOperation
Index: 1
Type: 1
WasModified: 1
WasOrder2: 0
Layer: 2
Width: 453
VWidth: 1024
LBearingChange: 0
UnicodeEnc: 0
InstructionsLength: 0
SplineSet
90 460 m 0
 137 405 161 336 174 270 c 0
 174 269.445241705 176.385114932 258.888388536 179.853523831 243.53672435 c 0
 188.889331391 203.542972932 205.277379147 131.007175349 206 118 c 0
 208 87 214 57 226 31 c 1
 233.410689517 38.4106895173 239.105181562 51.8280701886 242.288588221 59.328823308 c 0
 242.541738067 59.9252957997 242.779008569 60.4843533277 243 61 c 0
 244 63 244 64 244 65 c 0
 282 137 315 211 325 289 c 0
 325 289.111111111 325.197530864 289.901234568 325.548696845 291.305898491 c 0
 328.358024691 302.543209877 341 353.111111111 341 410 c 0
 341 417 344 453 344 453 c 2
 345 466 356 475 369 475 c 0
 383 475 394 464 394 450 c 2
 394 450 392 427 391 409 c 0
 391 366 384 323 374 281 c 1
 363 195 327 116 289 43 c 0
 281 21 261 -21 225 -21 c 0
 205 -21 190 -8 186 0 c 0
 167 36 159 75 156 113 c 0
 149 154 143 183 125 260 c 0
 107.347469188 353.694202002 77.248903184 394.377513371 59.7417971121 418.041333349 c 0
 51.4630958843 429.231400667 46 436.615700334 46 444 c 0
 46 459 58 469 71 469 c 0
 78 469 85 466 90 460 c 0
EndSplineSet
EndUndoOperation
EndUndoes
Redoes
EndRedoes
EndUndoRedoHistory
Fore
SplineSet
90 460 m 0
 137 405 161 336 174 270 c 0
 174 269 177 259 180 244 c 0
 189 204 205 131 206 118 c 0
 208 87 214 57 226 31 c 1
 233 38 239 51 242 59 c 0
 242 60 243 60 243 61 c 0
 244 63 244 64 244 65 c 0
 282 137 315 211 325 289 c 0
 325 289 326 290 326 291 c 0
 329 302 341 353 341 410 c 0
 341 417 344 453 344 453 c 2
 345 466 356 475 369 475 c 0
 383 475 394 464 394 450 c 2
 394 450 392 427 391 409 c 0
 391 366 384 323 374 281 c 1
 363 195 327 116 289 43 c 0
 281 21 261 -21 225 -21 c 0
 205 -21 190 -8 186 0 c 0
 167 36 159 75 156 113 c 0
 149 154 143 183 125 260 c 0
 107 354 78 394 60 418 c 0
 52 429 46 437 46 444 c 0
 46 459 58 469 71 469 c 0
 78 469 85 466 90 460 c 0
EndSplineSet
Validated: 1
EndChar

StartChar: w
Encoding: 119 119 48
Width: 552
Flags: W
HStem: 448 20G<68 81 461 480.5>
VStem: 443 50<291.488 467.839>
LayerCount: 2
UndoRedoHistory
Layer: 1
Undoes
UndoOperation
Index: 0
Type: 12
WasModified: 0
WasOrder2: 0
Layer: 0
CopiedFrom: Writing
EndUndoOperation
UndoOperation
Index: 1
Type: 1
WasModified: 1
WasOrder2: 0
Layer: 2
Width: 552
VWidth: 1024
LBearingChange: 0
UnicodeEnc: 0
InstructionsLength: 0
SplineSet
468 468 m 0
 493 468 493 443 493 434 c 0
 493 354.723021887 472.870234369 287.415093609 452.331538057 218.739823185 c 0
 433.490809046 155.742048635 414.305968401 91.5936674879 410 16 c 0
 409 -15 382 -15 382 -15 c 1
 374 -15 366 -11 357 -0 c 0
 333 31 281 163 268 197 c 1
 267.5 194 266.75 191.25 266 188.5 c 0
 265.25 185.75 264.5 183 264 180 c 0
 244 87 222 -14 155 -14 c 0
 125 -14 121 3 120 10 c 0
 107.934763643 129.848014475 69.9904289157 335.744031034 55.6045902526 413.805404276 c 0
 52.1053603128 432.793153324 50 444.217396362 50 445 c 0
 50 459 61 470 75 470 c 0
 87 470 98 461 100 449 c 0
 104.248076809 424.927564747 107.994871491 402.860258004 112.305126536 377.47436732 c 0
 114.08269227 367.005128509 115.956089611 355.971475137 118 344 c 0
 118.258864154 342.596683798 118.517542683 341.194481346 118.776020412 339.793367354 c 0
 137.489180074 238.356118245 155.149868721 142.623932656 166 43 c 1
 187.815539727 67.11191233 201.061922866 127.807531632 213.496813197 184.784848511 c 0
 222.721979803 227.055043657 231.500515069 267.278750686 243 289 c 0
 248 298 256 303 265 303 c 0
 275 303 285 296 289 285 c 0
 296 262 334 163 368 87 c 1
 376.614967958 139.920517454 390.78363933 187.455625536 404.499501858 233.471585011 c 0
 424.217671181 299.624951495 443 362.638624899 443 434 c 0
 443 439 443 443 443 443 c 2
 443 457 454 468 468 468 c 0
EndSplineSet
EndUndoOperation
EndUndoes
Redoes
EndRedoes
EndUndoRedoHistory
Fore
SplineSet
468 468 m 0
 493 468 493 443 493 434 c 0
 493 355 473 288 452 219 c 0
 433 156 414 92 410 16 c 0
 409 -15 382 -15 382 -15 c 1
 374 -15 366 -11 357 -0 c 0
 333 31 281 163 268 197 c 1
 268 194 267 191 266 188 c 0
 265 185 264 183 264 180 c 0
 244 87 222 -14 155 -14 c 0
 125 -14 121 3 120 10 c 0
 108 130 70 336 56 414 c 0
 53 433 50 444 50 445 c 0
 50 459 61 470 75 470 c 0
 87 470 98 461 100 449 c 0
 104 425 108 402 112 377 c 0
 114 367 116 356 118 344 c 0
 118 343 119 341 119 340 c 0
 138 239 155 143 166 43 c 1
 188 67 201 128 213 185 c 0
 222 227 232 267 243 289 c 0
 248 298 256 303 265 303 c 0
 275 303 285 296 289 285 c 0
 296 262 334 163 368 87 c 1
 377 140 390 187 404 233 c 0
 424 299 443 363 443 434 c 0
 443 439 443 443 443 443 c 2
 443 457 454 468 468 468 c 0
EndSplineSet
Validated: 1
EndChar

StartChar: x
Encoding: 120 120 49
Width: 431
Flags: W
HStem: 473 10G<74 81.5 339.5 351>
VStem: 247 49<95.3981 226.207>
LayerCount: 2
UndoRedoHistory
Layer: 1
Undoes
UndoOperation
Index: 0
Type: 12
WasModified: 0
WasOrder2: 0
Layer: 0
CopiedFrom: Writing
EndUndoOperation
UndoOperation
Index: 1
Type: 1
WasModified: 1
WasOrder2: 0
Layer: 2
Width: 431
VWidth: 1024
LBearingChange: 0
UnicodeEnc: 0
InstructionsLength: 0
SplineSet
344 493 m 0
 358 493 369 482 369 468 c 0
 369 463 367 459 365 455 c 0
 331 401 299 346 267 291 c 1
 279.572305986 244.579177897 287.468195469 198.158355793 295.210233003 152.642046601 c 0
 295.473607368 151.093639094 295.736803684 149.546278357 296 148 c 0
 312.061941498 93.0187387191 340.717872396 58.2641876866 360.277675294 34.5416232223 c 0
 372.379977218 19.8636819846 381 9.40912642494 381 1 c 0
 381 -13 370 -24 356 -24 c 0
 349 -24 343 -21 338 -16 c 0
 298 26 263 77 247 135 c 0
 247 136 238 190 230 228 c 1
 229 226 139 68 132 57 c 0
 102 8 91 0 78 0 c 0
 64 0 53 11 53 25 c 0
 53 32 56 38 60 43 c 0
 69 52 70 53 96 94 c 0
 121.333333333 139.333333333 147.555555556 184.666666667 173.777777778 230 c 0
 186.888888889 252.666666667 200 275.333333333 213 298 c 1
 197 350 182 375 165 402 c 0
 155 418 139 421 110 426 c 0
 76 431 56 435 56 458 c 0
 56 472 67 483 81 483 c 0
 82 483 135 473 144 471 c 0
 166 466 191 454 207 429 c 0
 223 405 236 380 246 354 c 1
 271 397 296 439 322 481 c 0
 326 488 335 493 344 493 c 0
EndSplineSet
EndUndoOperation
EndUndoes
Redoes
EndRedoes
EndUndoRedoHistory
Fore
SplineSet
344 493 m 0
 358 493 369 482 369 468 c 0
 369 463 367 459 365 455 c 0
 331 401 299 346 267 291 c 1
 280 245 287 199 295 153 c 0
 295 151 296 150 296 148 c 0
 312 93 340 59 360 35 c 0
 372 20 381 9 381 1 c 0
 381 -13 370 -24 356 -24 c 0
 349 -24 343 -21 338 -16 c 0
 298 26 263 77 247 135 c 0
 247 136 238 190 230 228 c 1
 229 226 139 68 132 57 c 0
 102 8 91 0 78 0 c 0
 64 0 53 11 53 25 c 0
 53 32 56 38 60 43 c 0
 69 52 70 53 96 94 c 0
 121 139 148 185 174 230 c 0
 187 253 200 275 213 298 c 1
 197 350 182 375 165 402 c 0
 155 418 139 421 110 426 c 0
 76 431 56 435 56 458 c 0
 56 472 67 483 81 483 c 0
 82 483 135 473 144 471 c 0
 166 466 191 454 207 429 c 0
 223 405 236 380 246 354 c 1
 271 397 296 439 322 481 c 0
 326 488 335 493 344 493 c 0
EndSplineSet
Validated: 1
EndChar

StartChar: y
Encoding: 121 121 50
Width: 418
Flags: W
HStem: -204 50<72.8843 173.589> 23 50<194.582 243.821> 473 13G<73 86 337 349.5>
VStem: 320 47<419.259 492.862>
LayerCount: 2
UndoRedoHistory
Layer: 1
Undoes
UndoOperation
Index: 0
Type: 12
WasModified: 0
WasOrder2: 0
Layer: 0
CopiedFrom: Writing
EndUndoOperation
UndoOperation
Index: 1
Type: 1
WasModified: 1
WasOrder2: 0
Layer: 2
Width: 418
VWidth: 1024
LBearingChange: 0
UnicodeEnc: 0
InstructionsLength: 0
SplineSet
45 -161 m 0
 45 -145 57 -136 70 -136 c 0
 79 -136 87 -140 92 -150 c 0
 93 -152 101 -154 112 -154 c 0
 135 -154 172 -145 201 -105 c 0
 248.280780525 -38.5944093756 258.308394615 82.279826111 268.265084264 202.299128656 c 0
 277.050584759 308.200756518 285.780864925 413.436750949 320 480 c 0
 324 488 332 493 342 493 c 0
 357 493 367 481 367 468 c 0
 367 464 366 461 364 457 c 0
 335.5434448 401.441963658 327.285372304 307.667479928 318.503560254 207.945675403 c 0
 301.36262069 13.3018576191 282.226343715 -204 107 -204 c 0
 63 -204 45 -176 45 -161 c 0
80 486 m 0
 92 486 101 479 104 468 c 0
 113 434 120 403 138 300 c 0
 157 193 178 78 222 73 c 0
 234 72 244 61 244 48 c 0
 244 34 233 23 219 23 c 0
 205 23 164 30 134 103 c 0
 114.084354627 151.935585773 102.263258859 219.326744645 89.693292569 290.987156829 c 0
 80.1726455794 345.263633935 70.2223915056 401.989268025 56 455 c 0
 55 457 55 459 55 461 c 0
 55 474 66 486 80 486 c 0
EndSplineSet
EndUndoOperation
EndUndoes
Redoes
EndRedoes
EndUndoRedoHistory
Fore
SplineSet
45 -161 m 0
 45 -145 57 -136 70 -136 c 0
 79 -136 87 -140 92 -150 c 0
 93 -152 101 -154 112 -154 c 0
 135 -154 172 -145 201 -105 c 0
 248 -39 258 82 268 202 c 0
 277 308 286 413 320 480 c 0
 324 488 332 493 342 493 c 0
 357 493 367 481 367 468 c 0
 367 464 366 461 364 457 c 0
 336 401 328 308 319 208 c 0
 302 13 282 -204 107 -204 c 0
 63 -204 45 -176 45 -161 c 0
80 486 m 0
 92 486 101 479 104 468 c 0
 113 434 120 403 138 300 c 0
 157 193 178 78 222 73 c 0
 234 72 244 61 244 48 c 0
 244 34 233 23 219 23 c 0
 205 23 164 30 134 103 c 0
 114 152 103 219 90 291 c 0
 80 345 70 402 56 455 c 0
 55 457 55 459 55 461 c 0
 55 474 66 486 80 486 c 0
EndSplineSet
Validated: 1
EndChar

StartChar: z
Encoding: 122 122 51
Width: 475
Flags: W
HStem: -2 50<116 372.117> 433 50<177.203 362>
LayerCount: 2
UndoRedoHistory
Layer: 1
Undoes
UndoOperation
Index: 0
Type: 12
WasModified: 0
WasOrder2: 0
Layer: 0
CopiedFrom: Writing
EndUndoOperation
UndoOperation
Index: 1
Type: 1
WasModified: 1
WasOrder2: 0
Layer: 2
Width: 475
VWidth: 1024
LBearingChange: 0
UnicodeEnc: 0
InstructionsLength: 0
SplineSet
158 48 m 0
 244.191477601 48 331.056784755 54.0644659683 362.176938569 56.2371068063 c 0
 368.967912878 56.7112159063 373.104356076 57 374 57 c 0
 388 57 399 46 399 32 c 0
 399 19 389 8 376 7 c 0
 293 1 221 -2 159 -2 c 0
 128 -2 99 -2 73 0 c 0
 59 1 50 12 50 25 c 0
 50 29 51 32 53 36 c 0
 122.399036112 171.080266718 207.53988303 258.93510102 272.7365707 326.210027211 c 0
 312.75790086 367.507095035 345.263907044 401.049277084 362 433 c 1
 158.18097247 430.102099135 150.3112982 429.070382586 108.550248466 423.595497017 c 0
 107.078918963 423.402605298 105.565520065 423.204198269 104 423 c 0
 103 423 102 423 101 423 c 0
 87 423 76 434 76 448 c 0
 76 461 86 471 98 473 c 0
 176 483 394 483 397 483 c 0
 412 483 422 471 422 458 c 0
 422 410.797095161 374.598795533 361.275653148 311.962044484 295.837184446 c 0
 251.190758095 232.347621916 176.077909781 153.875004943 116 48 c 1
 130 48 144 48 158 48 c 0
EndSplineSet
EndUndoOperation
EndUndoes
Redoes
EndRedoes
EndUndoRedoHistory
Fore
SplineSet
158 48 m 0
 244 48 331 54 362 56 c 0
 369 56 373 57 374 57 c 0
 388 57 399 46 399 32 c 0
 399 19 389 8 376 7 c 0
 293 1 221 -2 159 -2 c 0
 128 -2 99 -2 73 0 c 0
 59 1 50 12 50 25 c 0
 50 29 51 32 53 36 c 0
 122 171 208 259 273 326 c 0
 313 367 345 401 362 433 c 1
 158 430 151 429 109 424 c 0
 108 424 106 423 104 423 c 0
 103 423 102 423 101 423 c 0
 87 423 76 434 76 448 c 0
 76 461 86 471 98 473 c 0
 176 483 394 483 397 483 c 0
 412 483 422 471 422 458 c 0
 422 411 375 361 312 296 c 0
 251 233 176 154 116 48 c 1
 130 48 144 48 158 48 c 0
EndSplineSet
Validated: 1
EndChar

StartChar: two
Encoding: 50 50 53
Width: 501
Flags: W
HStem: 7 51<104 453.061> 769 50<188.741 341.366>
VStem: 87 50<637.198 720.581> 370 50<583.049 740.258>
LayerCount: 2
UndoRedoHistory
Layer: 1
Undoes
UndoOperation
Index: 0
Type: 12
WasModified: 0
WasOrder2: 0
Layer: 0
CopiedFrom: Writing
EndUndoOperation
UndoOperation
Index: 1
Type: 1
WasModified: 1
WasOrder2: 0
Layer: 2
Width: 501
VWidth: 1024
LBearingChange: 0
UnicodeEnc: 0
InstructionsLength: 0
SplineSet
87 663 m 0
 87 759 182 819 264 819 c 0
 297 819 420 811 420 683 c 0
 420 571.841894315 334.303027106 433.103153675 271.424717798 331.306588961 c 0
 270.9484872 330.535597511 270.473565552 329.76672518 270 329 c 0
 237 275 203 219 169 154 c 0
 160.42227388 137.988244576 146.28536753 118.379372532 132.386296203 99.1003942021 c 0
 121.979850312 84.6659301929 111.706728656 70.4163961678 104 58 c 1
 110 58 116 58 122 58 c 0
 134 58 144 58 155 58 c 0
 202.625662255 58 245.224834305 56.2407284281 287.711309343 54.4861110463 c 0
 329.973579782 52.7407529238 372.124339495 51 419 51 c 0
 423 51 426 51 430 51 c 0
 444 51 455 40 455 26 c 0
 455 1 431 1 420 1 c 0
 416.485281374 1 327.184125122 3.40202025355 253.204625011 5.39191898579 c 0
 200.893218813 6.79898987322 156.242640687 8 155 8 c 0
 121.383024262 8 93.7100383077 7.25700127692 86.0708406267 7.05189460243 c 0
 84.8475900055 7.01905124931 84.1380262631 7 84 7 c 0
 46 7 46 42 46 42 c 1
 46 66.3953673134 71.6485776735 101.658776014 94.5696721558 133.172255353 c 0
 106.412575483 149.45468417 117.527350783 164.736033062 124 177 c 0
 158.394782431 242.882963529 193.72826834 299.848244015 226.703596617 353.011660421 c 0
 261.798136565 409.591707938 294.221677768 461.865523313 320 516 c 0
 362 604 370 656 370 683 c 0
 370 716 355 769 265 769 c 0
 224 769 141 745 137 661 c 0
 136 648 125 637 112 637 c 0
 99 637 87 648 87 663 c 0
EndSplineSet
EndUndoOperation
EndUndoes
Redoes
EndRedoes
EndUndoRedoHistory
Fore
SplineSet
87 663 m 0
 87 759 182 819 264 819 c 0
 297 819 420 811 420 683 c 0
 420 572 334 433 271 331 c 0
 271 330 270 330 270 329 c 0
 237 275 203 219 169 154 c 0
 160 138 146 118 132 99 c 0
 122 85 112 70 104 58 c 1
 110 58 116 58 122 58 c 0
 134 58 144 58 155 58 c 0
 203 58 246 56 288 54 c 0
 330 52 372 51 419 51 c 0
 423 51 426 51 430 51 c 0
 444 51 455 40 455 26 c 0
 455 1 431 1 420 1 c 0
 416 1 327 3 253 5 c 0
 201 6 156 8 155 8 c 0
 121 8 94 7 86 7 c 0
 85 7 84 7 84 7 c 0
 46 7 46 42 46 42 c 1
 46 66 72 101 95 133 c 0
 107 149 118 165 124 177 c 0
 158 243 194 300 227 353 c 0
 262 410 294 462 320 516 c 0
 362 604 370 656 370 683 c 0
 370 716 355 769 265 769 c 0
 224 769 141 745 137 661 c 0
 136 648 125 637 112 637 c 0
 99 637 87 648 87 663 c 0
EndSplineSet
Validated: 1
EndChar

StartChar: one
Encoding: 49 49 54
Width: 246
Flags: W
HStem: 799 20G<146.5 155>
VStem: 127 50<241.224 721>
LayerCount: 2
UndoRedoHistory
Layer: 1
Undoes
UndoOperation
Index: 0
Type: 12
WasModified: 0
WasOrder2: 0
Layer: 0
CopiedFrom: Writing
EndUndoOperation
UndoOperation
Index: 1
Type: 1
WasModified: 1
WasOrder2: 0
Layer: 2
Width: 246
VWidth: 1024
LBearingChange: 0
UnicodeEnc: 0
InstructionsLength: 0
SplineSet
140 817 m 1
 140 817 145 819 148 819 c 0
 162 819 173 808 173 794 c 0
 177 556 177 542 177 457 c 0
 177 190 166 83 150 5 c 0
 148 -6 137 -15 125 -15 c 0
 111 -15 100 -4 100 10 c 0
 100 10.3753541012 100.237753058 11.3230766762 100.668638382 13.0406560485 c 0
 104.829527307 29.6266398137 127 118.001769933 127 456 c 0
 127 544 126 633 124 721 c 1
 113 705 102 689 95 673 c 0
 91 664 82 659 72 659 c 0
 58 659 47 670 47 684 c 0
 47 698.449996585 65.4877126144 725.225134912 84.3477515009 752.539500976 c 0
 96.812352079 770.59156678 109.439580629 788.879161259 117 804 c 0
 121 812 129 817 139 817 c 2
 140 817 l 1
EndSplineSet
EndUndoOperation
EndUndoes
Redoes
EndRedoes
EndUndoRedoHistory
Fore
SplineSet
140 817 m 1
 140 817 145 819 148 819 c 0
 162 819 173 808 173 794 c 0
 177 556 177 542 177 457 c 0
 177 190 166 83 150 5 c 0
 148 -6 137 -15 125 -15 c 0
 111 -15 100 -4 100 10 c 0
 100 10 101 11 101 13 c 0
 105 30 127 118 127 456 c 0
 127 544 126 633 124 721 c 1
 113 705 102 689 95 673 c 0
 91 664 82 659 72 659 c 0
 58 659 47 670 47 684 c 0
 47 698 65 726 84 753 c 0
 96 771 109 789 117 804 c 0
 121 812 129 817 139 817 c 2
 140 817 l 1
EndSplineSet
Validated: 1
EndChar

StartChar: three
Encoding: 51 51 55
Width: 497
Flags: W
HStem: -10 50<96.1511 182 182.02 297.32> 769 50<178.076 329.169>
VStem: 371 50<608.296 724.796> 396 50<125.793 302.124>
LayerCount: 2
UndoRedoHistory
Layer: 1
Undoes
UndoOperation
Index: 0
Type: 12
WasModified: 0
WasOrder2: 0
Layer: 0
CopiedFrom: Writing
EndUndoOperation
UndoOperation
Index: 1
Type: 1
WasModified: 1
WasOrder2: 0
Layer: 2
Width: 497
VWidth: 1024
LBearingChange: 0
UnicodeEnc: 0
InstructionsLength: 0
SplineSet
261 819 m 0
 373 819 421 722 421 668 c 0
 421 580.062596124 327.278657739 511.650471885 264.270416907 465.657451556 c 0
 263.509053602 465.101692539 262.752174784 464.549206985 262 464 c 1
 374 437 446 316 446 198 c 0
 446 66 312 -9 216 -9 c 0
 210 -9 182 -10 182 -10 c 2
 144 -10 95 -6 60 26 c 0
 44 41 43 48 43 54 c 0
 43 69 55 79 68 79 c 0
 78.1506731559 79 82.9106313501 74.2218662839 89.0983560237 68.0105142758 c 0
 100.588672282 56.4763231588 117.002321227 40 182 40 c 2
 182 40 207 41 216 41 c 0
 286 41 396 96 396 198 c 0
 396 308 322 420 217 420 c 0
 209 420 196 418 196 418 c 2
 181 418 170 431 170 444 c 0
 170 459.118092292 179.820796329 466.200987588 226.457244492 499.835844505 c 0
 229.17776255 501.797920076 232.023561486 503.850349962 235 506 c 0
 235.185879623 506.134246395 235.372091014 506.268729766 235.558629686 506.403449503 c 0
 289.563551695 545.406240643 371 604.220301776 371 668 c 0
 371 693 345 769 263 769 c 0
 221 769 172 752 137 718 c 0
 132 714 126 710 119 710 c 0
 104 710 94 723 94 736 c 0
 94 763 179 819 261 819 c 0
EndSplineSet
EndUndoOperation
EndUndoes
Redoes
EndRedoes
EndUndoRedoHistory
Fore
SplineSet
261 819 m 0xe0
 373 819 421 722 421 668 c 0xe0
 421 580 327 512 264 466 c 0
 263 465 263 465 262 464 c 1
 374 437 446 316 446 198 c 0
 446 66 312 -9 216 -9 c 0
 210 -9 182 -10 182 -10 c 2
 144 -10 95 -6 60 26 c 0
 44 41 43 48 43 54 c 0
 43 69 55 79 68 79 c 0
 78 79 83 74 89 68 c 0
 100 56 117 40 182 40 c 2
 182 40 207 41 216 41 c 0
 286 41 396 96 396 198 c 0xd0
 396 308 322 420 217 420 c 0
 209 420 196 418 196 418 c 2
 181 418 170 431 170 444 c 0
 170 459 179 466 226 500 c 0
 229 502 232 504 235 506 c 0
 236 506 l 0
 290 545 371 604 371 668 c 0
 371 693 345 769 263 769 c 0
 221 769 172 752 137 718 c 0
 132 714 126 710 119 710 c 0
 104 710 94 723 94 736 c 0
 94 763 179 819 261 819 c 0xe0
EndSplineSet
Validated: 1
EndChar

StartChar: four
Encoding: 52 52 56
Width: 500
Flags: W
HStem: -22 21G<380 393.5> 350 50<116.797 376> 799 20G<187 200>
VStem: 362 50<-21.8024 221.914> 372 48<33.2324 345.328> 385 50<510.891 808.873>
LayerCount: 2
UndoRedoHistory
Layer: 1
Undoes
UndoOperation
Index: 0
Type: 12
WasModified: 0
WasOrder2: 0
Layer: 0
CopiedFrom: Writing
EndUndoOperation
UndoOperation
Index: 1
Type: 1
WasModified: 1
WasOrder2: 0
Layer: 2
Width: 500
VWidth: 1024
LBearingChange: 0
UnicodeEnc: 0
InstructionsLength: 0
SplineSet
313 344 m 0
 293.361563911 344 267.938105242 345.446255645 242.055036316 346.918656982 c 0
 215.218899274 348.445275182 187.888681205 350 166 350 c 0
 125.847633175 350 105.610560849 344.905389779 92.6810382816 341.650428945 c 0
 86.6118842629 340.122541235 82.1528683267 339 78 339 c 0
 73 339 69 341 63 345 c 0
 54 351 51 358 51 367 c 0
 51 380 58 396 68 415 c 0
 69.0717967697 417.143593539 70.1435935394 419.215390309 71.1384387633 421.138438763 c 0
 73.8564064606 426.392304845 76 430.535898385 76 432 c 0
 111 554 143 676 168 799 c 0
 170 810 181 819 193 819 c 0
 207 819 218 808 218 794 c 0
 218 774 136 439 116 397 c 1
 133 399 150 400 167 400 c 0
 187.876466314 400 213.200145339 398.517595763 238.672792337 397.026471199 c 0
 264.446901271 395.517699576 290.373525035 394 312 394 c 0
 335 394 357 396 378 401 c 1
 382 510 385 619 385 728 c 0
 385 761 385 782 385 784 c 0
 385 798 396 809 410 809 c 0
 424 809 435 798 435 784 c 0
 435 765 435 746 435 727 c 0
 435 573.222222222 428.679012346 419.444444444 422.358024691 265.666666667 c 0
 421.567901235 246.444444444 420.777777778 227.222222222 420 208 c 0
 419.879935932 205.238526428 419.759871863 202.478654564 419.639871897 199.720256205 c 0
 416.761473572 133.555493859 413.919957288 68.2385264278 412 2 c 0
 412 -11 400 -22 387 -22 c 0
 373 -22 362 -11 362 3 c 0
 362 9.46110632135 367.844425285 150.761453156 371.980985225 250.770833997 c 0
 374.246672414 305.548227846 376 347.938331896 376 349 c 1
 355 345 334 344 313 344 c 0
EndSplineSet
EndUndoOperation
EndUndoes
Redoes
EndRedoes
EndUndoRedoHistory
Fore
SplineSet
313 344 m 0xe8
 293 344 268 346 242 347 c 0
 215 349 188 350 166 350 c 0
 126 350 106 345 93 342 c 0
 87 340 82 339 78 339 c 0
 73 339 69 341 63 345 c 0
 54 351 51 358 51 367 c 0
 51 380 58 396 68 415 c 0
 69 417 70 419 71 421 c 0
 74 426 76 431 76 432 c 0
 111 554 143 676 168 799 c 0
 170 810 181 819 193 819 c 0
 207 819 218 808 218 794 c 0
 218 774 136 439 116 397 c 1
 133 399 150 400 167 400 c 0
 188 400 214 398 239 397 c 0
 265 395 290 394 312 394 c 0
 335 394 357 396 378 401 c 1
 382 510 385 619 385 728 c 0
 385 761 385 782 385 784 c 0
 385 798 396 809 410 809 c 0
 424 809 435 798 435 784 c 0
 435 765 435 746 435 727 c 0xe4
 435 573 428 420 422 266 c 0
 421 247 421 227 420 208 c 0
 420 205 420 203 420 200 c 0xe8
 417 134 414 68 412 2 c 0
 412 -11 400 -22 387 -22 c 0
 373 -22 362 -11 362 3 c 0xf0
 362 9 368 151 372 251 c 0
 374 306 376 348 376 349 c 1
 355 345 334 344 313 344 c 0xe8
EndSplineSet
Validated: 1
EndChar

StartChar: five
Encoding: 53 53 57
Width: 565
Flags: W
HStem: 14 51<160.713 342.764> 450 49<149.859 385.463> 769 50<127.207 492.873>
VStem: 76 50<472.405 769> 460 51<190.367 375.369>
LayerCount: 2
UndoRedoHistory
Layer: 1
Undoes
UndoOperation
Index: 0
Type: 12
WasModified: 0
WasOrder2: 0
Layer: 0
CopiedFrom: Writing
EndUndoOperation
UndoOperation
Index: 1
Type: 1
WasModified: 1
WasOrder2: 0
Layer: 2
Width: 565
VWidth: 1024
LBearingChange: 0
UnicodeEnc: 0
InstructionsLength: 0
SplineSet
71 431 m 0
 71 432.590301792 71.2580673254 434.95480556 71.6569434248 438.609448931 c 0
 73.0137923772 451.041377132 76 478.402063591 76 541 c 0
 76 561.876466314 75.7529326271 583 75.5044118665 604.247794067 c 0
 75.2529499294 625.747050071 75 647.373525035 75 669 c 0
 75 714 76 758 82 798 c 0
 84 810 94 819 107 819 c 2
 468 819 l 2
 482 819 493 808 493 794 c 0
 493 780 482 769 468 769 c 2
 129 769 l 1
 126 738 125 704 125 669 c 0
 125 648 125.25 626.5 125.5 605 c 0
 125.75 583.5 126 562 126 541 c 0
 126 518 125 494 124 472 c 1
 174 492 224 499 268 499 c 0
 330 499 379 486 398 477 c 0
 471 443 511 366 511 282 c 0
 511 138 391 14 260 14 c 0
 191 14 123 44 63 80 c 0
 56 84 51 93 51 102 c 0
 51 117 63 127 76 127 c 0
 81.1701959933 127 91.7975707754 121.265337544 106.588130867 113.284168968 c 0
 140.430063988 95.0226446224 196.067496671 65 258 65 c 0
 362 65 460 161 460 287 c 0
 460 347 431 409 378 431 c 0
 347 444 309 450 271 450 c 0
 192.422887428 450 142.428290261 425.731826543 115.867714423 412.838900146 c 0
 106.260231629 408.175275032 99.7188824672 405 96 405 c 0
 83 405 71 416 71 431 c 0
EndSplineSet
EndUndoOperation
EndUndoes
Redoes
EndRedoes
EndUndoRedoHistory
Fore
SplineSet
71 431 m 0
 71 433 72 435 72 439 c 0
 73 451 76 478 76 541 c 0
 76 562 76 583 76 604 c 0
 76 625 75 647 75 669 c 0
 75 714 76 758 82 798 c 0
 84 810 94 819 107 819 c 2
 468 819 l 2
 482 819 493 808 493 794 c 0
 493 780 482 769 468 769 c 2
 129 769 l 1
 126 738 125 704 125 669 c 0
 125 648 126 627 126 605 c 0
 126 583 126 562 126 541 c 0
 126 518 125 494 124 472 c 1
 174 492 224 499 268 499 c 0
 330 499 379 486 398 477 c 0
 471 443 511 366 511 282 c 0
 511 138 391 14 260 14 c 0
 191 14 123 44 63 80 c 0
 56 84 51 93 51 102 c 0
 51 117 63 127 76 127 c 0
 81 127 92 121 107 113 c 0
 141 95 196 65 258 65 c 0
 362 65 460 161 460 287 c 0
 460 347 431 409 378 431 c 0
 347 444 309 450 271 450 c 0
 192 450 143 426 116 413 c 0
 106 408 100 405 96 405 c 0
 83 405 71 416 71 431 c 0
EndSplineSet
Validated: 1
EndChar

StartChar: six
Encoding: 54 54 58
Width: 596
Flags: W
HStem: -9 50<199.124 378.869> 404 50<215.879 407.28> 799 20G<418 427>
VStem: 68 50<142.974 319.1> 494 50<152.265 321.86>
LayerCount: 2
UndoRedoHistory
Layer: 1
Undoes
UndoOperation
Index: 0
Type: 12
WasModified: 0
WasOrder2: 0
Layer: 0
CopiedFrom: Writing
EndUndoOperation
UndoOperation
Index: 1
Type: 1
WasModified: 1
WasOrder2: 0
Layer: 2
Width: 596
VWidth: 1024
LBearingChange: 0
UnicodeEnc: 0
InstructionsLength: 0
SplineSet
494 240 m 0
 494 349 405 404 313 404 c 0
 250 404 185 378 148 327 c 0
 143 321 136 317 128 317 c 0
 125.626136458 317 123.878409373 317.626136458 121.765910406 318.382955203 c 0
 121.208712153 318.582575695 120.626136458 318.791287847 120 319 c 1
 119 305 118 290 118 276 c 0
 118 160 164 90 165 89 c 0
 176 77 215 41 286 41 c 0
 397 41 494 126 494 240 c 0
420 819 m 0
 434 819 445 807 445 794 c 0
 445 785 440 776 432 772 c 0
 357 731 215 637 154 478 c 0
 153.79830849 477.394925471 153.484748452 476.505094687 153.072652527 475.335635587 c 0
 149.398350108 464.90858175 137.890696697 432.251791977 128 381 c 1
 152 405 213 454 311 454 c 0
 418 454 544 390 544 240 c 0
 544 98 424 -9 286 -9 c 0
 205 -9 132 33 113 79 c 0
 112.561552813 79.8768943744 112.315341562 80.7537887488 112.092795636 81.5463978178 c 0
 111.807764064 82.5615528128 111.561552813 83.4384471872 111 84 c 0
 87 131 68 193 68 276 c 0
 68 278 69 395 108 496 c 0
 136 569 212 710 408 816 c 0
 412 818 416 819 420 819 c 0
EndSplineSet
EndUndoOperation
EndUndoes
Redoes
EndRedoes
EndUndoRedoHistory
Fore
SplineSet
494 240 m 0
 494 349 405 404 313 404 c 0
 250 404 185 378 148 327 c 0
 143 321 136 317 128 317 c 0
 126 317 124 317 122 318 c 0
 121 318 121 319 120 319 c 1
 119 305 118 290 118 276 c 0
 118 160 164 90 165 89 c 0
 176 77 215 41 286 41 c 0
 397 41 494 126 494 240 c 0
420 819 m 0
 434 819 445 807 445 794 c 0
 445 785 440 776 432 772 c 0
 357 731 215 637 154 478 c 0
 154 477 153 476 153 475 c 0
 149 465 138 432 128 381 c 1
 152 405 213 454 311 454 c 0
 418 454 544 390 544 240 c 0
 544 98 424 -9 286 -9 c 0
 205 -9 132 33 113 79 c 0
 113 80 112 81 112 82 c 0
 112 83 112 83 111 84 c 0
 87 131 68 193 68 276 c 0
 68 278 69 395 108 496 c 0
 136 569 212 710 408 816 c 0
 412 818 416 819 420 819 c 0
EndSplineSet
Validated: 1
EndChar

StartChar: seven
Encoding: 55 55 59
Width: 560
Flags: W
HStem: 760 50<106.94 451.961> 799 20G<481 495.5>
VStem: 53 50<680.179 760.334> 186 50<-33.8024 141.931>
LayerCount: 2
UndoRedoHistory
Layer: 1
Undoes
UndoOperation
Index: 0
Type: 12
WasModified: 0
WasOrder2: 0
Layer: 0
CopiedFrom: Writing
EndUndoOperation
UndoOperation
Index: 1
Type: 1
WasModified: 1
WasOrder2: 0
Layer: 2
Width: 560
VWidth: 1024
LBearingChange: 0
UnicodeEnc: 0
InstructionsLength: 0
SplineSet
137 810 m 0
 137.632690166 810 149.740556595 810.133432282 168.849270771 810.344015985 c 0
 240.34753232 811.13194805 409.857662327 813 443 813 c 0
 444 813 444 813 445 813 c 0
 447.373863542 813 451.939204686 813.939204686 457.457388007 815.074432804 c 0
 465.886552263 816.808522399 476.539014932 819 485 819 c 0
 506 819 517 805 517 790 c 0
 517 782 517 783 462 667 c 0
 356 445 244 206 236 -10 c 0
 236 -23 224 -34 211 -34 c 0
 197 -34 186 -23 186 -9 c 0
 194 218 309 461 417 688 c 0
 423 700.5 428.75 713 434.5 725.5 c 0
 440.25 738 446 750.5 452 763 c 1
 450 763 447 763 445 763 c 0
 442 763 439 763 436 763 c 0
 415.75 763 259.375 761.3125 181.1875 760.46875 c 0
 155.125 760.1875 137.75 760 137 760 c 0
 132.5 760 128 760.25 123.5 760.5 c 0
 119 760.75 114.5 761 110 761 c 1
 109 757 109 757 103 702 c 0
 102 690 91 680 78 680 c 0
 64 680 53 691 53 705 c 0
 53 706 55 760 67 789 c 0
 68 798 79 811 94 811 c 0
 101 811 108.25 810.75 115.5 810.5 c 0
 122.75 810.25 130 810 137 810 c 0
EndSplineSet
EndUndoOperation
EndUndoes
Redoes
EndRedoes
EndUndoRedoHistory
Fore
SplineSet
137 810 m 0xb0
 138 810 150 810 169 810 c 0xb0
 240 811 410 813 443 813 c 0
 444 813 444 813 445 813 c 0
 447 813 451 814 457 815 c 0
 465 817 477 819 485 819 c 0x70
 506 819 517 805 517 790 c 0
 517 782 517 783 462 667 c 0
 356 445 244 206 236 -10 c 0
 236 -23 224 -34 211 -34 c 0
 197 -34 186 -23 186 -9 c 0
 194 218 309 461 417 688 c 0
 423 700 428 714 434 726 c 0
 440 738 446 751 452 763 c 1
 450 763 447 763 445 763 c 0
 442 763 439 763 436 763 c 0
 416 763 259 761 181 760 c 0
 155 760 138 760 137 760 c 0
 133 760 128 760 124 760 c 0
 120 760 114 761 110 761 c 1
 109 757 109 757 103 702 c 0
 102 690 91 680 78 680 c 0
 64 680 53 691 53 705 c 0
 53 706 55 760 67 789 c 0
 68 798 79 811 94 811 c 0
 101 811 109 810 116 810 c 0
 123 810 130 810 137 810 c 0xb0
EndSplineSet
Validated: 1
EndChar

StartChar: eight
Encoding: 56 56 60
Width: 652
Flags: W
HStem: -29 50<208.134 438.343> 462 46<296.468 431.968> 769 49<266.596 454.6>
VStem: 70 50<130.839 355.003> 120 50<544.945 679.787> 488 50<548.622 736.661> 532 50<103.944 329.24>
LayerCount: 2
UndoRedoHistory
Layer: 1
Undoes
UndoOperation
Index: 0
Type: 12
WasModified: 0
WasOrder2: 0
Layer: 0
CopiedFrom: Writing
EndUndoOperation
UndoOperation
Index: 1
Type: 1
WasModified: 1
WasOrder2: 0
Layer: 2
Width: 652
VWidth: 1024
LBearingChange: 0
UnicodeEnc: 0
InstructionsLength: 0
SplineSet
399 462 m 0
 398.853607518 462 397.892846207 461.914276965 396.252620048 461.767929311 c 0
 386.688540224 460.914583181 354.022655623 458 325 458 c 0
 315 458 306 458 296 459 c 0
 292.382292737 455.938863085 283.730813996 454.271693656 272.136024167 452.037338153 c 0
 242.065677262 446.242679855 192.198881992 436.63317851 159 389 c 0
 158 388 120 329 120 242 c 0
 120 138 173 70 195 52 c 0
 228 25 274 21 305 21 c 0
 409 21 468 45 506 97 c 0
 508 99 532 140 532 210 c 0
 532 305 484 422 407 456 c 0
 404 457 401 460 399 462 c 0
325 508 m 0
 437 508 488 528 488 638 c 0
 488 639 486 699 475 723 c 0
 469 736 446 769 373 769 c 0
 363 769 351 768 339 767 c 0
 338.40201404 766.921317637 337.800313531 766.842387637 337.194972516 766.762980082 c 0
 299.332924447 761.796304134 247.228912841 754.961392806 199 690 c 0
 181 666 170 642 170 608 c 0
 170 598 172 553 205 534 c 0
 244 512 289 508 325 508 c 0
197 482 m 1
 154 502 120 539 120 608 c 0
 120 714 223 809 322 816 c 0
 337 817 353 818 371 818 c 0
 426 818 490 807 520 744 c 0
 538 707 538 639 538 638 c 0
 538 604 538 523 461 482 c 1
 534 428 582 317 582 210 c 0
 582 209 581 117 546 68 c 0
 520 32 467 -17 368 -25 c 0
 321 -29 321 -29 305 -29 c 0
 274 -29 199 -29 145 31 c 0
 124 55 70 127 70 242 c 0
 70 289 80 429 197 482 c 1
EndSplineSet
EndUndoOperation
EndUndoes
Redoes
EndRedoes
EndUndoRedoHistory
Fore
SplineSet
399 462 m 0xf2
 399 462 398 462 396 462 c 0
 386 461 354 458 325 458 c 0
 315 458 306 458 296 459 c 0
 292 456 284 454 272 452 c 0
 242 446 192 437 159 389 c 0
 158 388 120 329 120 242 c 0
 120 138 173 70 195 52 c 0
 228 25 274 21 305 21 c 0
 409 21 468 45 506 97 c 0
 508 99 532 140 532 210 c 0
 532 305 484 422 407 456 c 0
 404 457 401 460 399 462 c 0xf2
325 508 m 0
 437 508 488 528 488 638 c 0
 488 639 486 699 475 723 c 0
 469 736 446 769 373 769 c 0
 363 769 351 768 339 767 c 0
 338 767 338 767 337 767 c 0
 299 762 247 755 199 690 c 0
 181 666 170 642 170 608 c 0xec
 170 598 172 553 205 534 c 0
 244 512 289 508 325 508 c 0
197 482 m 1
 154 502 120 539 120 608 c 0
 120 714 223 809 322 816 c 0
 337 817 353 818 371 818 c 0
 426 818 490 807 520 744 c 0
 538 707 538 639 538 638 c 0xec
 538 604 538 523 461 482 c 1
 534 428 582 317 582 210 c 0
 582 209 581 117 546 68 c 0
 520 32 467 -17 368 -25 c 0
 321 -29 321 -29 305 -29 c 0
 274 -29 199 -29 145 31 c 0
 124 55 70 127 70 242 c 0xf2
 70 289 80 429 197 482 c 1
EndSplineSet
Validated: 1
EndChar

StartChar: nine
Encoding: 57 57 61
Width: 562
Flags: W
HStem: 337 50<164.343 362.689> 766 49<273 392.714>
VStem: 54 50<440.277 607.073> 439 50<4.37646 374.222> 441 40<155.942 396.738> 446 51<521.924 749.849 755 809.717>
LayerCount: 2
UndoRedoHistory
Layer: 1
Undoes
UndoOperation
Index: 0
Type: 12
WasModified: 0
WasOrder2: 0
Layer: 0
CopiedFrom: Writing
EndUndoOperation
UndoOperation
Index: 1
Type: 1
WasModified: 1
WasOrder2: 0
Layer: 2
Width: 562
VWidth: 1024
LBearingChange: 0
UnicodeEnc: 0
InstructionsLength: 0
SplineSet
257 387 m 0
 264 387 267 387 277 387 c 0
 303 387 318 387 348 401 c 0
 432 440 441 512 441 585 c 0
 441 660 440 663 407 722 c 0
 387 759 369 769 347 769 c 0
 339 769 330 768 320 766 c 0
 319.585786438 766 319 765.828427125 318.313708499 765.627416998 c 0
 317.343145751 765.343145751 316.171572875 765 315 765 c 0
 302.457255261 765 293.465145578 760.903113396 283.31326902 756.2778265 c 0
 274.039968517 752.052826812 263.798954712 747.386928179 249 745 c 0
 221 735 177 691 176 690 c 0
 131 630 104 578 104 496 c 0
 104 433 177 387 241 387 c 2
 241 387 256 387 257 387 c 0
347 819 m 0
 388 819 420 799 446 755 c 1
 446 760 446.25 765.25 446.5 770.5 c 0
 446.75 775.75 447 781 447 786 c 0
 448 799 459 810 472 810 c 0
 486 810 497 799 497 785 c 0
 497 782 493 548 484 467 c 0
 482 450 481 418 481 379 c 0
 481 328.129243809 483.613643566 278.238603954 485.85310992 235.490460791 c 0
 487.531660918 203.449372844 489 175.420923488 489 154 c 0
 489 112.895576201 486.597050801 83.8058983989 484.425068195 57.5122613164 c 0
 482.634005456 35.8299727219 481 16.0489918166 481 -7 c 0
 481 -20 470 -32 456 -32 c 0
 436 -32 431 -21 431 4 c 0
 431 12.053994957 431.648668348 22.053994957 432.423567883 34 c 0
 432.610798991 36.8863919312 432.805399496 39.8863919312 433 43 c 0
 433.076973718 43.9750004223 433.153947435 44.9493425164 433.230870479 45.9230431738 c 0
 436.151972451 82.8986850329 439 118.949342516 439 155 c 0
 439 174.653238798 437.601177745 200.950883309 435.973379524 231.553240951 c 0
 433.708357984 274.135299578 431 325.052015545 431 378 c 0
 431 385 431 391 431 398 c 1
 416 383 369 337 279 337 c 0
 273 337 259 337 259 337 c 2
 254 337 248 337 242 337 c 0
 147 337 54 405 54 496 c 0
 54 540 56 615 136 721 c 0
 136.044874341 721.044874341 136.176338058 721.184392884 136.390595876 721.411778349 c 0
 140.950955678 726.251552916 183.019345327 770.897486812 226 790 c 1
 226 790 240 793 273 806 c 0
 273.495934691 806.180339887 273.995934691 806.36271243 274.5 806.546567773 c 0
 285.176274578 810.440686445 297.676274578 815 312 815 c 2
 313 815 l 2
 323 817 335 819 347 819 c 0
EndSplineSet
EndUndoOperation
EndUndoes
Redoes
EndRedoes
EndUndoRedoHistory
Fore
SplineSet
257 387 m 0xe8
 264 387 267 387 277 387 c 0
 303 387 318 387 348 401 c 0
 432 440 441 512 441 585 c 0
 441 660 440 663 407 722 c 0
 387 759 369 769 347 769 c 0
 339 769 330 768 320 766 c 0
 320 766 319 766 318 766 c 0
 317 766 316 765 315 765 c 0
 302 765 293 761 283 756 c 0
 274 752 264 747 249 745 c 0
 221 735 177 691 176 690 c 0
 131 630 104 578 104 496 c 0
 104 433 177 387 241 387 c 2
 241 387 256 387 257 387 c 0xe8
347 819 m 0
 388 819 420 799 446 755 c 1
 446 760 446 765 446 770 c 0
 446 775 447 781 447 786 c 0
 448 799 459 810 472 810 c 0
 486 810 497 799 497 785 c 0xe4
 497 782 493 548 484 467 c 0
 482 450 481 418 481 379 c 0xe8
 481 328 484 278 486 235 c 0
 488 203 489 175 489 154 c 0xf0
 489 113 486 84 484 58 c 0
 482 36 481 16 481 -7 c 0xe8
 481 -20 470 -32 456 -32 c 0
 436 -32 431 -21 431 4 c 0
 431 12 431 22 432 34 c 0
 432 37 433 40 433 43 c 0
 433 44 433 45 433 46 c 0
 436 83 439 119 439 155 c 0xf0
 439 175 438 201 436 232 c 0
 434 275 431 325 431 378 c 0
 431 385 431 391 431 398 c 1
 416 383 369 337 279 337 c 0
 273 337 259 337 259 337 c 2
 254 337 248 337 242 337 c 0
 147 337 54 405 54 496 c 0
 54 540 56 615 136 721 c 0
 141 726 183 771 226 790 c 1
 226 790 240 793 273 806 c 0
 273 806 273 807 274 807 c 0
 285 811 298 815 312 815 c 2
 313 815 l 2
 323 817 335 819 347 819 c 0
EndSplineSet
Validated: 1
EndChar

StartChar: zero
Encoding: 48 48 62
Width: 643
Flags: W
HStem: -29 21G<83 94.5> -9 50<230.685 401.86> 766 49<292.063 399.824>
VStem: 68 50<186.747 477.598> 525 47<805 818.865> 535 50<218.184 535.258>
LayerCount: 2
UndoRedoHistory
Layer: 1
Undoes
UndoOperation
Index: 0
Type: 12
WasModified: 0
WasOrder2: 0
Layer: 0
CopiedFrom: Writing
EndUndoOperation
UndoOperation
Index: 1
Type: 1
WasModified: 1
WasOrder2: 0
Layer: 2
Width: 643
VWidth: 1024
LBearingChange: 0
UnicodeEnc: 0
InstructionsLength: 0
SplineSet
319 41 m 0
 449 41 535 181 535 374 c 0
 535 444 523 528 484 616 c 1
 414.808705025 488.737439599 368.134843302 412.616168281 310.026615083 317.846375449 c 0
 274.075011601 259.212235012 233.74644012 193.439615856 181 104 c 1
 192 90 237 41 319 41 c 0
456 670 m 1
 437 702 398 766 351 766 c 0
 345 766 327 766 296 747 c 1
 254 714 174 631 135 462 c 0
 123 411 118 368 118 327 c 0
 118 273 127 213 153 154 c 1
 180.18167184 199.755814264 209.21045189 247.563970983 238.412757176 295.657910352 c 0
 273.670737022 353.725077597 309.18167184 412.208842128 342 468 c 0
 381 535 420 602 456 670 c 1
123 103 m 1
 97 149 68 223 68 326 c 0
 68 460 123 675 266 788 c 0
 267 789 303 815 350 815 c 0
 371 815 394 810 417 794 c 0
 440 778 460 755 483 721 c 1
 497 749 511 777 525 805 c 0
 526 807 532 819 547 819 c 0
 561 819 572 808 572 794 c 0
 572 786 551 743 513 671 c 1
 537 625 585 520 585 374 c 0
 585 146 474 -9 319 -9 c 0
 291 -9 214 -3 155 59 c 1
 148 46.5 140.75 34 133.5 21.5 c 0
 126.25 9 119 -3.5 112 -16 c 0
 108 -24 99 -29 90 -29 c 0
 76 -29 65 -18 65 -4 c 0
 65 3.56888227524 75.6088849808 21.7466495313 104.558997308 71.3511465993 c 0
 110.032859548 80.7303220707 116.162437537 91.2330320409 123 103 c 1
EndSplineSet
EndUndoOperation
EndUndoes
Redoes
EndRedoes
EndUndoRedoHistory
Fore
SplineSet
319 41 m 0x74
 449 41 535 181 535 374 c 0
 535 444 523 528 484 616 c 1
 415 489 368 413 310 318 c 0
 274 259 234 193 181 104 c 1
 192 90 237 41 319 41 c 0x74
456 670 m 1
 437 702 398 766 351 766 c 0
 345 766 327 766 296 747 c 1
 254 714 174 631 135 462 c 0
 123 411 118 368 118 327 c 0
 118 273 127 213 153 154 c 1
 180 200 209 248 238 296 c 0
 273 354 309 412 342 468 c 0
 381 535 420 602 456 670 c 1
123 103 m 1
 97 149 68 223 68 326 c 0
 68 460 123 675 266 788 c 0
 267 789 303 815 350 815 c 0
 371 815 394 810 417 794 c 0
 440 778 460 755 483 721 c 1
 497 749 511 777 525 805 c 0
 526 807 532 819 547 819 c 0
 561 819 572 808 572 794 c 0xb8
 572 786 551 743 513 671 c 1
 537 625 585 520 585 374 c 0
 585 146 474 -9 319 -9 c 0x74
 291 -9 214 -3 155 59 c 1
 148 47 141 34 134 22 c 0
 127 10 119 -4 112 -16 c 0
 108 -24 99 -29 90 -29 c 0xb4
 76 -29 65 -18 65 -4 c 0
 65 4 76 21 105 71 c 0
 110 80 116 91 123 103 c 1
EndSplineSet
Validated: 1
EndChar

StartChar: exclam
Encoding: 33 33 63
Width: 212
Flags: W
HStem: 799 20G<122.5 136>
VStem: 60 50<-37.8024 110.705> 104 50<588.977 818.802>
LayerCount: 2
UndoRedoHistory
Layer: 1
Undoes
UndoOperation
Index: 0
Type: 12
WasModified: 0
WasOrder2: 0
Layer: 0
CopiedFrom: Writing
EndUndoOperation
UndoOperation
Index: 1
Type: 1
WasModified: 1
WasOrder2: 0
Layer: 2
Width: 212
VWidth: 1024
LBearingChange: 0
UnicodeEnc: 0
InstructionsLength: 0
SplineSet
129 819 m 0
 143 819 154 808 154 793 c 0
 137 338 133 283 120 220 c 0
 118 209 108 200 96 200 c 0
 82 200 72 215 71 227 c 1
 72 279 80 155 104 795 c 0
 104.488596756 808.02924684 116 819 129 819 c 0
80 112 m 0
 93 112 105 101 105 88 c 2
 110 -13 l 2
 110 -27 99 -38 85 -38 c 0
 72 -38 61 -27 60 -14 c 2
 55 87 l 2
 55 101 66 112 80 112 c 0
EndSplineSet
EndUndoOperation
EndUndoes
Redoes
EndRedoes
EndUndoRedoHistory
Fore
SplineSet
129 819 m 0xa0
 143 819 154 808 154 793 c 0
 137 338 133 283 120 220 c 0
 118 209 108 200 96 200 c 0
 82 200 72 215 71 227 c 1
 72 279 80 155 104 795 c 0
 104 808 116 819 129 819 c 0xa0
80 112 m 0
 93 112 105 101 105 88 c 2
 110 -13 l 2
 110 -27 99 -38 85 -38 c 0
 72 -38 61 -27 60 -14 c 2xc0
 55 87 l 2
 55 101 66 112 80 112 c 0
EndSplineSet
Validated: 1
EndChar

StartChar: quotedbl
Encoding: 34 34 64
Width: 302
Flags: W
HStem: 570 249<187.27 233.73>
VStem: 69 50<590.127 817.717> 184 50<570.18 818.37>
LayerCount: 2
UndoRedoHistory
Layer: 1
Undoes
UndoOperation
Index: 0
Type: 12
WasModified: 0
WasOrder2: 0
Layer: 0
CopiedFrom: Writing
EndUndoOperation
UndoOperation
Index: 1
Type: 1
WasModified: 0
WasOrder2: 0
Layer: 2
Width: 302
VWidth: 1024
LBearingChange: 0
UnicodeEnc: 0
InstructionsLength: 0
SplineSet
212 819 m 0
 198 819 187 808 187 794 c 2
 184 595 l 2
 184 581 195 570 209 570 c 0
 223 570 234 580 234 594 c 2
 237 794 l 2
 237 808 226 819 212 819 c 0
93 818 m 0
 79 818 68 807 68 793 c 2
 69 615 l 2
 69 601 80 590 94 590 c 0
 108 590 119 601 119 615 c 2
 118 793 l 2
 118 807 107 818 93 818 c 0
EndSplineSet
EndUndoOperation
EndUndoes
Redoes
EndRedoes
EndUndoRedoHistory
Fore
SplineSet
212 819 m 0
 226 819 237 808 237 794 c 2
 234 594 l 2
 234 580 223 570 209 570 c 0
 195 570 184 581 184 595 c 2
 187 794 l 2
 187 808 198 819 212 819 c 0
93 818 m 0
 107 818 118 807 118 793 c 2
 119 615 l 2
 119 601 108 590 94 590 c 0
 80 590 69 601 69 615 c 2
 68 793 l 2
 68 807 79 818 93 818 c 0
EndSplineSet
Validated: 1
EndChar

StartChar: at
Encoding: 64 64 65
Width: 782
Flags: W
HStem: 12 50<273.501 529.266> 206 50<536.173 641.529> 223 50<355.229 450.906> 479 50<354.802 460.451> 692 50<313.447 534.905>
VStem: 54 50<203.702 438.039> 274 50<312.675 448.277> 475 49<413.127 464.465> 677 43<285.796 552.73>
LayerCount: 2
UndoRedoHistory
Layer: 1
Undoes
UndoOperation
Index: 0
Type: 12
WasModified: 0
WasOrder2: 0
Layer: 0
CopiedFrom: Writing
EndUndoOperation
UndoOperation
Index: 1
Type: 1
WasModified: 0
WasOrder2: 0
Layer: 2
Width: 782
VWidth: 1024
LBearingChange: 0
UnicodeEnc: 0
InstructionsLength: 0
SplineSet
385 62 m 1
 283 70 104 111 104 303 c 0
 104 315 104 328 106 342 c 0
 130 537 245 692 418 692 c 0
 470 692 528 678 590 646 c 0
 642 617 661 553 670 486 c 0
 671 474 672 463 673 451 c 0
 673 451 l 0
 675 427 677 402 677 379 c 0
 677 351 674 325 665 300 c 0
 665 299 664 297 664 296 c 0
 661 280 654 270 642 264 c 0
 632 259 619 256 606 256 c 0
 596 256 585 258 575 261 c 0
 573 262 571 262 569 262 c 0
 551 263 541 270 535 280 c 0
 534 282 527 295 527 314 c 0
 527 323 529 333 533 344 c 0
 535 348 535 358 535 367 c 0
 535 372 535 377 534 380 c 0
 531 396 520 404 508 404 c 0
 500 404 493 400 487 393 c 0
 474 378 460 325 458 305 c 1
 446 283 421 273 398 273 c 0
 384 273 370 277 362 286 c 0
 347 302 324 357 324 398 c 0
 324 408 326 418 329 425 c 0
 342 454 379 479 414 479 c 0
 439 479 463 465 475 430 c 0
 478 420 488 413 499 413 c 0
 513 413 524 424 524 438 c 0
 524 451 496 529 414 529 c 0
 360 529 305 495 283 445 c 0
 277 431 274 415 274 398 c 0
 274 342 302 276 326 251 c 0
 344 232 371 223 398 223 c 0
 431 223 465 236 488 262 c 1
 495 248 517 217 563 213 c 0
 577 209 592 206 606 206 c 0
 656 206 702 233 713 285 c 0
 723 316 727 347 727 379 c 0
 727 405 725 430 723 455 c 0
 722 472 720 485 720 490 c 0
 720 492 720 493 720 493 c 0
 710 561 691 646 614 690 c 0
 544 726 478 742 418 742 c 0
 221 742 83 569 56 348 c 0
 54 335 54 320 54 305 c 0
 54 229 78 136 175 74 c 0
 266 16 383 12 386 12 c 0
 389 12 578 14 648 93 c 0
 652 98 654 104 654 110 c 0
 654 123 644 135 629 135 c 0
 622 135 615 132 610 127 c 0
 576 89 483 66 385 62 c 1
EndSplineSet
EndUndoOperation
EndUndoes
Redoes
EndRedoes
EndUndoRedoHistory
Fore
SplineSet
385 62 m 1xdf80
 483 66 576 89 610 127 c 0
 615 132 622 135 629 135 c 0
 644 135 654 123 654 110 c 0
 654 104 652 98 648 93 c 0
 578 14 389 12 386 12 c 0
 383 12 266 16 175 74 c 0
 78 136 54 229 54 305 c 0
 54 320 54 335 56 348 c 0
 83 569 221 742 418 742 c 0
 478 742 544 726 614 690 c 0
 691 646 710 561 720 493 c 0
 720 493 720 492 720 490 c 0
 720 485 722 472 723 455 c 0
 725 430 727 405 727 379 c 0
 727 347 723 316 713 285 c 0
 702 233 656 206 606 206 c 0xdf80
 592 206 577 209 563 213 c 0
 517 217 495 248 488 262 c 1
 465 236 431 223 398 223 c 0
 371 223 344 232 326 251 c 0
 302 276 274 342 274 398 c 0
 274 415 277 431 283 445 c 0
 305 495 360 529 414 529 c 0
 496 529 524 451 524 438 c 0
 524 424 513 413 499 413 c 0
 488 413 478 420 475 430 c 0
 463 465 439 479 414 479 c 0
 379 479 342 454 329 425 c 0
 326 418 324 408 324 398 c 0
 324 357 347 302 362 286 c 0
 370 277 384 273 398 273 c 0xbf80
 421 273 446 283 458 305 c 1
 460 325 474 378 487 393 c 0
 493 400 500 404 508 404 c 0
 520 404 531 396 534 380 c 0
 535 377 535 372 535 367 c 0
 535 358 535 348 533 344 c 0
 529 333 527 323 527 314 c 0
 527 295 534 282 535 280 c 0
 541 270 551 263 569 262 c 0
 571 262 573 262 575 261 c 0
 585 258 596 256 606 256 c 0
 619 256 632 259 642 264 c 0
 654 270 661 280 664 296 c 0
 664 297 665 299 665 300 c 0
 674 325 677 351 677 379 c 0
 677 402 675 427 673 451 c 0
 672 463 671 474 670 486 c 0
 661 553 642 617 590 646 c 0
 528 678 470 692 418 692 c 0
 245 692 130 537 106 342 c 0
 104 328 104 315 104 303 c 0
 104 111 283 70 385 62 c 1xdf80
EndSplineSet
Validated: 1
EndChar

StartChar: numbersign
Encoding: 35 35 66
Width: 798
Flags: W
HStem: 239 50<45.1976 197.077> 306 49<618.379 747.856> 384 50<115.179 274.167>
VStem: 122 48<56.1549 116.11> 338 49<57.1557 90.8594> 506 49<614 641.856>
LayerCount: 2
UndoRedoHistory
Layer: 1
Undoes
UndoOperation
Index: 0
Type: 12
WasModified: 0
WasOrder2: 0
Layer: 0
CopiedFrom: Writing
EndUndoOperation
UndoOperation
Index: 1
Type: 1
WasModified: 0
WasOrder2: 0
Layer: 2
Width: 798
VWidth: 1024
LBearingChange: 0
UnicodeEnc: 0
InstructionsLength: 0
SplineSet
452 422 m 1
 442 387 431 350 418 310 c 1
 377 306 331 303 283 300 c 1
 304 343 320 377 334 407 c 1
 379 412 418 418 452 422 c 1
45 264 m 0
 45 250 56 239 70 239 c 0
 115 241 158 244 199 246 c 1
 183 213 162 169 125 92 c 0
 123 88 122 85 122 81 c 0
 122 68 133 56 147 56 c 0
 157 56 166 62 170 70 c 0
 204 141 226 188 257 249 c 1
 307 252 355 255 401 259 c 1
 395 240 388 219 381 198 c 0
 361 140 351 117 341 92 c 0
 340 91 l 0
 339 88 338 85 338 82 c 0
 338 69 349 57 363 57 c 0
 373 57 383 63 387 72 c 0
 397 97 408 123 428 182 c 0
 436 205 445 233 455 263 c 1
 522 269 586 278 651 289 c 0
 698 297 716 302 730 306 c 0
 740 309 748 319 748 330 c 0
 748 344 736 355 723 355 c 0
 721 355 718 355 716 354 c 0
 661 337 548 323 471 315 c 1
 481 347 491 380 500 410 c 0
 502 417 504 423 506 429 c 1
 572 438 618 447 667 458 c 0
 684 462 684 461 704 465 c 0
 715 467 724 478 724 490 c 0
 724 504 712 515 699 515 c 0
 697 515 696 514 694 514 c 0
 673 510 672 510 656 506 c 0
 615 497 572 490 521 482 c 1
 534 528 544 571 554 611 c 0
 554 611 l 0
 554 612 555 613 555 614 c 0
 555 615 555 616 555 617 c 0
 555 631 544 642 530 642 c 0
 518 642 509 634 506 623 c 0
 494 575 481 527 466 474 c 1
 433 469 397 465 356 460 c 1
 376 513 390 566 410 655 c 0
 410 656 411 656 411 657 c 0
 411 658 411 659 411 660 c 0
 411 674 400 685 386 685 c 0
 374 685 365 677 362 666 c 0
 340 567 326 514 300 453 c 1
 252 447 199 441 138 434 c 0
 137 434 l 0
 125 433 115 422 115 409 c 0
 115 395 126 384 140 384 c 0
 141 384 142 384 143 384 c 0
 192 390 237 395 276 400 c 1
 264 375 250 347 233 313 c 0
 230 307 228 302 225 297 c 1
 174 294 121 292 69 289 c 0
 56 289 45 277 45 264 c 0
EndSplineSet
EndUndoOperation
EndUndoes
Redoes
EndRedoes
EndUndoRedoHistory
Fore
SplineSet
452 422 m 1
 418 418 379 412 334 407 c 1
 320 377 304 343 283 300 c 1
 331 303 377 306 418 310 c 1
 431 350 442 387 452 422 c 1
45 264 m 0
 45 277 56 289 69 289 c 0
 121 292 174 294 225 297 c 1
 228 302 230 307 233 313 c 0
 250 347 264 375 276 400 c 1
 237 395 192 390 143 384 c 0
 142 384 141 384 140 384 c 0
 126 384 115 395 115 409 c 0
 115 422 125 433 137 434 c 0
 138 434 l 0
 199 441 252 447 300 453 c 1
 326 514 340 567 362 666 c 0
 365 677 374 685 386 685 c 0
 400 685 411 674 411 660 c 0
 411 659 411 658 411 657 c 0
 411 656 410 656 410 655 c 0
 390 566 376 513 356 460 c 1
 397 465 433 469 466 474 c 1
 481 527 494 575 506 623 c 0
 509 634 518 642 530 642 c 0
 544 642 555 631 555 617 c 0
 555 616 555 615 555 614 c 0
 555 613 554 612 554 611 c 0
 544 571 534 528 521 482 c 1
 572 490 615 497 656 506 c 0
 672 510 673 510 694 514 c 0
 696 514 697 515 699 515 c 0
 712 515 724 504 724 490 c 0
 724 478 715 467 704 465 c 0
 684 461 684 462 667 458 c 0
 618 447 572 438 506 429 c 1
 504 423 502 417 500 410 c 0
 491 380 481 347 471 315 c 1
 548 323 661 337 716 354 c 0
 718 355 721 355 723 355 c 0
 736 355 748 344 748 330 c 0
 748 319 740 309 730 306 c 0
 716 302 698 297 651 289 c 0
 586 278 522 269 455 263 c 1
 445 233 436 205 428 182 c 0
 408 123 397 97 387 72 c 0
 383 63 373 57 363 57 c 0
 349 57 338 69 338 82 c 0
 338 85 339 88 340 91 c 0
 341 92 l 0
 351 117 361 140 381 198 c 0
 388 219 395 240 401 259 c 1
 355 255 307 252 257 249 c 1
 226 188 204 141 170 70 c 0
 166 62 157 56 147 56 c 0
 133 56 122 68 122 81 c 0
 122 85 123 88 125 92 c 0
 162 169 183 213 199 246 c 1
 158 244 115 241 70 239 c 0
 56 239 45 250 45 264 c 0
EndSplineSet
Validated: 1
EndChar

StartChar: dollar
Encoding: 36 36 67
Width: 459
Flags: W
HStem: 23 50<121.555 182 237 338.99> 66 48<49.1549 117.16> 231 50<121.641 198.684> 422 50<260 356.315>
VStem: 63 50<288.957 372.619> 163 50<-106.839 -77.093 -77 20.7162> 202 50<79.1614 234 283.913 413.799> 216 50<472 673.873> 360 50<93.8253 195.996>
LayerCount: 2
UndoRedoHistory
Layer: 1
Undoes
UndoOperation
Index: 0
Type: 12
WasModified: 0
WasOrder2: 0
Layer: 0
CopiedFrom: Writing
EndUndoOperation
UndoOperation
Index: 1
Type: 1
WasModified: 0
WasOrder2: 0
Layer: 2
Width: 459
VWidth: 1024
LBearingChange: 0
UnicodeEnc: 0
InstructionsLength: 0
SplineSet
241 674 m 0
 227 674 216 663 216 650 c 0
 214 586 212 525 210 468 c 1
 165 459 129 435 96 405 c 0
 73 383 63 356 63 330 c 0
 63 279 102 231 163 231 c 0
 169 231 178 232 188 233 c 0
 192 233 195 234 199 234 c 1
 196 176 192 123 187 77 c 1
 156 82 122 93 85 111 c 0
 81 113 78 114 74 114 c 0
 61 114 49 104 49 89 c 0
 49 79 55 70 63 66 c 0
 90 52 132 36 182 28 c 1
 176 -18 170 -47 164 -76 c 0
 164 -77 l 0
 164 -79 163 -80 163 -82 c 0
 163 -95 174 -107 188 -107 c 0
 200 -107 211 -98 213 -87 c 0
 219 -57 226 -26 232 23 c 0
 234 23 235 23 237 23 c 0
 269 23 304 28 339 40 c 0
 389 57 410 95 410 136 c 0
 410 171 395 209 368 238 c 0
 335 274 291 284 252 286 c 1
 252 287 252 286 252 287 c 0
 254 329 256 374 258 422 c 1
 288 421 324 413 370 395 c 0
 371 395 373 395 374 395 c 0
 376 395 377 394 379 394 c 0
 395 394 404 406 404 419 c 0
 404 428 399 438 388 442 c 0
 338 462 296 471 260 472 c 1
 262 529 264 588 266 647 c 0
 266 648 l 0
 266 663 255 674 241 674 c 0
237 73 m 1
 241 117 245 172 249 236 c 1
 282 235 311 226 331 204 c 0
 347 187 360 159 360 135 c 0
 360 126 358 117 354 110 c 0
 349 101 340 93 323 87 c 0
 304 80 274 73 237 73 c 1
208 416 m 1
 206 369 204 325 202 284 c 1
 194 283 187 284 181 283 c 0
 173 282 167 281 163 281 c 0
 132 281 113 305 113 330 c 0
 113 343 118 357 130 368 c 0
 152 388 176 407 208 416 c 1
EndSplineSet
EndUndoOperation
EndUndoes
Redoes
EndRedoes
EndUndoRedoHistory
Fore
SplineSet
241 674 m 0x7d80
 255 674 266 663 266 648 c 0
 266 647 l 0x7d80
 264 588 262 529 260 472 c 1
 296 471 338 462 388 442 c 0
 399 438 404 428 404 419 c 0
 404 406 395 394 379 394 c 0
 377 394 376 395 374 395 c 0
 373 395 371 395 370 395 c 0
 324 413 288 421 258 422 c 1
 256 374 254 329 252 287 c 0
 252 286 252 287 252 286 c 1
 291 284 335 274 368 238 c 0
 395 209 410 171 410 136 c 0
 410 95 389 57 339 40 c 0
 304 28 269 23 237 23 c 0
 235 23 234 23 232 23 c 0xba80
 226 -26 219 -57 213 -87 c 0
 211 -98 200 -107 188 -107 c 0
 174 -107 163 -95 163 -82 c 0
 163 -80 164 -79 164 -77 c 0
 164 -76 l 0
 170 -47 176 -18 182 28 c 1
 132 36 90 52 63 66 c 0
 55 70 49 79 49 89 c 0
 49 104 61 114 74 114 c 0
 78 114 81 113 85 111 c 0
 122 93 156 82 187 77 c 1
 192 123 196 176 199 234 c 1
 195 234 192 233 188 233 c 0
 178 232 169 231 163 231 c 0
 102 231 63 279 63 330 c 0
 63 356 73 383 96 405 c 0
 129 435 165 459 210 468 c 1
 212 525 214 586 216 650 c 0
 216 663 227 674 241 674 c 0x7d80
237 73 m 1xb880
 274 73 304 80 323 87 c 0
 340 93 349 101 354 110 c 0
 358 117 360 126 360 135 c 0
 360 159 347 187 331 204 c 0
 311 226 282 235 249 236 c 1
 245 172 241 117 237 73 c 1xb880
208 416 m 1
 176 407 152 388 130 368 c 0
 118 357 113 343 113 330 c 0
 113 305 132 281 163 281 c 0x3c80
 167 281 173 282 181 283 c 0
 187 284 194 283 202 284 c 1x3a80
 204 325 206 369 208 416 c 1
EndSplineSet
Validated: 1
EndChar

StartChar: percent
Encoding: 37 37 68
Width: 527
Flags: W
HStem: 484 51<112.056 137.411>
VStem: 138 50<535.208 555.594> 275 50<141 172.577> 375 49<125.914 187.537>
LayerCount: 2
UndoRedoHistory
Layer: 1
Undoes
UndoOperation
Index: 0
Type: 12
WasModified: 0
WasOrder2: 0
Layer: 0
CopiedFrom: Writing
EndUndoOperation
UndoOperation
Index: 1
Type: 1
WasModified: 0
WasOrder2: 0
Layer: 2
Width: 527
VWidth: 1024
LBearingChange: 0
UnicodeEnc: 0
InstructionsLength: 0
SplineSet
424 147 m 0
 424 170 424 171 424 174 c 0
 423 188 418 203 407 215 c 0
 403 220 395 233 380 236 c 0
 378 238 370 247 356 244 c 0
 320 236 294 206 294 205 c 0
 279 186 275 163 275 147 c 0
 275 139 276 132 277 128 c 0
 281 113 290 106 300 97 c 0
 301 97 328 76 358 76 c 0
 370 76 382 79 393 88 c 0
 404 96 413 107 417 120 c 0
 417 121 417 122 418 124 c 0
 419 125 l 0
 421 129 424 137 424 147 c 0
365 188 m 0
 373 178 375 176 375 166 c 0
 375 163 374 160 374 156 c 0
 374 147 374 147 372 143 c 0
 372 143 l 0
 371 141 371 139 370 136 c 0
 369 132 363 124 354 126 c 0
 343 128 335 131 330 136 c 0
 327 139 325 141 325 141 c 0
 325 142 325 144 325 147 c 0
 325 154 326 164 333 173 c 0
 341 182 350 188 358 192 c 0
 359 192 l 0
 361 190 363 188 365 188 c 0
138 542 m 0
 138 535 127 533 120 535 c 0
 119 535 117 535 116 535 c 0
 115 535 113 536 112 537 c 0
 115 545 121 551 130 556 c 1
 135 551 138 545 138 542 c 0
110 486 m 0
 115 485 119 484 124 484 c 0
 156 484 188 506 188 542 c 0
 188 567 173 586 158 598 c 0
 157 600 148 612 132 609 c 0
 82 599 61 557 61 537 c 0
 61 508 84 489 110 486 c 0
479 651 m 0
 481 655 482 658 482 662 c 0
 482 675 471 688 457 688 c 0
 448 688 439 682 435 674 c 0
 373 560 311 446 251 341 c 0
 191 236 131 138 99 85 c 0
 67 32 62 24 56 16 c 0
 55 15 l 0
 52 11 51 6 51 1 c 0
 51 -12 61 -24 76 -24 c 0
 85 -24 92 -20 97 -13 c 0
 122 24 222 191 294 317 c 0
 355 423 417 536 479 650 c 0
 479 651 l 0
EndSplineSet
EndUndoOperation
EndUndoes
Redoes
EndRedoes
EndUndoRedoHistory
Fore
SplineSet
424 147 m 0
 424 137 421 129 419 125 c 0
 418 124 l 0
 417 122 417 121 417 120 c 0
 413 107 404 96 393 88 c 0
 382 79 370 76 358 76 c 0
 328 76 301 97 300 97 c 0
 290 106 281 113 277 128 c 0
 276 132 275 139 275 147 c 0
 275 163 279 186 294 205 c 0
 294 206 320 236 356 244 c 0
 370 247 378 238 380 236 c 0
 395 233 403 220 407 215 c 0
 418 203 423 188 424 174 c 0
 424 171 424 170 424 147 c 0
365 188 m 0
 363 188 361 190 359 192 c 0
 358 192 l 0
 350 188 341 182 333 173 c 0
 326 164 325 154 325 147 c 0
 325 144 325 142 325 141 c 0
 325 141 327 139 330 136 c 0
 335 131 343 128 354 126 c 0
 363 124 369 132 370 136 c 0
 371 139 371 141 372 143 c 0
 374 147 374 147 374 156 c 0
 374 160 375 163 375 166 c 0
 375 176 373 178 365 188 c 0
138 542 m 0
 138 545 135 551 130 556 c 1
 121 551 115 545 112 537 c 0
 113 536 115 535 116 535 c 0
 117 535 119 535 120 535 c 0
 127 533 138 535 138 542 c 0
110 486 m 0
 84 489 61 508 61 537 c 0
 61 557 82 599 132 609 c 0
 148 612 157 600 158 598 c 0
 173 586 188 567 188 542 c 0
 188 506 156 484 124 484 c 0
 119 484 115 485 110 486 c 0
479 651 m 0
 479 650 l 0
 417 536 355 423 294 317 c 0
 222 191 122 24 97 -13 c 0
 92 -20 85 -24 76 -24 c 0
 61 -24 51 -12 51 1 c 0
 51 6 52 11 55 15 c 0
 56 16 l 0
 62 24 67 32 99 85 c 0
 131 138 191 236 251 341 c 0
 311 446 373 560 435 674 c 0
 439 682 448 688 457 688 c 0
 471 688 482 675 482 662 c 0
 482 658 481 655 479 651 c 0
EndSplineSet
Validated: 1
EndChar

StartChar: asciicircum
Encoding: 94 94 69
Width: 411
Flags: W
HStem: 575 244
VStem: 304 48<575.18 635.418>
LayerCount: 2
UndoRedoHistory
Layer: 1
Undoes
UndoOperation
Index: 0
Type: 12
WasModified: 0
WasOrder2: 0
Layer: 0
CopiedFrom: Writing
EndUndoOperation
UndoOperation
Index: 1
Type: 1
WasModified: 0
WasOrder2: 0
Layer: 2
Width: 411
VWidth: 1024
LBearingChange: 0
UnicodeEnc: 0
InstructionsLength: 0
SplineSet
68 618 m 0
 64 613 63 608 63 603 c 0
 63 590 73 578 88 578 c 0
 96 578 103 582 108 588 c 0
 142 633 175 689 197 745 c 1
 246 689 282 648 304 591 c 0
 308 582 316 575 327 575 c 0
 341 575 352 587 352 600 c 0
 352 603 351 606 350 609 c 0
 325 674 285 721 240 773 c 0
 239 774 239 773 238 774 c 0
 228 785 218 797 207 810 c 0
 202 816 195 819 188 819 c 0
 178 819 167 812 164 801 c 0
 146 739 107 670 68 618 c 0
EndSplineSet
EndUndoOperation
EndUndoes
Redoes
EndRedoes
EndUndoRedoHistory
Fore
SplineSet
68 618 m 0
 107 670 146 739 164 801 c 0
 167 812 178 819 188 819 c 0
 195 819 202 816 207 810 c 0
 218 797 228 785 238 774 c 0
 239 773 239 774 240 773 c 0
 285 721 325 674 350 609 c 0
 351 606 352 603 352 600 c 0
 352 587 341 575 327 575 c 0
 316 575 308 582 304 591 c 0
 282 648 246 689 197 745 c 1
 175 689 142 633 108 588 c 0
 103 582 96 578 88 578 c 0
 73 578 63 590 63 603 c 0
 63 608 64 613 68 618 c 0
EndSplineSet
Validated: 1
EndChar

StartChar: ampersand
Encoding: 38 38 70
Width: 617
Flags: W
HStem: -4 50<174.58 366.086> 720 50<188.216 283.142>
VStem: 45 50<110.74 257.655> 115 51<526.196 699.658> 290 50<583.124 712.421> 487 50<190.358 350.717> 518 48<-8.84427 48.2825>
LayerCount: 2
UndoRedoHistory
Layer: 1
Undoes
UndoOperation
Index: 0
Type: 12
WasModified: 0
WasOrder2: 0
Layer: 0
CopiedFrom: Writing
EndUndoOperation
UndoOperation
Index: 1
Type: 1
WasModified: 0
WasOrder2: 0
Layer: 2
Width: 617
VWidth: 1024
LBearingChange: 0
UnicodeEnc: 0
InstructionsLength: 0
SplineSet
221 719 m 0
 224 719 228 720 231 720 c 0
 279 720 290 698 290 669 c 0
 290 632 269 578 243 534 c 0
 231 518 219 502 208 486 c 1
 192 514 180 544 171 575 c 0
 167 588 166 602 166 617 c 0
 166 665 184 717 221 719 c 0
229 0 m 0
 242 -2 258 -4 276 -4 c 0
 334 -4 410 15 469 93 c 1
 488 65 504 36 518 6 c 0
 522 -3 531 -9 541 -9 c 0
 555 -9 566 3 566 16 c 0
 566 19 565 23 564 26 c 0
 546 66 523 104 497 139 c 1
 510 165 537 226 537 305 c 0
 537 312 536 320 536 327 c 0
 535 340 524 351 511 351 c 0
 497 351 486 340 486 326 c 0
 486 325 486 324 486 323 c 0
 486 320 487 314 487 306 c 0
 487 265 478 222 462 183 c 1
 433 218 402 252 371 285 c 0
 323 336 275 387 237 441 c 1
 250 460 267 483 277 497 c 0
 282 504 285 508 285 508 c 0
 300 533 340 605 340 669 c 0
 340 699 329 770 230 770 c 0
 226 770 222 769 218 769 c 0
 149 765 115 690 115 618 c 0
 115 598 118 580 123 562 c 0
 135 518 154 478 177 441 c 1
 145 396 114 350 84 303 c 0
 58 258 45 216 45 176 c 0
 45 95 103 22 229 0 c 0
437 135 m 1
 408 92 358 46 277 46 c 0
 226 46 95 70 95 176 c 0
 95 204 105 239 127 277 c 0
 153 317 180 357 207 397 c 1
 244 347 287 300 331 254 c 0
 367 215 404 176 437 135 c 1
EndSplineSet
EndUndoOperation
EndUndoes
Redoes
EndRedoes
EndUndoRedoHistory
Fore
SplineSet
221 719 m 0xf8
 184 717 166 665 166 617 c 0
 166 602 167 588 171 575 c 0
 180 544 192 514 208 486 c 1
 219 502 231 518 243 534 c 0
 269 578 290 632 290 669 c 0
 290 698 279 720 231 720 c 0
 228 720 224 719 221 719 c 0xf8
229 0 m 0
 103 22 45 95 45 176 c 0
 45 216 58 258 84 303 c 0
 114 350 145 396 177 441 c 1
 154 478 135 518 123 562 c 0
 118 580 115 598 115 618 c 0
 115 690 149 765 218 769 c 0
 222 769 226 770 230 770 c 0
 329 770 340 699 340 669 c 0
 340 605 300 533 285 508 c 0
 285 508 282 504 277 497 c 0
 267 483 250 460 237 441 c 1
 275 387 323 336 371 285 c 0
 402 252 433 218 462 183 c 1
 478 222 487 265 487 306 c 0
 487 314 486 320 486 323 c 0
 486 324 486 325 486 326 c 0
 486 340 497 351 511 351 c 0
 524 351 535 340 536 327 c 0
 536 320 537 312 537 305 c 0xfc
 537 226 510 165 497 139 c 1
 523 104 546 66 564 26 c 0
 565 23 566 19 566 16 c 0
 566 3 555 -9 541 -9 c 0
 531 -9 522 -3 518 6 c 0xfa
 504 36 488 65 469 93 c 1
 410 15 334 -4 276 -4 c 0
 258 -4 242 -2 229 0 c 0
437 135 m 1
 404 176 367 215 331 254 c 0
 287 300 244 347 207 397 c 1
 180 357 153 317 127 277 c 0
 105 239 95 204 95 176 c 0
 95 70 226 46 277 46 c 0
 358 46 408 92 437 135 c 1
EndSplineSet
Validated: 1
EndChar

StartChar: asterisk
Encoding: 42 42 71
Width: 474
Flags: W
HStem: 304 50<51.1624 166.825> 334 50<281.193 425.82>
VStem: 194 50<73.1267 258.213> 201 50<98.3828 265 429 608.68> 216 50<431.443 637.802>
LayerCount: 2
UndoRedoHistory
Layer: 1
Undoes
UndoOperation
Index: 0
Type: 12
WasModified: 0
WasOrder2: 0
Layer: 0
CopiedFrom: Writing
EndUndoOperation
UndoOperation
Index: 1
Type: 1
WasModified: 0
WasOrder2: 0
Layer: 2
Width: 474
VWidth: 1024
LBearingChange: 0
UnicodeEnc: 0
InstructionsLength: 0
SplineSet
51 329 m 0
 51 315 62 304 76 304 c 0
 77 304 78 304 79 304 c 0
 80 304 81 304 82 304 c 0
 114 307 143 310 168 313 c 1
 134 273 107 247 70 212 c 0
 64 207 62 200 62 194 c 0
 62 181 72 169 87 169 c 0
 94 169 100 171 104 175 c 0
 141 210 168 237 201 275 c 1
 197 187 194 105 194 98 c 0
 194 83 205 73 219 73 c 0
 233 73 244 84 244 97 c 0
 244 113 245 118 251 265 c 1
 266 244 279 227 294 207 c 0
 299 200 306 197 313 197 c 0
 326 197 339 207 339 222 c 0
 339 228 337 233 334 237 c 0
 313 265 294 290 271 323 c 1
 324 328 360 331 403 334 c 0
 416 335 426 346 426 359 c 0
 426 373 415 384 401 384 c 0
 400 384 400 384 399 384 c 0
 359 381 326 378 279 374 c 1
 309 414 347 464 394 529 c 0
 397 534 399 539 399 544 c 0
 399 557 389 569 374 569 c 0
 366 569 359 565 354 559 c 0
 316 507 284 464 258 429 c 1
 260 481 263 541 266 612 c 0
 266 627 255 638 241 638 c 0
 228 638 217 627 216 614 c 0
 213 537 209 472 207 417 c 1
 189 444 169 475 144 512 c 0
 139 520 132 523 124 523 c 0
 111 523 98 513 98 498 c 0
 98 493 100 488 103 484 c 0
 136 435 161 396 182 365 c 1
 152 362 117 358 76 354 c 0
 75 354 74 354 73 354 c 0
 60 354 51 342 51 329 c 0
EndSplineSet
EndUndoOperation
EndUndoes
Redoes
EndRedoes
EndUndoRedoHistory
Fore
SplineSet
51 329 m 0x90
 51 342 60 354 73 354 c 0
 74 354 75 354 76 354 c 0
 117 358 152 362 182 365 c 1
 161 396 136 435 103 484 c 0
 100 488 98 493 98 498 c 0
 98 513 111 523 124 523 c 0
 132 523 139 520 144 512 c 0
 169 475 189 444 207 417 c 1
 209 472 213 537 216 614 c 0
 217 627 228 638 241 638 c 0
 255 638 266 627 266 612 c 0x88
 263 541 260 481 258 429 c 1
 284 464 316 507 354 559 c 0
 359 565 366 569 374 569 c 0
 389 569 399 557 399 544 c 0
 399 539 397 534 394 529 c 0
 347 464 309 414 279 374 c 1
 326 378 359 381 399 384 c 0
 400 384 400 384 401 384 c 0
 415 384 426 373 426 359 c 0
 426 346 416 335 403 334 c 0
 360 331 324 328 271 323 c 1
 294 290 313 265 334 237 c 0
 337 233 339 228 339 222 c 0
 339 207 326 197 313 197 c 0
 306 197 299 200 294 207 c 0
 279 227 266 244 251 265 c 1x50
 245 118 244 113 244 97 c 0
 244 84 233 73 219 73 c 0
 205 73 194 83 194 98 c 0x60
 194 105 197 187 201 275 c 1
 168 237 141 210 104 175 c 0
 100 171 94 169 87 169 c 0
 72 169 62 181 62 194 c 0
 62 200 64 207 70 212 c 0
 107 247 134 273 168 313 c 1
 143 310 114 307 82 304 c 0
 81 304 80 304 79 304 c 0
 78 304 77 304 76 304 c 0
 62 304 51 315 51 329 c 0x90
EndSplineSet
Validated: 1
EndChar

StartChar: parenleft
Encoding: 40 40 72
Width: 346
Flags: W
HStem: 799 20G<272 283.5>
VStem: 56 50<123.761 455.754>
LayerCount: 2
UndoRedoHistory
Layer: 1
Undoes
UndoOperation
Index: 0
Type: 12
WasModified: 0
WasOrder2: 0
Layer: 0
CopiedFrom: Writing
EndUndoOperation
UndoOperation
Index: 1
Type: 1
WasModified: 0
WasOrder2: 0
Layer: 2
Width: 346
VWidth: 1024
LBearingChange: 0
UnicodeEnc: 0
InstructionsLength: 0
SplineSet
296 778 m 0
 300 783 301 789 301 794 c 0
 301 807 291 819 276 819 c 0
 268 819 262 816 257 810 c 0
 256 809 256 808 255 807 c 0
 209 751 158 688 125 615 c 0
 72 498 56 338 56 259 c 0
 56 224 58 191 64 162 c 0
 76 101 106 50 132 19 c 0
 158 -12 186 -27 208 -40 c 0
 212 -42 216 -43 220 -43 c 0
 233 -43 245 -33 245 -18 c 0
 245 -9 240 0 232 4 c 0
 232 4 l 0
 209 17 191 27 171 51 c 0
 151 75 123 121 113 172 c 0
 108 197 106 227 106 260 c 0
 106 369 132 509 171 595 c 0
 201 661 250 721 296 778 c 0
EndSplineSet
EndUndoOperation
EndUndoes
Redoes
EndRedoes
EndUndoRedoHistory
Fore
SplineSet
296 778 m 0
 250 721 201 661 171 595 c 0
 132 509 106 369 106 260 c 0
 106 227 108 197 113 172 c 0
 123 121 151 75 171 51 c 0
 191 27 209 17 232 4 c 0
 240 0 245 -9 245 -18 c 0
 245 -33 233 -43 220 -43 c 0
 216 -43 212 -42 208 -40 c 0
 186 -27 158 -12 132 19 c 0
 106 50 76 101 64 162 c 0
 58 191 56 224 56 259 c 0
 56 338 72 498 125 615 c 0
 158 688 209 751 255 807 c 0
 256 808 256 809 257 810 c 0
 262 816 268 819 276 819 c 0
 291 819 301 807 301 794 c 0
 301 789 300 783 296 778 c 0
EndSplineSet
Validated: 1
EndChar

StartChar: parenright
Encoding: 41 41 73
Width: 330
Flags: W
HStem: 799 20G<63.5 73>
VStem: 223 50<152.559 543.997>
LayerCount: 2
UndoRedoHistory
Layer: 1
Undoes
UndoOperation
Index: 0
Type: 12
WasModified: 0
WasOrder2: 0
Layer: 0
CopiedFrom: Writing
EndUndoOperation
UndoOperation
Index: 1
Type: 1
WasModified: 0
WasOrder2: 0
Layer: 2
Width: 330
VWidth: 1024
LBearingChange: 0
UnicodeEnc: 0
InstructionsLength: 0
SplineSet
87 812 m 0
 82 817 76 819 70 819 c 0
 57 819 45 809 45 794 c 0
 45 787 48 781 53 776 c 0
 95 735 142 690 170 634 c 0
 207 559 223 444 223 339 c 0
 223 270 216 206 203 159 c 0
 185 94 148 44 114 -1 c 0
 111 -6 109 -11 109 -16 c 0
 109 -29 119 -41 134 -41 c 0
 142 -41 149 -37 154 -31 c 0
 155 -30 l 0
 188 14 230 70 251 145 c 0
 265 195 273 266 273 341 c 0
 273 451 255 572 214 656 c 0
 182 721 131 770 89 810 c 0
 88 811 88 811 87 812 c 0
EndSplineSet
EndUndoOperation
EndUndoes
Redoes
EndRedoes
EndUndoRedoHistory
Fore
SplineSet
87 812 m 0
 88 811 88 811 89 810 c 0
 131 770 182 721 214 656 c 0
 255 572 273 451 273 341 c 0
 273 266 265 195 251 145 c 0
 230 70 188 14 155 -30 c 0
 154 -31 l 0
 149 -37 142 -41 134 -41 c 0
 119 -41 109 -29 109 -16 c 0
 109 -11 111 -6 114 -1 c 0
 148 44 185 94 203 159 c 0
 216 206 223 270 223 339 c 0
 223 444 207 559 170 634 c 0
 142 690 95 735 53 776 c 0
 48 781 45 787 45 794 c 0
 45 809 57 819 70 819 c 0
 76 819 82 817 87 812 c 0
EndSplineSet
Validated: 1
EndChar

StartChar: hyphen
Encoding: 45 45 74
Width: 511
Flags: W
HStem: 363 49<208.018 447.838> 377 50<65.127 308.723>
LayerCount: 2
UndoRedoHistory
Layer: 1
Undoes
UndoOperation
Index: 0
Type: 12
WasModified: 0
WasOrder2: 0
Layer: 0
CopiedFrom: Writing
EndUndoOperation
UndoOperation
Index: 1
Type: 1
WasModified: 0
WasOrder2: 0
Layer: 2
Width: 511
VWidth: 1024
LBearingChange: 0
UnicodeEnc: 0
InstructionsLength: 0
SplineSet
90 427 m 0
 76 427 65 416 65 402 c 0
 65 388 76 377 90 377 c 0
 317 375 348 374 419 363 c 0
 420 363 422 363 423 363 c 0
 437 363 448 374 448 388 c 0
 448 401 439 410 427 412 c 0
 399 416 369 422 313 424 c 0
 257 426 173 427 90 427 c 0
EndSplineSet
EndUndoOperation
EndUndoes
Redoes
EndRedoes
EndUndoRedoHistory
Fore
SplineSet
90 427 m 0x40
 173 427 257 426 313 424 c 0
 369 422 399 416 427 412 c 0
 439 410 448 401 448 388 c 0
 448 374 437 363 423 363 c 0
 422 363 420 363 419 363 c 0x80
 348 374 317 375 90 377 c 0
 76 377 65 388 65 402 c 0
 65 416 76 427 90 427 c 0x40
EndSplineSet
Validated: 1
EndChar

StartChar: period
Encoding: 46 46 75
Width: 269
Flags: W
HStem: -13 154<90.4724 171.844>
VStem: 67 133<1.02369 111.705>
LayerCount: 2
UndoRedoHistory
Layer: 1
Undoes
UndoOperation
Index: 0
Type: 12
WasModified: 0
WasOrder2: 0
Layer: 0
CopiedFrom: Writing
EndUndoOperation
UndoOperation
Index: 1
Type: 1
WasModified: 0
WasOrder2: 0
Layer: 2
Width: 269
VWidth: 1024
LBearingChange: 0
UnicodeEnc: 0
InstructionsLength: 0
SplineSet
131 141 m 0
 143 141 154 134 163 127 c 0
 185 109 200 82 200 52 c 0
 200 32 193 12 177 0 c 0
 160 -12 139 -13 119 -13 c 0
 118 -13 115 -13 114 -13 c 0
 91 -13 69 5 67 28 c 0
 67 31 67 35 67 39 c 0
 67 70 76 109 99 128 c 0
 108 136 119 141 130 141 c 0
 131 141 l 0
EndSplineSet
EndUndoOperation
EndUndoes
Redoes
EndRedoes
EndUndoRedoHistory
Fore
SplineSet
131 141 m 0
 143 141 154 134 163 127 c 0
 185 109 200 82 200 52 c 0
 200 32 193 12 177 0 c 0
 160 -12 139 -13 119 -13 c 0
 118 -13 115 -13 114 -13 c 0
 91 -13 69 5 67 28 c 0
 67 31 67 35 67 39 c 0
 67 70 76 109 99 128 c 0
 108 136 119 141 130 141 c 0
 131 141 l 0
EndSplineSet
Validated: 1
EndChar

StartChar: underscore
Encoding: 95 95 76
Width: 749
Flags: W
HStem: -18 50<71.1976 308.979> 0 50<437.015 675.873>
LayerCount: 2
UndoRedoHistory
Layer: 1
Undoes
UndoOperation
Index: 0
Type: 12
WasModified: 0
WasOrder2: 0
Layer: 0
CopiedFrom: Writing
EndUndoOperation
UndoOperation
Index: 1
Type: 1
WasModified: 0
WasOrder2: 0
Layer: 2
Width: 749
VWidth: 1024
LBearingChange: 0
UnicodeEnc: 0
InstructionsLength: 0
SplineSet
651 50 m 0
 397 50 334 46 95 32 c 0
 82 32 71 20 71 7 c 0
 71 -7 82 -18 96 -18 c 0
 97 -18 97 -18 98 -18 c 0
 326 -4 390 0 651 0 c 0
 665 0 676 11 676 25 c 0
 676 39 665 50 651 50 c 0
EndSplineSet
EndUndoOperation
EndUndoes
Redoes
EndRedoes
EndUndoRedoHistory
Fore
SplineSet
651 50 m 0x40
 665 50 676 39 676 25 c 0
 676 11 665 0 651 0 c 0x40
 390 0 326 -4 98 -18 c 0
 97 -18 97 -18 96 -18 c 0
 82 -18 71 -7 71 7 c 0
 71 20 82 32 95 32 c 0x80
 334 46 397 50 651 50 c 0x40
EndSplineSet
Validated: 1
EndChar

StartChar: equal
Encoding: 61 61 77
Width: 444
Flags: W
HStem: 281 50<63.1624 303.662> 307 50<140.242 379.873> 430 50<85.127 366.873>
VStem: 63 317
LayerCount: 2
UndoRedoHistory
Layer: 1
Undoes
UndoOperation
Index: 0
Type: 12
WasModified: 0
WasOrder2: 0
Layer: 0
CopiedFrom: Writing
EndUndoOperation
UndoOperation
Index: 1
Type: 1
WasModified: 0
WasOrder2: 0
Layer: 2
Width: 444
VWidth: 1024
LBearingChange: 0
UnicodeEnc: 0
InstructionsLength: 0
SplineSet
63 306 m 0
 63 292 74 281 88 281 c 0
 89 281 90 281 91 281 c 0
 326 305 344 307 353 307 c 0
 354 307 354 307 355 307 c 0
 369 307 380 318 380 332 c 0
 380 346 369 357 355 357 c 0
 341 357 340 357 85 331 c 0
 72 331 63 319 63 306 c 0
110 480 m 2
 96 480 85 469 85 455 c 0
 85 441 96 430 110 430 c 2
 342 430 l 2
 356 430 367 441 367 455 c 0
 367 469 356 480 342 480 c 2
 110 480 l 2
EndSplineSet
EndUndoOperation
EndUndoes
Redoes
EndRedoes
EndUndoRedoHistory
Fore
SplineSet
63 306 m 0xb0
 63 319 72 331 85 331 c 0xb0
 340 357 341 357 355 357 c 0
 369 357 380 346 380 332 c 0
 380 318 369 307 355 307 c 0
 354 307 354 307 353 307 c 0x70
 344 307 326 305 91 281 c 0
 90 281 89 281 88 281 c 0
 74 281 63 292 63 306 c 0xb0
110 480 m 2
 342 480 l 2
 356 480 367 469 367 455 c 0
 367 441 356 430 342 430 c 2
 110 430 l 2
 96 430 85 441 85 455 c 0
 85 469 96 480 110 480 c 2
EndSplineSet
Validated: 1
EndChar

StartChar: plus
Encoding: 43 43 78
Width: 467
Flags: W
HStem: 338 50<59.1976 205 265 380.624>
VStem: 174 49<443.086 569.839>
LayerCount: 2
UndoRedoHistory
Layer: 1
Undoes
UndoOperation
Index: 0
Type: 12
WasModified: 0
WasOrder2: 0
Layer: 0
CopiedFrom: Writing
EndUndoOperation
UndoOperation
Index: 1
Type: 1
WasModified: 0
WasOrder2: 0
Layer: 2
Width: 467
VWidth: 1024
LBearingChange: 0
UnicodeEnc: 0
InstructionsLength: 0
SplineSet
59 363 m 0
 59 349 70 338 84 338 c 0
 136 340 179 342 214 343 c 1
 224 291 227 264 231 220 c 0
 232 207 243 197 256 197 c 0
 270 197 281 208 281 222 c 0
 281 223 277 276 265 345 c 1
 352 349 375 353 395 358 c 0
 406 361 413 370 413 382 c 0
 413 396 401 407 388 407 c 0
 386 407 384 407 382 406 c 0
 381 405 l 0
 373 403 364 401 316 398 c 0
 300 397 279 396 255 395 c 1
 247 435 237 484 223 550 c 0
 221 561 211 570 199 570 c 0
 185 570 174 558 174 545 c 0
 174 543 174 541 174 539 c 0
 187 476 198 430 205 393 c 1
 167 391 125 390 83 388 c 0
 70 388 59 376 59 363 c 0
EndSplineSet
EndUndoOperation
EndUndoes
Redoes
EndRedoes
EndUndoRedoHistory
Fore
SplineSet
59 363 m 0
 59 376 70 388 83 388 c 0
 125 390 167 391 205 393 c 1
 198 430 187 476 174 539 c 0
 174 541 174 543 174 545 c 0
 174 558 185 570 199 570 c 0
 211 570 221 561 223 550 c 0
 237 484 247 435 255 395 c 1
 279 396 300 397 316 398 c 0
 364 401 373 403 381 405 c 0
 382 406 l 0
 384 407 386 407 388 407 c 0
 401 407 413 396 413 382 c 0
 413 370 406 361 395 358 c 0
 375 353 352 349 265 345 c 1
 277 276 281 223 281 222 c 0
 281 208 270 197 256 197 c 0
 243 197 232 207 231 220 c 0
 227 264 224 291 214 343 c 1
 179 342 136 340 84 338 c 0
 70 338 59 349 59 363 c 0
EndSplineSet
Validated: 1
EndChar

StartChar: bracketleft
Encoding: 91 91 79
Width: 365
Flags: W
HStem: 755 50<124.61 268.686> 799 20G<111 125>
VStem: 82 48<41 767.935>
LayerCount: 2
UndoRedoHistory
Layer: 1
Undoes
UndoOperation
Index: 0
Type: 12
WasModified: 0
WasOrder2: 0
Layer: 0
CopiedFrom: Writing
EndUndoOperation
UndoOperation
Index: 1
Type: 1
WasModified: 0
WasOrder2: 0
Layer: 2
Width: 365
VWidth: 1024
LBearingChange: 0
UnicodeEnc: 0
InstructionsLength: 0
SplineSet
124 768 m 1
 137 767 151 765 166 762 c 0
 186 758 207 755 226 755 c 0
 234 755 241 755 249 757 c 0
 260 759 269 769 269 781 c 0
 269 795 258 806 244 806 c 0
 242 806 240 806 238 806 c 0
 235 806 233 805 226 805 c 0
 211 805 194 808 176 811 c 0
 156 815 135 819 115 819 c 0
 107 819 100 819 92 817 c 0
 81 815 72 804 72 792 c 0
 72 792 72 792 72 791 c 0
 73 783 77 741 77 597 c 0
 77 549 76 497 76 444 c 0
 76 388 75 332 75 277 c 0
 75 174 77 79 82 11 c 0
 83 0 92 -12 106 -12 c 0
 109 -12 113 -12 116 -11 c 0
 126 -9 153 -7 184 -5 c 0
 214 -3 247 -2 268 1 c 0
 287 3 304 6 313 19 c 0
 316 24 318 29 318 34 c 0
 318 47 308 59 293 59 c 0
 286 59 279 56 275 52 c 0
 256 48 219 47 183 45 c 0
 163 44 145 42 130 41 c 1
 126 104 125 188 125 277 c 0
 125 285 126 422 126 514 c 0
 126 560 127 596 127 597 c 0
 127 665 126 724 124 768 c 1
EndSplineSet
EndUndoOperation
EndUndoes
Redoes
EndRedoes
EndUndoRedoHistory
Fore
SplineSet
124 768 m 1xa0
 126 724 127 665 127 597 c 0
 127 596 126 560 126 514 c 0
 126 422 125 285 125 277 c 0
 125 188 126 104 130 41 c 1
 145 42 163 44 183 45 c 0
 219 47 256 48 275 52 c 0
 279 56 286 59 293 59 c 0
 308 59 318 47 318 34 c 0
 318 29 316 24 313 19 c 0
 304 6 287 3 268 1 c 0
 247 -2 214 -3 184 -5 c 0
 153 -7 126 -9 116 -11 c 0
 113 -12 109 -12 106 -12 c 0
 92 -12 83 0 82 11 c 0
 77 79 75 174 75 277 c 0
 75 332 76 388 76 444 c 0
 76 497 77 549 77 597 c 0
 77 741 73 783 72 791 c 0
 72 792 72 792 72 792 c 0
 72 804 81 815 92 817 c 0
 100 819 107 819 115 819 c 0x60
 135 819 156 815 176 811 c 0
 194 808 211 805 226 805 c 0
 233 805 235 806 238 806 c 0
 240 806 242 806 244 806 c 0
 258 806 269 795 269 781 c 0
 269 769 260 759 249 757 c 0
 241 755 234 755 226 755 c 0
 207 755 186 758 166 762 c 0
 151 765 137 767 124 768 c 1xa0
EndSplineSet
Validated: 1
EndChar

StartChar: bracketright
Encoding: 93 93 80
Width: 379
Flags: W
HStem: -7 50<51.1624 260> 765 50<60.9342 251>
VStem: 244 50<392.451 763.952> 260 50<40 515.782>
LayerCount: 2
UndoRedoHistory
Layer: 1
Undoes
UndoOperation
Index: 0
Type: 12
WasModified: 0
WasOrder2: 0
Layer: 0
CopiedFrom: Writing
EndUndoOperation
UndoOperation
Index: 1
Type: 1
WasModified: 1
WasOrder2: 0
Layer: 2
Width: 379
VWidth: 1024
LBearingChange: 0
UnicodeEnc: 0
InstructionsLength: 0
SplineSet
310 13 m 0
 309 0 298 -11 285 -11 c 0
 262 -10 163 -7 109 -7 c 0
 88 -7 78 -7 76 -7 c 0
 62 -7 51 4 51 18 c 0
 51 31 60 41 73 42 c 0
 80 43 94 43 110 43 c 0
 158 43 233 41 260 40 c 1
 260 46 260 52 260 58 c 0
 260 120 257 205 253 296 c 0
 248 401 244 514 244 610 c 0
 244 671 246 725 251 766 c 1
 231 766 213 765 198 765 c 0
 137 765 112 767 83 769 c 0
 70 770 60 781 60 794 c 0
 60 808 71 819 85 819 c 2
 85 819 85 819 86 819 c 0
 93 818 128 815 197 815 c 0
 209 815 259 816 275 816 c 0
 278 816 280 816 280 816 c 2
 294 816 305 804 305 791 c 0
 305 789 305 788 305 786 c 0
 297 747 294 684 294 611 c 0
 294 517 299 404 303 299 c 0
 307 207 310 120 310 57 c 0
 310 46.3333333333 310.444444444 36.1111111111 310.444444444 26.6296296296 c 0
 310.444444444 21.8888888889 310.333333333 17.3333333333 310 13 c 0
EndSplineSet
EndUndoOperation
EndUndoes
Redoes
EndRedoes
EndUndoRedoHistory
Fore
SplineSet
310 13 m 0xd0
 309 0 298 -11 285 -11 c 0
 262 -10 163 -7 109 -7 c 0
 88 -7 78 -7 76 -7 c 0
 62 -7 51 4 51 18 c 0
 51 31 60 41 73 42 c 0
 80 43 94 43 110 43 c 0
 158 43 233 41 260 40 c 1
 260 46 260 52 260 58 c 0xd0
 260 120 257 205 253 296 c 0
 248 401 244 514 244 610 c 0
 244 671 246 725 251 766 c 1
 231 766 213 765 198 765 c 0
 137 765 112 767 83 769 c 0
 70 770 60 781 60 794 c 0
 60 808 71 819 85 819 c 2
 85 819 85 819 86 819 c 0
 93 818 128 815 197 815 c 0
 209 815 259 816 275 816 c 0
 278 816 280 816 280 816 c 2
 294 816 305 804 305 791 c 0
 305 789 305 788 305 786 c 0
 297 747 294 684 294 611 c 0xe0
 294 517 299 404 303 299 c 0
 307 207 310 120 310 57 c 0
 310 46 310 36 310 27 c 0
 310 22 310 17 310 13 c 0xd0
EndSplineSet
Validated: 1
EndChar

StartChar: braceleft
Encoding: 123 123 81
Width: 300
Flags: W
HStem: -18 50<178.219 248.82> 764 56<180.34 242.505>
VStem: 112 50<486.062 750.86> 123 47<42.3461 151.016> 143 50<128.165 378.988>
LayerCount: 2
UndoRedoHistory
Layer: 1
Undoes
UndoOperation
Index: 0
Type: 12
WasModified: 0
WasOrder2: 0
Layer: 0
CopiedFrom: Writing
EndUndoOperation
UndoOperation
Index: 1
Type: 1
WasModified: 0
WasOrder2: 0
Layer: 2
Width: 300
VWidth: 1024
LBearingChange: 0
UnicodeEnc: 0
InstructionsLength: 0
SplineSet
162 547 m 0
 162 556 162 564 162 573 c 0
 162 582 162 590 162 599 c 0
 162 609 163 619 163 629 c 0
 163 629 l 0
 164 674 166 715 183 749 c 0
 187 756 188 761 195 766 c 0
 201 771 204 770 207 768 c 0
 210 767 213 764 219 764 c 0
 233 764 244 775 244 789 c 0
 244 811 218 820 203 820 c 0
 173 820 148 795 138 770 c 0
 116 725 114 677 113 634 c 0
 113 633 113 632 113 631 c 0
 113 623 112 611 112 604 c 0
 112 601 112 599 112 599 c 0
 112 590 112 582 112 573 c 0
 112 564 112 556 112 547 c 0
 112 529 112 512 110 495 c 1
 104 492 98 489 92 487 c 0
 83 483 73 479 65 474 c 0
 50 465 45 453 45 443 c 0
 45 430 54 418 64 413 c 0
 68 411 73 408 78 406 c 0
 79 405 l 0
 93 398 111 391 122 383 c 0
 128 379 132 375 133 374 c 0
 133 373 l 0
 133 372 134 371 134 370 c 0
 141 350 143 329 143 307 c 0
 143 280 139 251 135 222 c 0
 135 220 132 194 129 174 c 0
 127 162 126 152 126 152 c 0
 123 131 120 110 120 88 c 0
 120 78 121 69 122 59 c 0
 122 58 123 57 123 56 c 0
 135 13 175 -18 219 -18 c 0
 222 -18 223 -18 226 -18 c 0
 239 -17 249 -6 249 7 c 0
 249 21 238 32 224 32 c 0
 223 32 223 32 222 32 c 0
 221 32 220 32 219 32 c 0
 199 32 177 48 171 68 c 0
 170 75 170 81 170 88 c 0
 170 105 173 123 176 145 c 0
 176 146 179 168 181 187 c 0
 183 201 185 215 185 215 c 0
 189 245 193 275 193 306 c 0
 193 332 190 358 182 384 c 0
 176 409 150 427 117 443 c 1
 132 449 157 459 159 479 c 0
 162 502 162 525 162 547 c 0
EndSplineSet
EndUndoOperation
EndUndoes
Redoes
EndRedoes
EndUndoRedoHistory
Fore
SplineSet
162 547 m 0xe0
 162 525 162 502 159 479 c 0
 157 459 132 449 117 443 c 1
 150 427 176 409 182 384 c 0
 190 358 193 332 193 306 c 0xc8
 193 275 189 245 185 215 c 0
 185 215 183 201 181 187 c 0
 179 168 176 146 176 145 c 0
 173 123 170 105 170 88 c 0
 170 81 170 75 171 68 c 0
 177 48 199 32 219 32 c 0
 220 32 221 32 222 32 c 0
 223 32 223 32 224 32 c 0
 238 32 249 21 249 7 c 0
 249 -6 239 -17 226 -18 c 0
 223 -18 222 -18 219 -18 c 0
 175 -18 135 13 123 56 c 0xd0
 123 57 122 58 122 59 c 0
 121 69 120 78 120 88 c 0
 120 110 123 131 126 152 c 0
 126 152 127 162 129 174 c 0
 132 194 135 220 135 222 c 0
 139 251 143 280 143 307 c 0xc8
 143 329 141 350 134 370 c 0
 134 371 133 372 133 373 c 0
 133 374 l 0
 132 375 128 379 122 383 c 0
 111 391 93 398 79 405 c 0
 78 406 l 0
 73 408 68 411 64 413 c 0
 54 418 45 430 45 443 c 0
 45 453 50 465 65 474 c 0
 73 479 83 483 92 487 c 0
 98 489 104 492 110 495 c 1
 112 512 112 529 112 547 c 0
 112 556 112 564 112 573 c 0
 112 582 112 590 112 599 c 0
 112 599 112 601 112 604 c 0
 112 611 113 623 113 631 c 0
 113 632 113 633 113 634 c 0
 114 677 116 725 138 770 c 0
 148 795 173 820 203 820 c 0
 218 820 244 811 244 789 c 0
 244 775 233 764 219 764 c 0
 213 764 210 767 207 768 c 0
 204 770 201 771 195 766 c 0
 188 761 187 756 183 749 c 0
 166 715 164 674 163 629 c 0
 163 619 162 609 162 599 c 0
 162 590 162 582 162 573 c 0
 162 564 162 556 162 547 c 0xe0
EndSplineSet
Validated: 1
EndChar

